<mxfile host="app.diagrams.net" agent="Mozilla/5.0 (Windows NT 10.0; Win64; x64) AppleWebKit/537.36 (KHTML, like Gecko) Chrome/130.0.0.0 Safari/537.36" version="24.8.3">
  <diagram name="Page-1" id="ekDVrZMaHtlfrah9ryea">
    <mxGraphModel dx="1526" dy="1981" grid="1" gridSize="10" guides="1" tooltips="1" connect="1" arrows="1" fold="1" page="1" pageScale="1" pageWidth="1700" pageHeight="1100" math="0" shadow="0">
      <root>
        <mxCell id="0" />
        <mxCell id="1" parent="0" />
        <mxCell id="Okt3mSyjqSTwvYbomps8-1" value="" style="shape=image;verticalLabelPosition=bottom;labelBackgroundColor=default;verticalAlign=top;aspect=fixed;imageAspect=0;image=data:image/png,iVBORw0KGgoAAAANSUhEUgAABXoAAAMMCAYAAADtnR/nAAAAAXNSR0IArs4c6QAAAARnQU1BAACxjwv8YQUAAAAJcEhZcwAADsMAAA7DAcdvqGQAAP+lSURBVHhe7J0HmBRV1oYPMDPMDDkOSTAQRAkqikQjqCCuyhp/MO+KuqIIi4oBXd3FCGIWd3UVQTHhqggKmAFBRSUoEgwkYcgzwAzMDPD3d6vudE3T3dOhqruq+3ufp56qrm6KntO3q+9969S5VUpKyg4IIYQQQgghhBBCCCGkUg4cqKjS9GPrWi/Wx3rbugbWbZIaVKlSxdzyb1vXgdvWx9a1JvBxKCh6CSGEEEIIIYQQQgiJgkA5G0rkYh3qOU3gY+J9Qola6zrYPutaE/g4HBS9hBBCCCGEEEIIIYRESShhG0zohttXGZG+jiSOSOWr9XXBRG7gPutzIPBxZVD0EkIIIYQQQgghhBASJcEEbDCRG2yfJtgxSGoQTtoGE7vBpG6wfeGg6CWEEEIIIYQQQgghJAaCidrKZG6kcpcS2P1EKmIDX1fZYxCt5AUUvYQQQgghhBBCCCGExEEkwhdEK28pe91LtCI2Upkbi+DVUPQSQgghhBBCCCGEEBIn4aRsJMKWUtf7RCJpw70mHskLKHoJIYQQQgghhBBCCLGJSIUtxW7qE6m4jVfwaih6CSGEEEIIIYQQQgixGYpcUhl2CV5NVXNNCCGEEEIIIYQQQgixCUg8vRCicbJdMKOXEEIIIYQQQgghhJAEwmzf9CGRop+ilxBCCCGEEEIIIYQQQjwOSzcQQgghhBBCCCGEEEKIx6HoJYQQQgghhBBCCCGEEI9D0UsIIYQQQgghhBBCCCEeh6KXEEIIIYQQQgghhBBCPA5FLyGEEEIIIYQQQgghhHickKK3rKxMioqKpaSk1NxjDwcOHJDi4mLZs2evucc+9uzZo46N/8NOSkpKVCz27dtn7rEHf4xLzD32wBj7YYz96BiXlTHGjLEBY+yHMfbDGPvxXoz3McYmjLEfxtjA2RjvZYx9+GO8x9xjH4yxAWPshzH2449xmbnHHhhjP4yxH8bYwM0xrlJSUhb0X+7YUSD79+9X23Xq1JZq1aqp7XjZtWuXL8CGPK5RI1eqV6+utuMFwcWHB7KysqRmzRpqO17QyAoLd6rtqlWrSt26ddS2HbglxrPmL1HrTdsK1TrfXIP8rTt8i/EYjWzTdmO7cb1aUqVKVclrUFs9BnkN6hrr+sa+xr419unX5NUPHjuvxzg3N1eys1OrHS9euVZ99iCwXej9ul0gvpt3GMc2PvsqB7UL3SaAtV2EahMg1WMcDc61493lP3jeiPE+X4yNdscY7/XFuEhtM8aMsYYxNmCM/TDGfrwWYyQ/FBQ4H+PatWtLRgZjzBgzxhrG2A9jbOD9GOf4YpyttuPF+zGu5YtxhtqOl8TEONMX45pqOxpCit5t27abW/YGAyJEG/qcnBzfYk8wYLuLiw2TnpmZKbVqRR+MYJSWlsrOnbvUdpUqVaRePUNm2kGiY6yF7pJV62TxijWSv61APU4UndocYq5bSkffokVfKsU4Xpxrx2W+GBsS0hdiX4zrqW20AbQFyFyI3ES3C3z+aAfWNqH34/3ifQOeK9iOQah2bAdOxdh77dgfY1C/PmMMGGOnYmxkmoLMzAxfjGup7XhJVIzxfvG+7YAx9uNcjHf53rdxAdm5GHvvXMF2zBgDp2JsTYQA3jtXZKs42wFj7Icx9rN9+3bRSZteizH6mehv2oGzMd5RnhmbLu04pOjdu3evbylRB7brDQN8gHjjECF22X+AD2737iK1xvu160oIQGYa3jcyY6tXzzL3xo+TMV7406/y06/rZfuuPRHJu87tWqp1EzMrF+gszLwG/qspTRr6n9+4RWd2GsfWGZ8bzYxPkL+lwPc49P+tRV/7Q5vKkb6lWeMG0rJpQ/PZ+PF2O862bZAO0I5nL1gqK9ZukqWr1lXaJpr4Pve8hsZnH65dWNsEQLvQbQIEtgu0CZx0rK8JBBcFEIPex7SVo49oIYcf0sR8Jn6cjrHXzhVebMdejHHVqlWkRg1vxBgdCwwi2Y4ZYw1j7AfxRZydjDHuxsLaDhIT4ywVZ7tgjP14+VzBGHurHQNkp/FcwRhb8WKMd+/eLfv3M8Zsx350jPFekXlrF7i7Ce/ZjTEOKXqJ90DGbmXZupB3ndu1UrIOog7b2OckEL2QeouWr5ZFK9eofeEEMCTfoP69lAAOd2s/iQy0CwhelGMIxZk9Oqk1Yp+INgEW+dqpWpvtorI2gazfPt06sE0QQgghhBBCCCGEBIGi1+OEk7vI0kUmZiLlXTREIvoofWMjnNyF1EVcgVvbRWVtgtKXEEIIIYQQQgghpCIUvR4E8k5JvCByV0s8Nwq8SPho3mKZOX9JWOmrJSWpSCRyV2fuegktfmd+tYTSlxBCCCGEEEIIISQEFL0eAgJv8vQ5B4k8r8vdUEDwTZz25UHSl8K3IhC8k6fPCyr9z+jeUTq3NeovpwLhpG/fbh197aIHhS8hhBBCCCGEEELSEopeDxBM8KIswxndOqac3A2Flr6LlhvlHkC6C99ggjcV5W4oQklfCl9CCCGEEEIIIYSkIxS9LiaU4L18QO+0EHnBoPANLngvH9BLLj+nt/ko/UDJj1emzaHwJYQQQgghhBBCSNpC0etCKHgrJx2FLwVv5VD4EkIIIYQQQgghJF2h6HUZ4ybNUEJPQ8EbnlDCd/hl/VNG7EH4j3tlOgVvFAQTvsMH91PSlxBCCCGEEEIIISQVoeh1CYEyj4I3OoIJX4i9Tr74eVn43vb4axUyuyl4oyNQ+KbaRYBEg7aYv3WH+Uhk07ZCtc4310A/n7/V2JfXoLZag7wGdY11fWNfY3Ndvt/3Wn42hBBCCCGEkFiAT8E4JHDMwvEKSScoel1AoMwbecXZalItEj0Qvo+8NM3zYi+Y+B95xYC0mHjPCR55+QMlfTXM7q0c3FmgO0WLfd8ra0a5k+C7ig5UpzYtpaNvYWeKEEIIIYQQEoi+E3rJqnVJH6/o/YS4AYreJIITEWSelryUefYBsbdo+WolfHHChez1Su3eydPnyiTfohk7YhAzu20g8CLA4P49pU+3DvxB9oFOEjpIuLqtroBX0knS56i8hsa6ScCV7zzLOSzfUj5DX0nfqK+ib/E/Zy2zEQx8f3ElHf8HPzdCCCGEEELSBz1eAZFI3VDjFRBuzBI4XgF6zBLJeMVYt+R4hSQVit4kAbmLTF4NZZ79BBN7g3yLm7Fmd1P8O4M1uzedSzmgszR7wdIKdxMEgjaIThHi1KRhXdUZcrI94ju7cQtkc4EsWunrwPk6VaE6VHhP7EQRQgghhBCSmmi5qzN3g2EdrxiPWzk+XlHr5asjHq8g61e/P0ISAUVvEsCJCpOuAZyERl45gJLXIXDS/fvYyRVkrxvFUGB2N2vxOsvE97+UmV8tUe0CbeGhYZekhSwMJ3dRLgZXtyFzne4gRQM+IyV+w3SmKH0JIYQQQgjxPl4fryAjWN9ZbMUqfVmajjgNRW+CsUpeXH0aO3yQ2ibOYs3idJvsDZS8zO5ODIEZ3y/dNyQlf3Bxzpk8fV7Q25vQWTqje0fPtTd8duhAaVlvhdKXEEIIIYQQ71CZ3EX/3mtzGOnxChJVrBPGazBfTJ8TO6i/jRC7oehNIJS8yQVZnBOnzVHbbpG9lLzJBZLQmvGdSrIX5xqccwLxqtwNRWXSN11LcxBCCCGEEOJmAuem0aTqeCWY9MV4ZVD/XhS+xFYoehMERJ6uyUvJmzwCZW+ya/Zaa/JS8iaHVJO9wQQvOkuXDejlmtubnCKU9KXwJYQQQgghxB0EE7ypJnfDgTuNZ/rGa1bpS+FL7ISiNwEga/PK0RPUNiVv8nGL7KXkdQ9W2QsZ6MWavYGCF1IXctdrtznZBaSvtTQHoPAlhBBCCCEkOQQTvOk8Nw3GKxOnfUnhS2yHotdhIHlvGz9FrSFeJo25wXyGJJMR4yaXn1CTkcFpLePBidfcgVX2uiHbO1IoeMND4UsIIYQQQkjyoOAND4UvsZuwore0tFSqVasmVatWNffYA45bpUpVycioZu6xh7KyMjlw4IBkZmaae+xh//79sm/fvpiOaz2pMWvTXQy+4xklf2LN4Iy1HVszvCHjRl5xttomycea7T18cD9VJD8a4jlXVEbg+Tiww0TBG55gHSh8voP69yj/7vM3zyCR7dgunIvxPl+M9zPGPhhjP4yxAWPshzH2wxj7YYwNGGM/6RZja3KThoI3NKGEb6wJKkY7ruJrxxnmHnvgucKPW2Nc7e67R99rblegsHCn7NmzR/buLZHq1bPUm7eDoqIi31LsO+5eX6AzVLDtoKSkRHbu3KXWvnGvbY0Dja2goFDFAcFGLCIFQu++599R2zihUcC4ix7HtJV5P6xQn1PNnGzfSTRyCR9PO77f1ybytxUqMQf5T9xD53at1Gfzy9p8+XXdZuneuY1qG5FQ8VxR5jtXVDefiR/r+XiF7709hizeBUvVc2hH11/UR269coC0PiRP7SMHgzid2b2T+RkXSP7WAt9nvEm+WrRKDm+RJzmZVR36zStW5wtv/uY5146di3E1T8W4tNSLMfZWO/ZmjL3Vjnmu8F473rlzpxQXM8Y8V/hhjP0wxn5iPVegr40x7/8+W2juEZXcdN8NF6i+OAlOsPEKxqb/+3Sh5NWvLUf4xiyR4m/HJWzHjv/m2R3jUvWe44lxUJ2NDCF02vQ2rLpd6OOCffv82/ECCaux/h/xgr8dMQCw9dEw7pXpao0vLK9auQ98Lij4DpAZiZNppMTajlGTV9flHXnlALUm7kJPWob2MHu+IVMjoeK5wsi0tAPr+fjtT76V2594vbwN4QISysHwIlLk4K4K1ElHZ1N/zqiX/fSbn8jmHbsc+M3z/2547zfPmXZsf4z9f781LvGSiBjjuN6LsX2xYIz9VIyxt9oxzxXOxxjHtTPG+Mz0NmPsTIz1+2SMGWNNxRhH5xXC4WSMYzlXIIsXd6/q8QrGKbMnjOJ4JQr0eAVJYRivAGRGY8wSqbNwqh1b20Eqt+NIcC7G1uPGFuOgoheGOzvbMOiwx3ZZeqDNPFKms7Iiz46tDBwLx8R7t9P+G3+/kYatYxIJuK2aQs/9QMDrk2c0Uk+3sWrVomvHWv5jUj6W8XAnsV4ACDxX2HWlUJ+P//niNHn70+/UPjWpo++HnxeQYgedzUdRTscXS/DF98vlX74Yb9+1xxO/ebgabfzm+f8PO7D+5jvRjoH1/7ADxAIgHnrbDhhjP4gF3iZj7N0Y6227MP5+537zgP0xNo7rbIy91o4zbI6xEVenYowQ2HncxMTY/naMt+lsO073GCfifOy1c0VkMYaI1KUaMKbCeIVlCmMHvsCa1AO/pOd/qgynzhXauwH+5hnv07kYx+42w9bohUS3Kb5pB05y+CKyBo37sdZldXJiNpyQdW1enLC1YCbuRNdwTvbEbDiP4AKB/kHnOcV+Ppq3WF7xnQP0hG2x1GcmhBBCCCEkHcE4BeMVneimklKGs0ShnQROMO2lycNJ4jFUfAgoeWMDJzr/SY41aNyONat3se8E6hQ6Yxj/FyWv+9FZvbOiyPS2G3XV1nKLDrN4nQFXyXHnhf5eIhMBd2UQQgghhBBCQoPxirVUAzJ4KXntB9m9uBtRj1dw5ynGK3qcSIiVsKKXxIZV6PH2fG+ghfxsc4Iru8EJGCdjoAUicTdn9OikvsPWCzeJREtegPcBycvziXPoW6N0KQfdeSKEEEIIIYQcTLDxCmvxOgdibC3lgPEK3BNlLwmEotcBFq80skLdJPRQePqNN96Qa6+9Vn7//XdzL9Hozwo/Vk6cKPO3FppbRgYxcT/4IdUsMb/TicLaaYJ4VAKSkjchIAPB2nmi7CWEEEIIIaQigZIXd8dxvJIYkDWNcn6AspcEg6LXZqzZf24o2wDBO2fOHLnuuuskPz9fhg0bJq1asZxEIPhR0mLPKmXtQotCqzxMBJgJ8tlnn5WtW7eae1KDtWvXyooVK8xHzqG/w/riTSIIlLy89SnxoPNE2UsIIYQQQsjBwHlQ8iYXJI8Fyl5CNBS9NmOVhG442b3++usyd+5cuf/++6VHjx7yv//9T9asCS6tSkpKVNYv5HCkfPzxx7J9+3bzUfx89tlnsm3bNvNRcsjfusPcso9kZXkXFxfLggUL5LHHHqvwuUL6f/TRR+aj5PLdd99JYWF0cv3rr7+WiRMnyv79+809zuB0pncggZ0mSt7kEXilXF/AI4QQQgghJJ3BxGsA4xXeeZg8AmUvk1OIhqLXZrQkTHTmZijOPvts6du3r1x//fXy3HPPSc+ePeWQQw4xn60Isj4h//bt22fuCU5BQYHcddddUlRUJPPnzw8qjnfv3l3pcYIBgffbb7+Zj0SJvKefflo2b95s7nEOnb25ZNU6tbYTfQEgL8HtolatWnLGGWfIzTffLFUssyuuX79ePv/886ikvlN888038ssvv5iPIuOss86SkSNHygMPPCB79+4199pPoj+vwE4TSS7WiRoh4HlLFCGEEEIISWfQJ9YJEMjkJcklUPZyvEIARa/NbNpmCr2G7hC9K1eulHfffVdlPz7//PNy8sknS9WqwT/2GjVqyI4dO6S0tNTcE5zq1atLtWrVVFkAHA/ZoVaQRQqx+OKLL5p7Iuekk06SjRs3mo8McnNzZc+ePeYj58irX1utncjo1SfcJg3rqnUiady4sezatct8ZHDkkUcqie4G0XvaaadFXTf63nvvVe25SZMm5h5nsF6wcaKkhxVcgWWnyX1YZ7fVIp4QQgghhJB0o8J45YqzmcnrEiokp4yfQtlLKHqdokmDxAu9YPz0009KokHGWjM6Ncie1Rm5mZmZakEJh3BkZ2fLP/7xD6ldu7Y0atTooNfn5OTIQw89JJdeeqm5J3IaNmxYIUMTUvqqq64KmYVsJ05lbyb7RFunTp2DMmazsrJUtq8bRG/NmjXVxYFouPPOO+Xqq6+Wa665Rl14cBKr7HUKtBFcgQW4IstOk3vA56/FOzq2vCWKEEIIIV4DfU0s6MtgmTV/SfmCvg2WcZNmqEU/xoLn9b/Boo+DhaQX+Mz1eAVzWej5LIg70Mkp+JxYr5dQ9NpMvpnR6xaOPfZYlaE7fPhwNSlbICiv8Oijj6rJrSD/IForE71g06ZN8uGHHyoxHJgtCho0aKAEXrRkZGQcdDyUlED2ZqJwMnPT6VIAO3fuPKhmcv369eXXX39V28jiRaY1MqSRkW0VvXjuhRdeUMeIFxxj4cKF5qPg4HPFe4XMj7Y0R926dVUbA5iULRHC2olMb421ZAOuyBJ3AfGuO7OzOKstIYQQQlyKlrgQtleOnqCWfjc+XL6N2+6xaKmLBfIOixa/+jEWPK//DRZ9HH1cfSxIYS2CSWqi5aFKgrjibLVN3AM+Fz2/DL67/C6mNxS9Kc7RRx8t//nPf2TYsGHyzDPPqBq4Vlq3bi0jRoyQ2bNnK+EGKRhM3CLrd8mSJeWTX0HITp8+XclhLBpkjv71r3+Viy++WE38VlkZCEhlCEGIZoDyEdbjAbwvZCZXdqx4yd9qnAzzGhglHOwir77zGaEalOpABq8VSNEtW7YoGYqsbtTnxevq1atnvsIAz+HzwOdsBRcD8BlB7mvQDr744gu5/fbbVa3mQHCMf/7zn2oJla2L+s4TJkxQGeLBRC0m5Rs9enT5BQq8ZsaMGeWvxd+B14wbNy7oe7CLjeXtwpksffwIo2MMWLLBvVw2oBevkhNCCCHENehsXIjWQPGK59BnCSV70KfB0rldS7XoDE0seh8W/ToswdBiGWLJKoKxTfmbOuAzxGcMEj25OIkcawmHydPnqTVJT6rdfffoe81tYgO/rtukftBq5laXM7u743YGZN0eeuihalKuRx55RGX5ouyCBiJw2bJl0qlTJ7XGa3W2JIDUu/XWW2XWrFnSoUMHVa4B5Rm+++479W+WL18uxxxzjHotRHG/fv3U/zllyhT1b1B3FzIvGNOmTZOXXnpJ3n77bTVRHMoJ4LhdunQxX2GUgoCAbNq0qdp2ikUr1qgFWbd9u9n7A4aODuh5TNuQHaV40ZK2bdu25h4DLWVPOeUUJXORab1u3Tq1H58n6i0DPHf44Ycrqduxo//v/+qrr9RFgsWLF6t6unjdZ599Jp988omq/4vs3TZt2pivNsBniDrNuBiA0gpHHHGE+YwfXGTA5H/HHXeczJ07V7UTHBtgwr8bb7xR/vKXv8gbb7yh3jve59SpU1X7xcUA1HLG63BsSGvUcnaCidMM0Yw24URG9vNvf6rOG2gXN1zUx9xL3EbN3GzZVbRHnSOQ9d+9cxupmRP8vEYIIYQQYjcYYy5euUbuf/5/MuHtT+SrxavUPvQjdxf7S9+hT9nz2HbS09dXgZS74eK+MvD0E9SCviZkkH6M8SoWjFH0ovdh0a/DoiZ98i1n9DBeDymsxjW+7jt68Kqv5HsfeC+4yxXvbfaCpfK/TxfKEt/7NuayMV7MPpS3eNf3GeLzxOf9jxsuMPcSN1Ijp7rMW7RSnRf6duvA71qawoxem2lsTuiVKFatWhXxRGWQqLfddptMnjxZvv/++woZsrrOKYQZJK0VZE1CACJ7E1mUGshgyDXsQ9anBv9+4MCB8t///leaNWsm1157rfz888/msxWBFIboveSSS+Sxxx5T/xaZo9bjAat4dgpddsOJzE2d1btxi3O3/+NzgLQPBFIUUldnwupYNm/eXEl6KxDygZP1ffnllzJq1Cj1erS1999/X8aPH6+E8dlnn31QBrAWzjgWBHAoOY//p1u3buozR8axzsqFwMWFBWQC4z1DJiNTfPfu3eq4kMfYjyzvV199VbWxwPdsFzqbF9id6Q1wdRxZEAAZo8TdYGCDDi4+t8UrjNrmhBBCCCFOAbmmM3Z1tq41Q1Zn4eJW+kljbpDZE0apNR5DymoZqxc7wHFQ1goL/o+xwwep/xPL2BGD1KLmnDAzggH+DmvWL/4O7GO2rzdgNq93KL8A44N3IaYvVUpKypwvbplG4AcLP2AAP3Z2/aAGA2Ls448/lgEDBpRnQn766afy8ssvq/qnQMs9Ky1atJAbbrhBTWiln4fEw230M2fOPCgDF5LwX//6l3zzzTdqWwOB9+9//1vdWv/cc8+Ze0MDkWvN/ERWKTJFMVkcskIhm3E8/D9PPvlkhfeO51CCIrDcgJ2MGDdZFi1fI4P795RBvsVO0CbQNtDpQYfICZBFi8+9b9++5h4DlOIYNGhQBXkO+d67d28ZMmSIkrfWz/XCCy+UK664wnwkSgbff//9smOHIamRDY7XQLrigkH79u1lzJgx6jmAYz3wwAOqNMMJJ5wgI0eODCl78ZledNFFKpMcx8B7hLRF1m7nzp3l3XffLW/LyOhF1veiRYtUJi8EL9ryt99+q2oLI9PcbpC9OWLsZLU946lb1dpOkOmNjhPOEzhfEPfzyMsfyEfzFkunNofIQzdHP+EkIYQQQkg4kASwZNU6dVE5mAiFyNElpbyAumty+WpZtNL392wpqJBIAdCnGtS/l0qqSGTJOxIZerwCcCGBuJ+J73+p7krF9+ml+4aYe0k6QdHrALhKiR9lXM10cvZ8TEKF7EydoVlYWKhqoqKcArJ3UarBrlIHkHdPPfWUkoOQcHagxS+OGVhXNtGgwzH4jmfUNuQNOhx2omtl4co2rno7AbK7H3/8cbnppptUXCFNkUmN8hgoe3H55Zebr4weSHlI2bvuukvVZ7aDzz//XN566y0ZO3bsQXWZ3YLTP5KJuABA7MUq/9EmOCAhhBBCiB1grIBSB+gbWsH44YxuHX3rVp6Ru+HABfOZvr81UPqiTzWofw/p5Bs/s3/lHrTo1ZnjxP1wvEJYusFBcOXSSZAJi0nSNMh4RFbjr7/+quqa6kzIWMjPzy/P9ERJAAhkrFHT1S5w7D59+iRd8gI9ERuwW/KCPicacUPGcOBVbLtAzVtkvGICM2R5n3feeSpLFtnQyOjFBGz4DLEPGbFWkD2NjG7U48XngvIZWKMNYAK/W265RdXJjVXyQhQjIxj/D0qBoCbz008/LX/6059cK3kBMg8A6hs5ge7Io+NOvIGTF+8IIYQQkn5A8OqyDLpvaC3HgCQR6+3YXgd/iy73gL8RIhvzYCBRCjG4bfwUFROWdXAHOps3L8ElKknsYLyizxcsN5eeMKPXAfRVLyezN8GPP/4od9xxh5x77rnqdv0aNWqo+qjY/+GHHyo5C8kXCygLgdv1UQcVwg+TrGEiN9RLtQuUmDj55JPV5G/JJhG3N+hMb3Ro0MGxGwjZ7du3m48qgnaBjFxMmofazBDCgdIWIhj1cvF5oFzD7Nmz1WcPMMEbMsR1iRArKLWgXwcCHwNkF3/wwQeyerX/4gfqM0NOxwveEyS03cLY6SxvtAW0CcDboLwF2gXax/DB/WyfuJEQQggh6UGwDF6MEVAHNd0uLKNf9YpvLIZEKZ0Uwwzf5GMdrzh9t7LTYDyKuWcwbkwHdLk5jFUwZiHpBUWvA+DHOhF1epEdiYmrMDEWbtHHyQsZvX/+859Vpqy1zm4sQNahdi7WmHgrcJK2ePnhhx9UuYELLkjuzJ1WoedEfV6N0+UbXnzxxQoZ3okCghUiWRP42GkgelEHGBMD2onT8h9tAW0C5wfW5/UW7DgRQgghJFYoeMODfhaFrzuweg2vJ6bgzlbMA4S7W8NN5I2EtylTpshll11mu/9IJHosy3lF0pOwohciMVgGXzoSbSx09iZ+tFnLJji7d+9Wk7+df/755p7kkKhi5Ym6AEDsoc+QB9Q6Wvkf6bkiUZn/xH7SYUI2p37/2a/wwxg7D2PsPIyx8zDGzpOoGGMsMHn6HAreCAklfK13U7Ed+3EiFl5NTNmyZYv89ttvcvzxx5fHBKULhw0bpiaRD3fXM+6Qve++++Tuu+9WdzV7FYxV8B1y2nHYTaLOx6lOyEsZu3cX+Rr5DpXRaSd79+6Vbdu2y44dBSoD1S7KysrUMXFs/B92Uli4U8UCV3ciBT9CAF8w/eNEKoJSE6eeeqr5KDngs4HkBdHUYY2lHUMK6avQuDWJuBfIf000kjeWc4VXwDkW9b9JdHW8nfvN2+f4bx76AXbivX6F8zG2+1yhY4zj2wlj7CcRMUZc7MLL5wrGmDHWpEKMcYFfT8ILIHjLa9RS8gZF1yhGrCAakUSlavj64ohtr7Vj/H461Y7Rt3KiHSfyLk07Wbt2rbzwwgtqvhkN7jpFnwBlDMNRr149NWm8lyWvFdydjXGcXXixHeNzd/5c4a4YBxW9sN36gKWlZZV+GaJBHxcNzs4TR0lJaXld0L177Tsu/nb9oe3ZE3mQcaVRS71HXp6m1uRg6tata24lh5nzFqu1cYU4cqEXazu2XgDAbJjEfVjlP7J5IyXwXIHzaDjytxWqdZMGyf0ORAra+bhx41Qt6GDgu4BJHGMBP2a6I4b1m2++qbbdTv5W4zMMh/49Qnzs/G3C5+H0bx7Oc5W140hJVL/CazGO5FwRKdYY4/iMsddibPz9iEc0/YrK8PK5gjFmjDVejvGSVWvlytHPlU9ope7kGjFISUze3RcZiJUWvgCyHHfPItsUeKUd47j+dmy0DzvA346+FbC7HW/YbMz/ktfQW2312GOPVZm7OTk5apyBbF7MT4PHVvkbCkxM/v3336vP6+OPP5ZLLrlEzYv0yiuv2NomnKRJQ2OMuXnHTt97tvf74bV2jL4gcPZcYd9xK/7mxRbjoKIXKc16oibUL4l1pv1gZGT465zYe9xq5pZIZqZ9x61WrVp5ine0NVqGX9ZfrRctX1MhQ5C4g1izeUGs7RgXAHQ24CMvTWO2twvRF2ailf+B54pUuzUENZAfffRRNYlBMHCb03XXXSeFhRXlJ35c0bnSP6rFxcWyY8cOtQ2QJYza0u+99556jB+2Tz75RFDaxa3kR/G9tZ4f7P3N8x/Lyd88u9oxjqPfJ7bx/9iFc/0K/7HsPC5j7Meb7diIhf0x9v/9jLEzMbb+/U7F2M7jsh37SUyMM2yP8dRPF8o/X5xWfnH/8gG9VLkuZvDGBoQvJLkW5BPe+dy3fCFbCnZ58Fzh/12NFyfbcZ5HElLCsXjxYjUpObxWrVq1gt7pg33WO84wrkGd3m+//VbefvttVdv33XfflS5duoRMenErjerW8rU3p87zdrbjDN9n5NT52HjP2HbuXGHfcRELTawxrnb33aPvNbcrgLol+BBzc3NsCzLAjx4WTBRm9w810vGrV8cSuuZKtOBvxzHxnnEFKBryfD9Cm3w/7L+u26SyN8/o0Ulq5sY3QRqxBwjWv4+dLLuK9yqhN/ra6OoEx9OOMZHAV4tWqVuOauZUl87tWpnPkGSDTOupH3+rts8/9Xjp1Cbyjni05wqcF5CRUDO3upzZ3chQcDto6+j4NG3a9KDzLL4LELh4TYsWLcy9Iu+//76qcQXZ27VrV9WJmjt3rrRt21Y9/91330n79u1V5+mkk05Sx9EdsTp13Jk9gPM5liNaNK5QJy4Y1nOFtTMQL278zasM3a/IyckNOwlGtDDGfhhjA2djnMUY+0hMjHMYY8ZY4WyMq6v3aneMRz/3tny2cLna1lm8PY8x+j4kdiB5B55+gpLnv6zNl9Ubt8r6zQVqPFUzx55xNtuxnzW++H61eJXABiHubmfp0qXSuHFj85EBYoMkktNPP10WLlwoHTp0UOUZNMj4/dvf/iZvvPGG9OrVS41BGjZsqIQu4pmXlyfdu3dXr8XE9y1beuNCDepbz1u0UmrlZsuf+5xo7o0fJ9txVpYz7Rjv0/nfPHsv3sQb47B/Jd4sAm43CDLevN3gmDi23aAxxPrBYUZ2XcIBYpEZnO4AWZv6s9CZ19ESaztGe9AZxMgoZra3O4C4Q8F6AHkXTTavJppzReP6tc0tdwOxi8kMNOgYBWbtAvztgwYNKr/NBKDjNH36dHUVXH9XNmzYIJMnT5atW7eqW1E+++wz+f3336VBgwbqeYAOmvU4biXSLId0+s2rDBxXX623E8bYD2NswBj78W6M7RuMaRhjP4yxAb7LdsYYiRzWWrw6i5dlGuwF2b2ILeJqlMeYUGGSu3hJ93as0X1dLzgM6+3uVjB2ad26tfJakLiBfgv1fE888UQZMmSIrF692twrqkbvkUceKR9++KEsWbJENm/erLJ8R48eLS+++KL5Kvei70BE8qHdeK0dg3T7zatSUlJmT/ELEhL1gz9+ilrjBwmZvfyxTx56xnyAGfOjmVjJTjApg67XhbpTXm8TuNX+008/lUMPPVRdKfUS6LwMvuMZtQ0Rn4iZSdEZxUAAuPnzx6y1KMmg61nhR/Lxxx8PejV7/fr1SgrjajhA2QaUZJg0aZIq2QBQAgL/dsWKFerx4YcfLn/88UeF26jwozZ+/HjVltzIiHGTVUke1HCO5YIAIYQQQlIPjPUgHDXI4mWZBmdRiRqWcnhIsqrsbisSOV4ZrwDIWMz/c8ghB4/tIWhRZxdjkoEDB6rxiAZjlFGjRsmqVavMPQeD1+O4uAuxY8eOcvzxxzsi9+wEyWRIKsP3Ad8Lkl5Q9CYIq9RDIfnLzCuQJLFYJa8bJA06g+gUAlyZ1pMMeBEUrYfoBQMGDJAaNWqobbcTKHkfGnZJeRa+0/S78WG1ToWBwK5du2TkyJHy17/+VY477jhzrwEE8NSpU2Xo0KHmHm/TZ8gDap3MC0WEEEIIcQ+UvMkDfXnrnbOUvfaix6tuH6tirHHyySdXuEsQ4A7C559/Puw4BJnA//3vf1Vmr9cSlkKhxytMTElP7M9dJkHBl0vP4A/RaC0dQBKDVfLGemu+3VilovX9eRGviF0rgZIXZTwSJXmB/r82bvFPTuYFUJJBZ/iiY7Rx40YZNmyYumUKV7r1xGt4HUo1DB8+XDp37qz2hQNX1BctWiSvv/66ucd9WM/blLyEEEIIsUpeJPJQ8iYWxPxRX8x1EtW4STNsLeOQ7mB+GeD2mGIcgrq6GH8A3FmIO05RQk6PTTTWMg8Y02DCadT3Peqoo9Q+r2Mdr3SMYs4ZkjpQ9CYQq+zFbb+UvYkDt1pbJa9bbl+A6EsV2QvRq2UvflTdDm71CpS8iRZ3uuM0c/4StfYK6Dh9/vnncs0118hVV10l119/vaqr++yzz6rC8dOmTZOrr75aPYd6V/379y8v5xAK1OzF8VAbC9nhbmWm+f1M5AUBQgghhLiXca9MV2uIxpFXDqDkTQKIvbW0AMoN6LsmSXx0bG1MsowxqpvdRb9+/VSJBow/9Djk8ssvV3OB4I5DK5iD5NZbby1/zbfffqvuTHSihmsysI5XmJiSnrB0QxJAGYdZ85eqH5/AK5DEXn5ft1E+mPWZzP5hrezcU+baGjVoC7qOM/BqLWcIPkjerl27ymGHHWbudR+6ZhFIluQFXqp7FQxMSvDrr7+qiQ0wWYG1c4RyDZC2derUUVm+kXScUBsrPz9f1cBy64y2vA2KEEIIIRpkj84yL9gzkzf5QETqMg7o4yeyJFsq45XyDZgwGvOAIGMXYw+UccCYNNikVijpgCxeZPtirIIxS6qAZCZ8BzheSV+q3X336HvNbZIgOrVpKYe3yJMlK9eqE+bUj79RsyG2PiTPfAWxA2RsPvHyO3JUsxrSqlEN6dPzBLlswEnms+6iZk62nHfq8bJpW6H8um6Teu+/rMv3dRZbSc3cbPNV7gdyD6IXhfCR4elGkN098yujQw65O3rI+XJEi+S8V3zvZ89fKruL96ql5zFtzWe8ATK4W7RoIY0aNTpoBtvatWsrYYt2EPhcKDC77ZdffqkmUzjhhBPMve4BFwjw3QSoz0sIIYSQ9AWCFwk8AEkaXp5rI1XAuKmHrz8974cVapyNMRbG3iQ+fl2/WY1Rd+/ZK2d2d287r169ujRr1kyNQTBGgegNlWwC+YvX4nXZ2d4Zb1cGBK9OaEIyE74DJP1g6YYkAcEUeMs+BJSbb4fwEiqeYyfLhu3FUlSyX2plZ8iBXflSVOTukgLINsaVN7QLNav/Hc94qpSDLt1QVFSk1m5Cl2pAXIH6Dt58adKv8vftZhT8d/vtUIli0KBBcsMNN5iP3IW+QKBL8BBCCCEkPYFERDYv6NyupVx+Tm+1TZIP7pA7o7sxGRsmQ9d3TJLY6XOiMV7BOIrjFXeD8qAAY1xms6cvFL1JBF+8l+4bUj4rqBfFntvQMk/H8LBDmkrv3idLbm4NJXlXr/7d9bIXt1dYJwXz0kWA3NxctXZbjV4t/nUMIXjdkpGJz1t/1q+YV1+J+0A2r24/fUw5TwghhJD0BHdkAUjFscMHqW3iHiDedUk0a3k8EhtIkNHjFV0ag7gPuBCd1ASfQNIXlm5wAd07tVG3lKCUA27fnrdopSxaucb341TXczU7kwVOarh6NfH9ObLLF0OA7NghF5wudWvXlNLSEtmyZYtaMjMzpVEjd5YV0OCWfmsph3zfjylKfOT7Hh9xSJ5ryzlA8KJ8A2jbNvllCCD873327fLb7Y1M+kuTVqohFDVyqstXi1fJL2vzWcbFhaAze4+vHQFk8+KcTQghhJD0BNLwvuffUdsDTz9BOrdrpbaJu0AJh7ks4WAb3Tu3ka8WrTLjWZ3t3oUg4Q1gzMs7ENMbil6XEEzs4TZhCt/wWAUvYga0zLP+mBti90C57MW222UvCLwIABHoZuGLYvaY2RTrDh2Sl/WoBS++Q4Hi3411io5okVf+3ceCjqmXajOnOvc897Y6vyCTYfS155t7CSGEEJKOvPvpQjWhLsZn/7jhAnMvcRvoS6NfjfET0HfRktjAGArjUbR9jMExcTjHK+4BdwBrH/LSfdepNUlfKHpdhhZ7m7YVKJlH4RucUIJ3+GVnq6tXwWQexC5qxxYU7FCyt1WrVpKZmWU+6170RYC8+rV9nZXNrhe+mOkUYIbTrKzExjeY4EWnDnLO7VfxD2/RuPwqOSaQoOx1Byj7gWwQMPrager7SAghhJD0hNm83gJ9aYwLMGbCvBicmCo+MJ7SE0lzvOIeUGIO7RwguQlJRCS9oeh1IRAJkFMUvgdTmeCtTMJgZs3Vq1erjNM//tigHntB9gKcsN0ufCF2f/zxR7XdvHnz8snZnCac4O17ojc6dXiPh/s+Y2Rv85Yod4B2pWetxflFT5xHCCGEkPSE2bzeAp+THh/sLi5h+S0bsJZw+GVdvnRu24qyN4kYfuQDtY3xL0s2EEDR62IqE75ywLhKmQ4nVgiXZ9+cHbPgtQK5C8mLSdm8JntBZcJXt4dktQtduqFx48ZSr149c6/94EcNk5c9+8ZsTwteK2jH1lui1L6Gddl5SgI45+hOk3Gu4YQGhBBCSLozefpc1d9mNq93wFwYmAMHZRwoweIH4ys9XsG4nLI3eWC8iAnHAcYrLDFHNFVKSsoOmNvE5eBkOnn6HLW20rldSzmjW0fV2UilTF+IFvytWFvBSWxQ/15qHSubN2+WhQu/VbK3ffv2vuVo8xnvMWv+El+7mKeuqlo5s0cnOaN7RyUPE9kuPv30U9m0aZN07dpVlW+wE90mFi1ffdBsrxC8g/r3KJ8R1stgEDHJt4DLB/RSNbDSNYs/GQRK3oduvlRtE0IIISS96Xfjw2qN/tnl5/RW28TdYMygJ6l66b4hKTFWcAPW8Qp8xMgrBnC8kkCskhdtGm2bEA1FrweB6Jq9YKks9n25A+UeTrKd27T0rBiCYJk5f4ksWm5kM1qByOtzYoe4BK+VZct+9C3L1LbXZS+A8EW7yN9aGLRdXD6gd0Kk79dffy2//fabkryQvfESTu6iLag20bZlynXarJ0nSPvLfAMKdp6cBzWudLkGSl5CCCGEaNC/vnL0BLU9e8IotSbeAKIX4wjUL8WYktgDxiuz5vvGn77vBmVv4qDkJZVB0etxIpG+Su41rJvwzM7KwAlq45Yd6m/YuHVHSLnbsXULx36QU032aiqTvmgXyAB3ok1o0YvSDaeeeqq5N3J0Bne4zF20iVSUu4HwSnliwWy1+jxEyUsIIYQQK+hfj5s0Q/XFJo25wdxLvADu1MIYA+MIyF5iH1bZi+/GoyMGcbziILotA45XSCgoelMIiLElK9eUn2iDAVmk1g6KvmBUJu+s4AfYzszdyvjyy89VKQdw1ln9JDc3MROIJQrEHCU/gklfjZa/xnZ87QKSF7K3MtFrFf3qcZh2kU5yNxBr5wmMvOJsleFL7APtDpM8asmL+m2DWMONEEIIIRb0BXiKXu+h5RjFmDNgPDfulekcrzhI4HiFbZmEI6To3bt3r1oyMjIlNzfH3Bs/ZWVlUlRULFWrVpUaNXKlSpUq5jPxceDAAdm9e7fs339Avd+MjAzzmdjRJ6o1f2yWffvKpFnjBlK9ujFplx2yyckYf/vjL7Lstz/k59Ubwwo+DToseQ2Nv6lJg7pqjcm+NBB/AJnBAIJOoydHw8QEANm5IH+LsT+c1AWQeGVl++SkY1vLsUce5otxdfOZ+Ik0xh9+OEPV64XkPemkk9Q6HF5qxxq838UrV8vy1fnyk69tVNYurG0CBLaLUG2ibG+R7Nq0Wm2v2VNTrYG1XVTWJvDD1dj3/7Rp0Vg6tD5EDmuR55kYl5WVqjZsZzte+NMv8sRrM2XT9p3qMUs52Ie1VAO477qBckKH1uaj+HH2XFHka8f7PdOOnfzNY4wNGGM/jLEBY+yHMfbDGPuJJsZa9CJBYuzwQebe1GLfvn1SrVo181HqoPt7kcgxniv8RHOuwLjytvFTyseXvBvRPnCRQs8fAiJJSmE79uP8b14VX4xruCrGQUUvDrx9u1/k1a5dy7YPsLBwpwoIyMnJ8S32zM5YXFzsW/ao7czMTKlVyy+YrODEgzIHm7ZBcvkWLZ+2GpISVCZFrWjhm9fAKkXrKhnWUZVNqB1SCm/btt3cSkyMcaUNfy/+9sUr11Qq+uwGP6yIDTIzVYzM2JSWlsrOnbvMV4nUr1/P3IqfSGMMyfvFF1+odSSyN9ntOFpCxRifP9oBMsHtahNN62XLgGObqe0p89bIzj1GnEIB0Y/vC8SuNWM3VWJsB2jHm3fskglTP5Nlv29Q+9BpGnnlAOnsixmJHmSUT5z2ZflV8UZ1a8mQgSdL+0ObevA3L8PXjmup7XgpLS3ztWPjggJw6nyM94v3bQeMsR/G2MD7Mc5WcbYDxBdxBukeY7xfvG9gb4zZjjUVY+zMuQK/z/idtoNoY6xFLy64I2MxFVizZo3Uq1evvN1OnDhRtmzZIsOGDVOCCF4AYySMjeySGMlAizKMMyqrZ+rcucJ/Pk5mO46GWM4VKG+CMicaZvfGTmAWL9rv8Mv6K69SGRiXYnwKvNCO0QdCX0jjXDuu6WvHmeaj+HBzjENm9O7YUaAMMqhTp7ZtV/Z27dotJSUlahtXFuwy9Xv27JWioiK1jaxbGHV9glmyal3QGraJBF/GTm1aKpmlJWf1qpL0GGvRpwWwxirBAV6DH3osm3fslMb1avl+7KuqvwPgb9LojE/8raCy2+2RzVtYaPzf6FDUrWvfVb9o2vHq1b+rer2QvZXV601EO87KypKaNe0pIxFtjPVFAaDbhc7YDmwXiC/aBDA++yryp2MaqMfrinOl7ECVoG0ChGsXqR7jaLC2429+XiOvfTi//HzGq+XRY61tBXBV/OweHTz7m2dnO0YmT0FB8s/H0WCNcW5urmRnM8aAMWaMAWPshzH2wxgbRBtjLbBSSfT++9//lkaNGsl5552nHiPr7cUXX1Tl14488kjBXXA33nijPP7441K7ttGP9yLRiF6eK/zEeq4ILOWA8QomBmeCSuQE3nUYbX1pp9oxzhHINgVebMc4j2Vk2PObh/Pj3r3ujHFI0YtAo2HAINtlvAFEIU5ySG+2a8Crmf7l9/Ljr+vlx1/Wl59UQqGvKmkBpW9DB3riMo1VoOhbznW5AqBvWdf7Fq00rrhUdot6x9aHSKN6teT0rkdL87z6YaVXNDgZYxwXx7frCr2mpKTU1+bKVEO2q7MJ0I7x5cPVx0jacaSTszHGfoKdK3QpjC5djpdWrQ5V+6KFMfajY1ytWobv2Jnq/IbOk65vDCh8KydQ8FqvigfG2C7Yjv0wxn4YYz+MsYGTMcaAAeWKMACxMyOPMfbDGBukeoy9XroBkhGZus2bN5e77rpL/b3IGoPY/dvf/ma+CjEpkRkzZsi5556rHs+cOVPatGkjhx12mHoM5s2bJw8//LDcfPPNMU2+nGiiKd0AkFGHdmaXuNE42Y6REYmENzedKwKzeyl8KydQ8FrHK9HixXbspd884NYYe34yNpw4Zi9YWkF4WMHJBLVF9RcDE00lUoTg9mC1Xr5aCeBw8hfvcVD/XipL1i7pS6LHKnvjEZXpjB2il1RO4NVyQOF7MIGCF+CKOK6ME0IIIYREAsadEFdeFb0ffvihNGjQQObMmSOXXXaZNGzYUO1/9tln5aKLLpL69euXC4VXXnlFvQasW7dO3bV21FFHqce4VfmOO+6QUaNGycsvvyy33HKL2u9mtDyLNiuSxA/GK5gYPDBBhcK3IoGCF3CCaBIrnhS94eQuMnUhTBMtdKMFAjic/KX0TS5ffvm5bN68WW2fdVY/qWxyNlKRhQu/VaUwIHkhe4mzUPgGh4KXEEIIIXahRS+YPWGUWnuJb7/9Vu677z6V3WbNEDvmmGOU9J09e7a5pyK4jXrMmDHSoUMH9Ri3QEP0Ll26VDp16qSeczsjxk1WdU4pzpIHhW9wKHiJE3hG9FYmd8/o3tHTJwjIiJm+vzGU9EW6PoVvYtFZqZFMzkYqQtGbHEIJX3SgUI4mHaQvzqWIAwUvIYQQQuym340Pq/WkMTd4sl+1ceNGlYXbr18/qVvXmGMlOztb1Zfctm2behyMvLy8CuU4cFvxhg0b5J133vFERm+fIQ+oNQVa8gknfNNlvIKkv5lfLTlovML2SezC9aI3lOBNBbkbCj0b/MYtmCjNL2wofBMLJC9mmaXsjR5IXsheTO7Qu/fJ5l6SKIIJX5CqnSgtd3GXROCFMgpeQgghhNjFlaMnqP7VyCvOLp/zxSughvKECRNk06ZNqkYvsnrfe+89VWM31ERrKNkwf/586du3b4Us4K1bt8rdd98tl1xyiRojuRn0DQff8YzanvHUrWpNkk8w4QvScbxCwUvsxrWiN5jgTWW5GwpI30demlbhZEDhmzggLFGvF7I33ORspCJa9IKBAy9Qa5J4dAcqf2thyknfcJ0liN2OrVtQ8BJCCCHEVvTkUuhHub1OL8Qu6vFCymIiIpRmwIRsKLWwaNEi+f333yU/P19OP/30gyZUw8ReDzzwgLRu3Vrmzp0rd955p3z33Xeq7AOyglHv99hjj5XbbrtNTZzkZvSt8Rg7v3TfEHMvcQuVjVfO8PXn3V6WMxThxitwOp3atKTgJY7gOtEbSvBeNqBXWqTxh4LCN3lYJ2ej7I0M1DdGnWPAGsfuoLJOVGdfRwOdKLeKX5wDN27ZUanc7dS2Jc+JhBBCCHEE9ENue/w1te2V8g2rVq1S5RogZP/2t7+pSddQduGrr76SgQMHmq86mM8++0wOP/xwadnSSLKCOJ42bZqSx507d5ZLL700ptngEw2yedFvZNak+wk3Xul6VEs58nBvj1fgb/qc2IHjFeI4rhG9+kuNtYaC92AofJODVfai5ixqz5LwTJ36llpT9LqPcJ0ogHNuXsM65fIXJKpDhXMbOkYoW5O/rTBoJ0lDuUsIIYSQRKPLN1zuG6defk5vcy9xI0rwmmUbkM3L/qJ3wHgFCYCrfl8nfY6qp/ZNmbdGdu4pU9tAJ6uocUrDugkVwMjW5XiFuJWki178SKKWJAVvdAQTvrhK2adbB55AHEJPzgYoLytHxws1elGrl7gTq/QFwcSvBp0p0KSBMXlHXn1/PTfdwdLgMdB1xnF1W6P3oWOkCddB0uDchk4SO0uEEEIISRaTp8+VSb4FeHVStnRhxLjJvj7mGtVnZNkGb4LxJMaVYMHaUjVmcfN4BVDukmSTVNGLMg2oc6TBl3LkFQP4YxkFgcKX2b3OouUlJ2erHB0rZkB7C33RbcnKNb7tNZV2pkIx4NhmUjMnQ115jwVdX5edJEIIIYS4DWb1uh+Mk0eMnay2H7r5UjVOJt5Dz/2CcTeSrYBd45V44XiFuJWkiV7UNtJfUIjdkVcOSKtJ1uwGReZnfrWkXPiyBpEzQFx+8cUXlL0RgBq9qNULyQvZS7wNztfoTGlwdTt/q/Wqt/9q9wmtakjTetlq+9+f/KrWAJ2fvAbGVfU88yo7wJX2xubVdnaSCCGEEOJ2mNXrfvoMeUCtIXgheok30SUUcYco7hQNB8YrGJ9sMrNww41XQonhcOMVgDELxyvE7SRc9OILZS3VgDINI684W22T+AjM7sUVpkH9e/AkZDO4qogfG8heTs4WGlx5RawoetMLLfhBh2OOl7aHM5ubEEIIIamHzuqF5H10xCDKXhfxyMsfqBqqgLV5vY0eUzo17sZ3mO2DpBpVzXVCgNzFD6KWvGN9P4iUvPaBjGhcUYY8ByiNcdv4KSGvVpHYgLhs1crIPofwxVVGcjANGzZUawhxkh7gu6AlL+Q+JS8hhBBCUpWHhl2iBBGSbGaaUpEkHwheLXlxlyslnrdxeizJ9kFSkYSJXiUdH39NbeNqJyQvSzU4A+Q56kUhzpC8lL32g6uJuKoIIHu13CIHs3t3kblFUhl8B/BdAMbFEEpeQgghhKQuEER9u3VQ2xOnzVGl9EhyUXe4vvyB2kbJBpYy9D56nN2wYWO1JoRUTkJEr3XSNUy4hqxTSl5nwaQAqHusZa++tYjYB2Svrs+L29WZuVoRHRvEhbFJbdABw3cAoH4WS3UQQgghJB2ASETWKKDsTS7Wydcg4VmX1/twDElIbDguegMl79jhg9Q2cR7IdGu9KMpe+7FOxqYnaSMGNWrkmlsklUGbt0reyiZJIIQQQghJJSB79e3flL3J4SDJO+wStU1SB4wzCCGR4ajoRS1eSt7kAslrlb0s42AvkLxa9kJ4oVg8Za8BYqIlOMs3pC5o8wCfNSUvIYQQQtIR64RflL2JJVDyDr+sf/lnQbyNLtugx5SEkMhwTPRCJuqavJS8ycUqe9XnQtlrK/jhweRsWOPHCLOCkopQfqcmyOTVHTCWayCEEEJIOgPZ27dbR7WtZS8maiPO8cp7nx0keVGbl6QGegzJO0UJiY5qd989+l5z21buf/4dyd9WqOTihLuuMfeSZFEzN1tq5FSXX9dtUpK3Zk6270eQdZLtolGjxlJaWiJbtmxRi8gBtS/d2bDhD98PdJHUrVuH8UgxrJIXmby8nYoQQggh6U73Tm1kk28MjDEXMk1/WZcvndu2UmMxYi//ePpVycsqkmZ1cyS7Vl15etSVkmfexUpSgzVr1khBwQ5p1aoVx5KEREFI0VtWViZ79uyVAwd8L6pWzdwbGZOnz5VZC5aq7X/ccEF52QCSXFofkie7ivaoTgfKamCWWAjfaNizZ4+UlpZKRkaGVKlSxdwbPyUlJbJ3b4lUrVpVLXbhb8cHom7H4cDxEIt9+/arWADjx+dAuext2LCR1KgR/W0mqRRjxAE/zjVq1JRmzZqZeyMjWIztgu3YINYYL1v2o6xevVptI5O3WbPmatsK3q+TMa5Sxe4Y73NVjCPB6XbMGDPGGmdjzHMFYIz9MMZ+GGM/XooxZO9+Xwy08J368TdKQGIsRuIHY9lHXp4mazdskrZNa0mtnAy5dMBpMY27guFvx/t4rnD8XBE+xr/8slIlDSGhJFLRyxgbePt8XCWl2nEsxBvjkKK3sHCnOjCCnZWVFXGgkS163/PvqO3LB/SSM3t0UtvEHXRu10pmfrVEdhXvla8WrZLundtELHvRiIuKin1flDLZv3+/ahd2gOPt3LlLrdHmsrPtu+Ltb8elUbXjyti9e7c6CeHYONnrLzZ+gCDAsH/NmtXq6mNmZuRxSrUYFxRsV7I3KyvTF4tDzb2Rgbq+e/caJzhrjOOF7dhPLDFGFq+uy4vPtH37o9S2FedivC8tYhwJ+PFnjA0YYz/ejHERY+yDMfbDGBtg4JiIGKOfyhjbH+NWeXWlZZP6suy3DVK0p0TmLVopi1auYXZvnKAcxiMvfyD5Wwtk154y6d6+uewrK/WNNzZL69ZtzFfFh78dl/Fc4fi5InyM9ZijffujIxL5jLGfiufjKh5rx2UebMfuinHIvxAH1MBUR8q4V6arNbJ4Lz+nt9om7sJar3f2fCPzOhKs7SCaNlEZTh0XxNqOK2P//tDvWU/OBr744gvflzTy+rROxcJ6qAMH/DGxg3Ax1nHASTBarO/T3lg4H2NrTOzAuXYc3XEheVGyAeDKeqi6vM7F2H8sr8TYuXbs1HEZYw1j7Ccx52P7YpGoGFv7AvHCGPtxLsbWWLj/uNa/3ckY2xsLp45rjbF9sXA6xu0PbSrjh18ip3c9Wu1btHyNDL7jGflo3mLW7o0SxGzEuMmq9jFAHd67rh4gxx1zrHoMKYI7zuzAqfaWiON651xReSximePFizG2vk/nYuzMce2MhZMxTkw7dleMQ2b0wnLjP6hePcu3VDf3hgficMLbn6htlmxwL7iKrEs45G8tjDirF1co0NDQNnJ8r7frSgjS53VbzsnJ8f0/9qXTx9KOIwHvGbFATAKLw+MqEcoU/PHHBvUDhSs8qFGL/ZXhXIwRB2M7kTHGlTNkNmMdLPMzHEaMDwSNcTykWozjIZoYoy1/8slstQ3Ji7q8oWCM/bAd+0lEjHNzc8WuO8gSE+Ns9f/YhfdijOPqGOcwxuUxzlGZIXbgZIw19scY/cIDKoMlO9vOGFdNQIztPVdonDof2x9jtmONNcYnH3+Umhtlycq1srt4r8runffDCjV/CsZlzPANDQTvs2/Olqkff6uyeMHg/j3VpGt59WurNodYb9u2zddXLVZjsEjGXOFw7lxh7VfY146tx0ml8zHGj6tWrVLbxx9/glpXRmZmhqBUAWPsXDv2x7iKOi5j7GSMq8Yc4yolJWVmVzh+UJt3km+B4J005gZzL3EjuIr897GT1Xr44H7lM8QS+zDqmK5Rgqx9+/bqlpN0A3/7hx/OUNtnndXPd6Kyp3YWSTx68jV8hvgsCSGEEEJIdIybNEMWI9lmmyEtMW6+bEAvVV6PSVJ+IHhnzl+isqA1GK/2ObGDyua1gvGGvosSZcVC3XFGvMXq1b+r0g0cexASPSEzeqPFWpt34OknqB8r4l5w5fiXdZvkl7X56soyRa/9oF5vaWlJ+eRsIgciLiKfKuCK+rJlP6ntpk2bR1RbibgPLXlBt249+DkSQgghhMQAJmrD3ZS7i0tkd9FeNYZmhq+fYBm8GKcO+fPpct6pXdSkdoFgvJGZmSkbNvyhskDr1KnLvmoKsGHDejWGrlu3btRzvRCS7tgmet/9dKEsXrlWXYlE2QbiftCJwMRs+dsKfT+gHSKelI1EjiF2D5TL3oYNG6Vdx0NPTofb/fFDTbyFVfKiXAM+R0IIIYQQEhsYc1H4ViQWwWsFYwxMyFZQsEOKi4soBlOANWvWqM8Tk5unW7IUIfFim+hFzSGI3iNa5smZ3TuZe4mbgZSH6N1VvFcOb95YjmiRZz5D7AQ/TFp2ol4tfqzirR3lJXB1HRMkoGYWRa+3MMqPrFbbuA2uWbPmapsQQgghhMRHOOE79eNvZNHKNcgXSVnpC7n7ziffyj3Pvq3+5lgErxUkI6CmK8YdqCfPcYe3+eWXleqzxOdK0UtIdNgmese9MkOVADize0eWbfAQcxetUD+qNXNzVEeDOIOenA2yF2s7JgrwCshkxtVYFD/H3028AbJ4URcLICsi2sn0CCGEEEJI5QQTvhhXY4yWatI3UO6ijKAmVsGrwdgKYhDjjoKCAmndmmNbL6PHIZjnhqU4CIkOW0QvrjxiIjZw+Tm9U66Q/Pbt22XKlCly7LHHmntSh/wtBbJoxRpfB6O6+nElzoCOh5a9mCigtLRM6tatkxayFxm9hujN5G1UHgGSFyUbAK6ioy4vIYQQQghxDi18zzv1eOnUpqWawT2U9MUYzvcC49+5WPxi4u+5P6wIK3fPO6WLjL52oPrbYxG8VjC+QlYvkmv0HYXEe2C8jM8RYPxI0UtIdFQpKSk7YG7HDETvlaMnqO3ZE0apdSpRXFwsY8aMkXvuuUcyMjJk//798uCDD8ohhxwigwcPVj/CXgVXVR95+QPJq19HXrpviLmXOAVuhV+2bJnabt++vbpCmeroGVMhDFHjlbgbdKw+/HCG2uZnRgghhBCSXFAecfaCpbJ4xRo17g6kc7uWxrpNS3VnLWRpMhKvMK4EeL+Llq9WkjcYkLsdW7dwLMlIjz1yc2uo0mPozxJvYR2PDBzI+Z8IiRZbRC9O5rc9/praTkXRC/75z3/KiBEjJCcnRz3euHGjuiWkXbt26rFXQTbviLGT1faMp25Va+Is6SZ7rdmh/KF2P3ryNXSOzzqrn7mXEEIIIYQkm8qkrxUIYMhfoDNlmzQ06tZaM2fDSWEta3X93I1bdqg1wHsB4aSuxmm5awWSEKIX/VkmLXgTq6zneISQ6LFF9M6av0TGTZqhfiQmjbnB3JtajB8/Xv7yl79IzZo1zT0iu3btqvDYi/zg+2Ge88XnUrZvv/Toeqy0O+IwdUIlzmKVvfjxSuWYW0Vvqv+tXkdLXoBOMTMgCCGEEELcC2TrEtTvVdtrJH9rYaUCOBRa+FYmbcPRqc0hktegrpK66nHblurO0URjHX+wT+s99FiZop6Q2KDojZBHH31UrrnmGqlXr565R+SWW25RS8uWxpVSL/LrmvXyzVdzzEcGOKFidv2mTZtSyjkIbkfBFWeQ6gJ06tS31Jqi171Q8hJCCCGEeB+IXghfCGDIX7XP91gTqwgGWtrmNaithC6A1E2W0A0H71LzLsjmRVZvupQ6JMRuWLohBJ9//rnMmzdPhg4dqrJ2X3jhBTn//POlfv365itEXnnlFWnevLmcdtpp5h7vgdINj/13qrRqWEOOa50ne/YUm88YUPo6ByTvF198odaI7UknnZSyMdZSG3WyOCGb+7BmmPMzIoQQQghJfbTwrSCBt+4oF7iQuWrtMoEbKRh76DqvFIbeQkt6fm6ExEZVc00s7NixQ3755Rc16dodd9whZWVlqjbvtm3bzFcYnHHGGbJ7t5GR6WXWbSuWVVtKpX//s6VXr5PkiCNaS3a2UYsYJ9hFi35QP5I44f7yy6ryLFQSH1a5i5hCtDG2JNHgO64lLwQvJS8hhBBCSOoDgYsF5Rb0ghq6els/71UwxoIoBKtXr+E4y0PouwxTNQmKEKepdvfdo+81t2Onisj/Pl2oNs/o0Ulq5marba9SvXp1adCgge/EkiuffvqpNGvWTFq1aiXTp0+XvXv3yu+//66WNWvWyIEDBzw9IdvMeYtVVm/NnGw579TjpUaNGtKkSRNp06atLwYNJTMzU4qLi5XsLioqkvz8jbJq1SrZsmWz2pedXd33mizzaCRaELvS0hJfPLdIQcEOFe9GjRqbz6YOmLgQf19WVpb6PhF3gE6Url+G7P1u3XqobUIIIYQQQrwOxrZ//LFBSd7S0jKOQzwAPiv4BtC6dRv1GRJCosOWjF7r1T7MuullIG7vueceufPOO+WNN95Q8gOSqkOHDlKlShW1Ty/vv/++ksKpAOoqBdK4cWPp3PmYCpm+OTm56jlm+toHbkfRV5uRWYnb6AlxGnxfrZKXEx0QQgghhJBUwprVi/GrzhQl3oBzhhASG7bU6AWo0YtavWf26CQjrzjb3Os91q5dK/Pnz5eBAwdKtWrVzL2py+A7nlEzqw7u31MG+ZZI2LRpk2zY8If88ccfUlxcZO41YE3f2NFF50GqTVqGvwt/H4Wie9C1r9DOOEEFIYQQQghJVXS/l2MR94PPCZ8XxyiExI5tNXo7tTEyQjdu3aHWXgUZuljSQfJC8GIBHc3PLxJ0pm+/fv0jyvQNlMEkOJgES8tdPUlbqsGr6O5Ad3YB2h0hhBBCCCGpiu7vov+rE2uIO9myZZO5RQiJFdtErxaFi5avKZeHXqRhw4aycuVKNRFbqoP6vEAX4Y+FYNI3cCK3GTOmU/pGiHVytlSSvdbsZJb4SC5WyYuMBt4SRQghhBBCUhmMRfSEw3oSYuJuOEYhJHZszOg1ZuYEWiB6kapVqyrJi7q8qc7EaXPUum+3DmodL8Fq+lL6Rgc6IVbZiyvOqSBG+UPtDlD/2ZrJy8+FEEIIIYSkA7pWL8ZWKClH3AkmKQe5uYZHIIRET1jRW1paGlVmqxaGEIhezurt1q2bmpQtlVm0Yo25JdInCtFbVrZPzVhaGdFK3927MRNqqXrebqJtx5GC4yIedpOVlS0tWhgZ1rjibNftRYhBMmOss3p3745c8DsV40jbcbQkO8bhwPdOZzAgo0FnNTDGfuKNcSgYYz+MsQFj7Icx9oM4MMYG3mzH9seC7dgP27EfZ2Ocuu0YYxFrCQed/BAMxthPNDGOhlAx1mNFPXaMFsbYD9uxn3SLcbW77x59r7ldgcLCnbJnzx7Zu7dE1aytUqWK+UxoUKd39vylsrt4r9TMqS6d27Uyn/EWLVu29J1YjJqzqcrfx06WXb7PCZnY550aWY3OkpIS2blzl1rDg2dmZprPhKdGjRrSpEkTadOmrTRo0FD9u+LiYl/jLZOioiLJz9+oZC8mecP+mjVrRnzsyqjYjrMiaseRUFRUrN773r17pVq1DNtqOusY16pVWzIyMmTbtm3mVc0D0qhRY+NFMYCTWkFBoYoD4o7vtF1EGuNVq1apkxWySOvWrWvuDY3TMY62HVeGG2IcCnRkcVEFIP7duvVQ24yxH6+eKxhjxtgKY2zg/RhXS+sY79y509cfZIwZYz+JiDEG6+kd41L1nlM9xllZmb73U+Bbdvj+bVF54oMVxthPMtrx4sWL1Lp16zbKI0QDY+yH7dhPOsY4aEYvslnRodDb+/ZFfvU0FbJ67frg3crE978s/2yGX9ZfrSPBeqVCt49osWb69uzZ28z0zVbP7dixXX7+eZlt5R0Obsf2XWkpK/NfXYnm+1EZ1hgfeujhFWpJxVPCAX+7zlLHidMuoolxjRrGxRN9O05lJCLGsbbjYATGWG/HSzQxDgbajVXyWmcatsbYzlikW4zDYf372Y6dijHbMXA2xv6/nzFORIztPK73Yozj6W3GmDEGiYgxjpveMbYeN3VjjCzRI488Sm2HyupNTIxjz9QLJJXasXW8G0uJOWtf2/p/xEsqxTheKsaY7VjjthgHFb0Qndqgwx5HY5AH9e9ZXqv3kZenebqEQyqCz0PX5h1s+awiISsrS9Uwhge34wpLXl6eKX0HyHHHdZHmzQ/xHdeQvvjRjbemL9pxdnZs7bgy9N+PeCAudhEYY9xepG9biWdyNuPvz1DbOiZ2EE2Mo739JlExtovAGNt1wSjedqxrkCH+VskLrDHG1U27wLFwTGM79WMcDh1Xu9sxY+zH6XaMENgfY+Pv92I7Zoy9GWO9bRfG3+/d87F3Yux0O86wOcbGcRljZ3/z8DYZ49hjDIGoJWKwWr34+52PsfHe7SAxMbb/XIHjB8Y4mhJ/wdDjPOC9duyN83HFGLMd4226McZVSkrKQqpyGO9YArx45VoZ98p0yd9WIJcP6CWXn9PbfIYkmxHjJsui5WuU4H3pviHmXneAizZobijhsGHDH7J+/XrZs6fYfNYAP8rNmjX3Lc0kJyey8hqxtmO3ALmrJS9k3UnmZG2xoGNsN5HEGLWG0ZkKzCpNNZIZ40BwkURnKiDmsVwZdyNuinGqwhg7D2PsPIyx8zgXY2eO60UYY+dx6jvNGPtxW4wxrvrwwxlqG5O0tW9/tNr2MqnQjjFxNO5kxVj3rLP6mXvdA88VzsMY20PIGr0g1gDnNaij6vRC+OpJv7xarzeV0JIXjL52oPqc3IRubpHU9F21aqVs2bJZ7cvJyQ57ZcaJE0UiyczMUmL7jz82qE4J/lbECPujxalQRBJj1MKCwPe9WtVcSlWSGWMrqSp5gVtinMowxs7DGDsPY+w8zsXY3CCMcQJw6jvNGPtxW4yNcdQBVVIOdTYx1oplbOUmUqEdY3yPzwTzuQSrn5xseK5wHsbYHsKK3njAxGybthXKr+s2Kdl7Ro9OUjPXuC2fJJ5HXv5A5v6wQm0PH9xPenT2hmizW/p6FXQ8SktL1A8fFvyN8UzOlgwwEduaNavVulWrVp7vTLkZXA1fvXq12kb5D2TBE0IIIYQQQgwwztSJNKjhCdlLkgvm68EYH2NFr411CXETjole0L1TG5k9f6nK7p368Tcqg7T1IXnmsyRRQPJ+NG+x2u7braOqzetF0l36Gj92xpVnLNj20g8grqKtWrVKbSOjl6LXGZDFq+uN4Up4+/bGhBOEEEIIIYQQA4xFMFbEHYe487Bhw0ZqvEmSB5KCMK7HnYgUvYTEjqOiF3Tv3Ea+WrRKyd55i1ZS9iaYQMmLbN5UIF2lL37w8PehMwLZ66XMWLxPZJkio7dp0+bsSDkAJC9KNgB0kLp166G2CSGEEEIIIRVBiQCMFzG+wtgqlcvLeQGdrIKayRwrEhI7jovemjnZB8lewJq9zoOavLpcQypJ3kDSTfritiItTHG7kZdqSiGjF+8bEhIdK2IfuO3sk09mq23EN5UnvCOEEEIIIcQO0G/WY5Tc3FyOUZIExjL67s+jjjrKM+NbQtyI46IXBMpePUFbXsO6rNvrABu3Fsg9z71dPvEaSjUM+fNpajvVSRfpa52czUtlEHBrFD6HunXrqOxkYh/z53+lYotZak8/vY+5lxBCCCGEEBIKjKPQh8YdkwUFBczqTRI7dhSo0g2gU6dj1JoQEhsJEb0Asve8U4+vMEHbL+vypXPbVpS9NoK4XvfPFyV/a4F6/NDNl0rfbh3UdrqRytIXHRJ0QlC6AWLPK+CWKHSiatSoyQkPbATlGlC2AaBcA291IoQQQgghJDKQhKKzejFO5Dgl8WBMjqQgjG0p2wmJjyolJWUHzO2EMXn6XJk1f6nkbzNk5OUDeskZPTpJkwZ11GMSGyjVoLN48+rXkeGX9ZdObQ5Rj4mfTZs2qR+R9evXy549xeZeA9y606xZc/XjnpOTa+5NLAu++UHeeX+G+Si1aN6kvm9pIDt3FcuyVevMvalF82ZNZOCfzvKtm5p7nMUqeVGuAW2YEEKI8+h+bP7WQnO9Q60BEhvyfYsmr35ttW5srvMa+G8Nzmtg7vP13QghhCSH1at/VzViIRq7dDk+4j710qVL5dNPPzEfkVipXbuW1KpVS0pKSnxjG0w8nhjwOZ922mnSuDHnkSKpQ1JEL1i8cq2Me2V6eSe5c7uWMvKKAZS9MYDJ1jDpmgZyF5m8pHLcKH3bdj7J3Eo9uhzTXi48t69s31EoDz3+krk39XjwvlEy8Fzna2IvW/ajb1mmttEhbdXqULVNCCHEPmbNX6LWS1atk8Ur1pT3XZ0Ashfit1ObltLRt1ACE0JIYkBJPIheJFBgHBjJfBebNuXLkCHXmo9IPPTo0UOOOOIIWbx4sSxatMjcmxiGDr1JTjvtdPMRId4naaJXE5jdS+EbORC8M32DD53FCyB4mcUbG26Rvlr0dut6nLRo3kRtpxLN8urLzt3FKqs31Zj/9feybv0GGXr9VTL0uqvMvc6ATiiyeQEEL0QvIYSQ2EESArJyIXSxRqZuNFJX913zGhrrJpas3Y2WbN/8LcYxMadCpOi+nVUAU/4SQoi9WPvXkdwpZxW9HTt2lLw8ZoXGSoMGDSQrK0t27dolO3fuNPc6y5IlSyQ/P5+il6QcSRe9IDC7F1D4hiaY4O3braMMH+x8BmG6AOn7xx/rfcsfCZe+WvS+9tJT0q3rsWqbeINLrxwq87/+znHRa+2ERppxQAgh5GCQrRtJpi76pRC3Wrh2btdKre3op2rhq+dXWLR8tSxa6Xs/WwrCymC8F4jfPt06UPoSQohN6LJoKOFw1lnhx9dW0fvCCy9Q9MYBxt+///67dO3a1dzjPNdccw1FL0lJXCF6NRS+4QklePuc2KF84EHsJ9HSl6LXuyRC9OK2sg8/NGo4U/ISQkj0aLmrSzIEcmaPToKaunm+vieEbrL7oJhoF/IXNX+RGRxMAFP6EkKIPVj72u3bt/ctR6vtYFD0ehuKXpKquEr0aih8K0LB6x4SIX0per1LIkRvNFkGhBBCDMLJXYhd9KfcIHUjBfJ35lfoG66m9CWEEJvR82Cgv33SSSepdTAoer0NRS9JVVwpejWhhO8Z3Tp6qjMeC6E68BS87sEp6UvR612cFr1a8oJI6oYRQki6g7kgJvmWQLTcxdrr6Ixf9BuDSd9B/Xux30gIIVGArN4vvvhCrcPNhRFK9KL266hRo9Q2cQ//93//pxYNRS9JVVwtejXBhC+A9O3cpqWc4eukp4L0ReYu/tZg2RkUvO7GTulL0etdnBS9lLyEEBI5wQRvKsndUISSvhS+hBASHatX/y4LF36rsnkheoP1vUOJ3ldffVUtxF1gwrwHHnjAfETRS1IXT4heDSTo7AVLg06Y4VXpG07uojOu5G7blrz1zkPEK30per2LU6JX3z4G0NFEZgEhhJCDCSZ4Lx/QSy4/p7f5KH2A9J047UtfH9Nf+ovClxBCIkcnWmAMF2xejMpEb58+feTSSy9V+0jy+Pjjj9XnQdFL0gVPiV4rlUlftW7TUpV4wGQabpC/6HBv3LJDvXf1OETmbsfWLSh3U4RYpC9Fr3dxQvSic4lOJgh36xghhKQzwQTvyCvOTuns3Uih8CWEkNiwTswWLNkiEtE7bNgwtY8kj9mzZ8v48eMpeknaEFb0HjhwQKpUqWI+ci8Qp0tWrpFZ85ceJH2tQAA3aVBXzaTspACGvIXEzfetMUNyMKFrhXLXwKn25pZ2rKXvhg0bpLi4yNxrYJW+nbudpfZR9HoPu0WvVfKGyiRIR1L9XOEGGGPnYYztgYI3ckIJ3+GX9Y+5/8l27DyMsfMwxs7j5RijfAPKOASbCJmi1xvYJXp5rnAextgeQore3buLZO/evZKZmSG1atUy98YPjoljV61a1XfcmlKtWjXzmfgoKyuTXbt2y4+/rpfC3Xtl284iWbxyjeRvLQwrfzVa+OY19Hd0IYUBxDCAtNVs3LpDrfO3GMcOJ3IDgdjFMevUyJY2hzSWZo3qeirG+/fvlxo1cqV69ermM/FTWLhTHT87u7rvRzS6ycvC4dZ2HE76/vr7Ovnx51/lxuv/QtHrMbTove4vg2X4UKPTFyvWDIL69RtIp07HeO58zHOFkzHe54vxLsbYB2PsR8c4IyNDatdO7RjjIv/k6XPK75ICFLyREUz4Dh/cL+qEA92O8bnh87OLRJwratas6fueeOdc4VSMnTxXeCXGO3fulNJSxnjfvn2+WLAdg8AYl5TsKe+TB95dR9HrDewQvfpcYXffraioSPbscbod11DHtwM7zhXaz8HVGWvDre3Zs0clS1arliEtmjSQPNPHgbwGhpMD0V6cTscYBxW9sN3btxvBBujUZ2Zmmo/io7CwUP1Yg5ycbN+So7bjpaioWDUMEPgBoiGhESHrV8tfvd9JkCWBxqmzdYFulKkW43goLS1VDVlTv349cys+nIxxQUGh+gKCeGMcqrxDXpMWcsrJPc1HxAto0fuXKy+RkcOuj+uqoa4JhuyBrl27mXudO1dkZ2f7/i9vnSvq1atry5XZRJ2PGWPGGHgzxsYgHbghxoFZvOlagzdeIHwfeWlaebJCNNm9bMd+eK7wwxgbMMZ+UiXGoSZmo+j1BvGKXp4r/FQ8V1TznSv8AlaDi/CQt0tWrVOlVoET7g39FQjgTm1aSkffomWwtR/jxRgXFxf7lvAxroyQGb36TcNO16lT25aGDKwNw84gl5SUCDLIQKTiTQtgjb6SsKlC5m6B/LFpq6+B+BpMgzrl7xcZuY3NTF+grzYEa1yh0FeFqlat4otxHUdijKuQWVnJi3Ek4EoFxCm+hIgv2oVdJCLGdrZjCN/Hnpwg9evVlr59+kr3E48znyFeQIvea68eJH+/eYi5N3q05AUo14AfDt2Oa9euo9Z2wHOFH32uwDkC5wr3x7hUZTcBb8a4ti/GVc1n4iMRMbaz88YY+4m2HaPfNu6V6eVZvCjJdfmA3tLZvJhOYuORlz+oUGYM2b24+ywczrbjXb52XMpzhQdjbB2cei/G9maQM8YGXoxxsHMF7rSD6A2cmI2i1xvEK3r37z/ga8cFHj5X1PC14yy1HS/Wc0VhcYmsXLtJ+TPc/R5s/qxICHZ3vb5zHkRz9zzQ8w9oAVyjeobUq5ntyRjHej4OW6MXDQ5X9BAQO4FAxjHtuvVPgwxLfPnwnu0EP1A4NjpZdsMYGzgdY6T/2yVuNE7FmJOxeRc7avQGSl6dMeC1dsxzhR/G2A9jbMAY+4k0xpC7kLx6AMEsXnsJzO4d3L+n9OnWIWzigvPtuJqvHdszGNPwXOGHMTZgjP0wxn6Cxdg6d4buo1P0egM7SjdA9u7bV5b254pZ85eoPhnulreWNg0E8lbNi1W/tkqYbNJQJ0Ya/YpY5spCHwWlHTQbt+xQjxfhvWwpCCuE1V32bVpKp7atykWwHbj1fBxW9BJCEg9Fr3eJV/QuW/ajb1mmtoPN7EsIIekIBhS3Pf6a+Uhk7IhBzOJ1CGT3fjRvsdqOd6I2QghJNayl1TAxG0WvN7BrMrZ0BXIXZRiwDoaeHwH9BsjdWCSuXeDCNe5SgoTGvFrBBDDep872tVP6ugl7LxkQQgiJCXQateSF4KXkJYQQY3ChJS9KNUwacwMlr4NgQjtkSyPzRgn28VNiug2TEEJSET0RG0o5IEGDkFQF/a9xk2ZIvxsfVmur5IXYRX8BfbLZE0apbSzYn0zJC9BHxB1feD9jhw9S7xEJAqpvY7439G8w1wP6l1jw92FfKvV3KHoJISTJWG8Fw21g1tl8CSEkXdGDDADJiw57sgcQ6QAGSGd066BijUEPZS8hhBggk7d9+/Zqe/XqNbJnz161TUiqEIncdYvUjRQtf63SF/1KAMGrkwrQ38F2KvR5KHoJISSJICPAKnn15A6EEJLOBJO8JHFgQHSZmf1C2UsIIX5w1x2EL/rwa9asNvcS4m204A0md3XWrpfkbii09EW/0ip9dX8HcUgF4UvRSwghSQQz+AJ0GCl5CSHEnHiNkjfpqAHelQPUxCkY7Myev9R8hhBC0hdrVu/evcaM+4R4lWCCN1DupipW6YtsXy2yU0H4UvQSQkiS0BM6AJZrIIQQUZ1pXZMXnW1K3uSCQdCZ3TuqbdSzm+xbCCEk3UFWL/rubdq0M/cQ4i3CCd5UlrvhwN+fKsKXopcQQpKAVfIikxdlGwghJN0Z98p0tUYH+9ERlLxuANkuuLURQPYi45oQQtIdyN7s7OrmI0K8AQVv5VQmfL0ARW8Q8EFiQUdWF2fGoh9j0a8hhJBowSy91kxeSl5CCDHq8qKPBVAyAJ1r4g4ge/XnARnPPjAhhBDiHdC/unL0BAreKAgpfB9/zfX9oColJWUHzO20QDfsJavWSf7WHb6lUD0G8XxYefWNzm9eg9pq3amNMYtfR98a+/TzhFRG284nqfVrLz0l3boeq7aJN7j0yqEy/+vvZOj1V8nQ664y91YEgldPvqZv+yKEkHQHfTAMQAA61OhcE3excWuB/H3sZLUe3L+nDPIthBCSzmzalC9Dhlyrtl944QXJy8tT26+++qpa+vTpI8OGDVP7SPKYPXu2jB8/Xjp27CgPPPCAuVfkmmuukfz8fBk69CY57bTTzb2pB+RkoOCl3I2eR17+QD6at9h8JDJ8cD/p1LalK11fymb04ooFGrM27hg8IEUdj3VDt2bmhpO8sPd6CYU+Bo6JBbe2YdH/NxZso7aZ/n8JIemFVfIii5eSlxBCDPREX+hrUfK6E3w2Z1jq9bIvSwghhLgXeCdrFi8muNUZqiR60D8dO2JQuRdUbtGldzmlTEavkqwr1sjk6fMqDTQaeJMGdSWvfm01kzBo0rCuWuvHIJzYRTYDyDfXYOOWHWqNfYtWrpH8LQXlrwtFpzaHSJ8TO7j2SgBJPMzo9S7hMnqLinbLhx8as8hD8qIuLyGEEANcjAeoBYsyAcS9DL7jGWb1EkKID2b0eoN0zOiF5NWT2wIISkywSuzBmt0Lj/fQsEtc5fM8LXrReGcvWKoEbyi5i6sVWuh2btcqrLx1ikW+9wcJXJkApvQlgKLXu4QTvXrytdzcGnLWWf3MvYQQQnC3EzJEAWrFEXcz8f0vZeK0Oaqv+tJ9Q8y9hBCSflD0eoN0E73WfpW6U+rKAZS8DgDR+4qvP6TdHko59O1m3PmUbDxXukGXY9ClEPDYKnkhdpGOjoECFqRXIzME+5MheQG+VPj/8T7GDh+k3h8WXFWxvi+Ia+vfhi+oG9PACSHRoSUvYLkGQgipyCyzbAOyeYn7OcPXdwXqbjpf35UQQggh7gAeSUteXaqBktcZ4PIeDSjlAIfnBjwjeiF0IUB1fV0tQNF4IXO13MV2soRuNOA94gun33sw6YsvqJa+7EgT4k2skhflGlC2gRBCiAH6c/4+XSu1TiT79++Xffv2mY/iw85juRnVh/X1vwHurCOEEEJI8rF6I7glJBkSZ0GfCD5Pezw4PDfIXteLXqvg1QMBNNpyQeprvFZB6lUqk7740lL4EuItli37sUImLyUvIYRUJH9robll9IUSCaTs3XffLdOnTzf3xMfatWvluuuuk4KC1L8bq3Mb47PK32rMT0EIIST1we8ccSeBkhduiSQOeDzEXW27QPa6VvQGE7y4pQ8BRKNNBbkbikDpq7MmKHxJqnLgwAFZvGSZ+agiyJCaMfNT2bR5q7nHG0DwLltm/E2tWh2qFkIIIRVZsnKNWiejT/fzzz+rpVu3buae+GjRooXk5OTIRx99ZO6Jjd27d8vGjRvNR+GZNWuWjBgxQoqLi809iUFnX6M/qvvphBBCUpsHH3xQXnnlFfMRcQuQitoPwSNR8iYH7SkBZG8y+0euE72hBC/KMqDGbarK3VBA+iJrmcKXpDKbNm2Ru+59SMrK/Le8FhTulLHjJ0in4/vICy++KlWqmE94gKzMaqpkA0AWL+vyEkJIcBaboveM7omdvALZvBisnnLKKdKwYUO1D48HDhwoAwYMkL/85S++36ZNUlJSIldccYXap5cLLrhA7rvvPvn666/VxUhNtWrV1HMzZsxQsjZWMGnMZ599Zj4yWL58edBj9ujRQ8466yz58ccf1XtNFNbsa2tWNiGEkNSlbdu2Ur16dfMRcQPwQbomLySjFo0kOUD2amd52/gpSZO9rhG9lQnedIfCl6QyDRrUlz3Fe2RvyV71GOL35NMGqvWcT96Rt6b8Wxo1bKCeczv16taWRvVy1TYkL+ryEkIIcRdbt25V2bwQt1XMK4mXXXaZKr2ArFzMzt24cWO1H9x4440ybdo0effdd+Wxxx6TrKwsGTNmjLzzzjvqrhRN165dpbS0VIlXK5Cw2B8JnTp1kj/++MN8ZPzb//73v/LWW2+Zewzw/37wwQdKMD///POycOFC85nEoAcyLN9ACCHepLAwugt1rVq1kqZNm5qPSLKBN4MLAnruKpJ89ARt6vNJkuytUlJS5u+dWti7d69aMjIyJTc3x9wbP2VlZVJUVCxVq1aVGjVyZcmqdTJ5+pwKohKCl3I3PItWrJGJ076URcuNTBjQt1tHGdS/hzSoXaNCjPUAJl4woNi9u8i33q8GQRkZGeYz8YP3W1ZWqq4Q2nmVMFHt2M4YdzvlHLX9zPgx0q3rsWo71cHffell18uzTz0k9erWkYmT35R335spr016RrIyM81XuZ9LrxwqhzavLzVzs9R35IQTTjSfiY/SUkMQVKuWYev3Axlt+H5UqVLV935xXLvSpg9IcTGk/X7JyqquJEQktGjR3FwfotbB4LnCQJ+PkU2I98vzMX/zgBdjfOXo52TT9p0VbndLBN9//70StRMnTlSfr2bmzJny73//W4nVmjVrKsn617/+VS699FKVOWsFmbvPPPOMjBs3Ttq0aWPuFRk5cqR07NhRLr/8cnOPyP/+9z9p3769tGvXztwTmh07dshzzz0nt99+u7knND/99JPKPEZmcqIZfMczsnFrgdx0cV/p19u+/opXzxU8HxsxRhkR9CsYY7ZjTSq3402b8mXIkGvV9gsvvCB5eXlq+9VXX1VLnz59ZNiwYWqf20Ds/vGPf8j9998fcV/9q6++kg0bNqi7X7wE7pTBBVz8Nj/wwAPmXuMi7pYtW+Sqq66W00473dwbHDe2YyRJImESUhFlP4l7+GjeYnll2hzVTxrcv6cM8i2RYsf5OKjoxYG3b/dfna9du5ZtJ/vCwp3q5Ane+3KxvD5rgdoGFLzREyh88+rXkev+fIq0PcTIQsHgJScnW23HC37wiov3qO3MzEypVaum2o4XCKydO3eZj0Tq169nbsXPtm3bzS3n2nE8MS4qMm7DXL36d/Ujoyfu2r6jUDp07Cy9enRVj73Ol3MXSO+eoaUnzjnX/e02+cc9f5cmeY1l4uS3ZNiI0XL4YS1lxnuTpVEjb2Tz9j3jLPnpxyXmIxIrEL2Qvt26dVe3QWvxm87nikAqno8zfOfjWmo7XkpLy3wx3mk+ci7GeL9433bAGPtxKsZ4v3jfwN4Y75GBI59Q2+qOpQROxoZM2Lfffltlwlq/79GIXnTAr732Wundu7cq76CB+N2zZ4/ccccd6jHOXffee690795dZRBXBv7t2LFj5c477zT3GL+Tc+fOlV69epl7ks+IcZNV/3PI+SfLeafbc2ETJKYdZ6u2bAc8V/hhjP148XyMOAPGOPJ27GXRu3TpUvnXv/6l3ndurnE3YmWsXr1aPvzwQ9/fPMTc4w1CiV7codOsWTN14aRBgwaqlFPDho0PmkAb/Uz0NzXOteOavnYcWZITskRxRzygR3MnE9//UiZOm6O2X7pviHJ1kWA9H6OPirFptAQt3YCrVmjsGruuFAIcd/OOXfLPF6eVS16kmaODz8YZPbqkg64Fgi/8P/79rkz9dKGKc9Wq9n12uKqpsbNNWI9rbXd24GQ71kQTY4hdSN1ly35UNVw//HCGWjBpl5a8GlzV8yq3jvqn/PqbcfEBA+Hb7xzje7xaPbaCE9hlV93kG0iXSp26tX0DWWP//118njz9+Bhp1/YIGXD+FbJu/QbjCZdTp55R55HEx7p1a2X+/Pm+Dtljcskll8jf/z5C7U+nc0VlVDwf2xcL69/uZIztjIVTn51TMbb+7V6JccVY2HncKtKorj0yIVqQNQuRG89ngH+LW1itZRZA/fr1fQNC43bYlStXqoyh5s2by/r169U+TX5+vhK4wMje2C1vvvmmuvAbKBZ27dql5DMkMLD2GTAARTbQpEmT1DrRbC3wX4Czg8S049g/90B4rvDDGPtJTIztPK7/WIyxNcb2vmc3gLHZf/7zHyWiDzvsMN/4tMh8xrjbz/qbtn37diW+H330UfXv6tatWy7uCwoK5Omnn1Z3xsRTlz6ZaJmGv01PpK3H6FhjzI791u+Hk+04mvaGkgAADogezZ3gc9FlrmbPX6rWkWDHeTPkv8LVBFzBQic40lT+SPh1w1YZNu41Wfa7IW5w9QGiMpFZHKkIbnd81FK/9+1Pv5P/vPul7NhtDAjsIDu7urrah8FHzZo1zL3xk5FRTbUztDe7soQ1OF52tv3tGLfxIA5Yh7p1A1IXi5a6U6e+pX40Fi789iCxm5tbQ93SieX2fzwhDz3+kvmMN2natLGMe9y4woiT0/nn9pPffj+4jnRmZpY0bFhfprzxrjRsUM83QDUmksGVq0svPk8mv/y0XD7oAhn293uk2BzcupnMnHqSVedQueXWe+T339fYtvzyy2++NrNcVqz4JejzsS6//bbad9wVsnz5yqDPx7P8/PNKdexgzwVb5syZq5YpU97wdSbHygUXXKhiCun71ltvSq9ePWXjxj9S8lwRC06fjxELL8YYcbELa4xr1LAvxvjbnWzHTvTdnIyxHjxt3JLYOq9GOZz4Y4RjYIBoBb972Ic6wCi/0LlzZ/W6jRs3mq8wWLBggXoNwOtXrVql2tpvv/2mfgetIFvt/PPPL389JmvD3wAwwIY0RvYxyjgkivwtRs25Fk3svcjp9LkC32vnzhWRZcVFAv52J8/HTp4rvBZjL56PGWMnY1zDkRi7BdSWx2/Icccdpy4OWn+b8DuCC476IiTGrPh9wmvwm4PYQAZj3yeffKJ+wz///HP529/+lvA68Xbwyy+/qHhgLN6q1aHlmbwYw1vF76xZM2XJkkW+cckaX8zsHZNa2zH64ZGA5D5d9xUOiLgXPdkwJsyLtFYvxoz6XB/r+Tik6MXJEgfOyrIvq3Cy74+77XH/lQdm8dqLiulwX0wH9FLbS39ZZ3vxZ/zY4URkN2hnaG92/kgDHA91TexsxwA/aoiDVdxEmq2LHxL8iEDqYqKugQMvkLPO6ud7fLRaUoG/XP1/5pbBKSf3CHqlFz9mI4YNkcVLf5LWRxwmK1b+aj7j52/XXyl9Tu0lj4x71tzjfuy+0uvE+RgEa8d2Ee25wijXcIh069ZNSV7IXohfPAYQvsju3bRpo+fPFXbh5PkYsWCM/TH2/Re2ghg41Y69dq5o0jCy29jsBiI1UNDGArKdateubT7yg5hhoNylSxd1q+tRRx2l/k+dkQuQFYWBMsBg++OPP1YDb/yG4LUYcFtBvwG/pTgujvntt9+q/dj39ddfq38b+G+cBHXnQNNG9dXaLpw+VzghbvznCntPFk6ej508V3gtxl48HzPGTsbYKNngRIzdAITioYceKsuXL1eliX744YdysYs7RL777jvZtm2beox6vJChJ598snqNvggJ6YuLjzfccIMqgXTSSSfJQw89pMofQQR7CdwxgwlWu3Q5Xo3NMS7HdqD43bp1i6xatVLmzv3yoIzfeIilHU+ePk+t4Xx0xihxJ7Fm9aLPHc/5OORkbHajC0UDVaphOK88OAlq9z7y0rTyTvjwwf3UZG3EHnCyB4G1dYNhXCE0Mq0jEbltO5+k1q+99JRnJ2NDje/2nU+pMOB86T+PyZ8GnGk+8rN5y1Z58JGn5K7bb5ZjTzxT/dju33/waally+byw9ezzEfuBJOxzf/6Oxl6/VUy9LqrzL0kXlDCAQuA+EXWLyEkNcBs0ZiQF3cmJXK2aEyk9sYbbwjq8VqzZ6Op0YsBMLKYhg4dKqeeeqq5F+es8eq37K677jL3GKAmMI6r0RcFIZzRkcdjDJBRzxEdfAyaQ4GBIf4dBt7Wf/v444/LEUccYb7KOdTkInc8o7YfuvlS6dQm9CSahBCSqni5Ri+AsL366quV2NVCCb8vWtbq3yk8jlQ44S6EF198MehF0GQRqkbvNddco+6IGTr0ppCTsensXoz59XYgGO8j8zJUjV87QRKfrs2b6IlsSWzoWr3oK6HPlAgSInopeZMDOuF/HzuZstcG9Ekd63Bi146TfCqI3jfeel8mTnpTHn1otLlHpHmzJkFv2XrymRd98dwi991zq6xZu94XY6NWUiAoTH/E4a3MR+6Eotc5UKcXJRwARK/O9CWEeBvc7YXb2RLdP0QG05gxY1RtQQxKNZGKXtT4veWWW6RevXry4IMPqmwgDco1tGnTRg0grWBAjdtfdeYUbgvG4BnZvBhMozwDavuixi/eU2BNXyt4b8gORvaVzgaCXG7SpEmF9+IUSCgY4etjYmIRTDBCCCHpiNdFL8Dvma4rj98iCFrU38VvFX5bsLbejVIZEMKoS68lsRuIR/QGkmzxq/tNyBKdNOYGcy9xM7rPBKKZlC0eHP/2WSUvrjZQ8iYOfPlRs0Wnils/CxIanLCxRFtbV5dgwC0fyNx18kqem3nplTdk1N1j5NYRN0jbNofLnHlfyyEtmh0keTG4RSbv40/9R4b+7S9qX8tDmsuR7VoHXdwueYmzWDvJ48ePM7cIIV6nYxvjjpdFy9eUX5hOBBiEQrxigKdZsWKF73f/S7V/1qxZSsBqMEgcN26cPPzww0rkXnHFFerW1zvvvLOCWMW/RaZv27ZtzT1+cMHykEMOkZYtW6oFA0BIAWy3aNFC6tSpo55HDUTIW/26YAtkMGYKxzb+FjzGdiIkL1i03JhgNa+BezK2CCGERA8mWNO/LfgtgujVv1UYzzZu3Lj8+cAFv2O4gGn9bcO2mySv3Rh36x5aaakHOANd49fOUg+azu3cPTZGaatElpNyM5iPTDu5xSuMCeudxtGMXkhFyEWQ6FvyiJ/AzN5EXUXwCvpEjLXT2bqR4KWMXmQSTX5tqhQU7JSqvkHp9A9ny5KlP8sD94+Swf/3Z19M98jAi69R0veYTkfLa2/8T3DXz969pfL6G+9K4c5d8sRj90mf04y/2eswo9dZdAkH1PJF/V5CSGqAWxBxK2KibkFENu/KlStl6tSpcvTRR6v6uSiVgGxe1CLUDBw4UGXZYmIa66zkELKovduqVavyW1mR9YTZu3H767Rp01TtQrzOjjrA0TBgwICEyF6UbUC/cnD/njLItxBCSDqSChm98bB48WJVpuEf//iH+s1zK3Zm9FaGdgtOZfz2u/Fhtca8TG6e7+qtt96SJUuWyKhRoyrcOWU36HfhYnc04KI9+nGnn27PZx4Jj7z8gXw0b7G6wx532juNY6LXWjuE5RqSj1X2QvI+NOyStJS9ONkCJ2rr2oUXSzesXfeHjP7Ho2pCmLEP36MyeEOxfPkqufOehySvcSP51323S926qZMNRNHrLPPnz5dLLrlIbbN8AyGpg77jKFH9xffee08WLFigsm+RbYMyCxhkofRBrKCEAwYbOF7Tpk3VY2Tw4v9IJMgwRkkIJ1GC16zPy+QBQkg6k+6i1yskUvQGYqf4tTq2sSMGqUxRt/Ljjz+qO6GeeuopdTHcCdBvu/fee+WRRx6JuIY0wISD6J8dfvjhjiXvBQLJC9mbqDq9joheawNk7RD3YJW96ZKBoU+mWLshWzcSUqFGb7pC0ess69atlV69jPMWRS8hqQMmY8OkbAB9Rn17m9OghBAG4JhIDdm78bJ69WoZOXKkTJgwQYneVEVPKgLBy/q8hJB0hqLXGyRT9AYSj/i1erbZE0apdSLRE8BGAuo+P/nkk+oCtJM8//zzctlll0Ulk9FPwx1bH3zwgbz88ssVJuV1Cmud3hlP3arWTuJI8ZTZ85eqta4RS9wBPo8zuhuTsaGAd6rV68WJEgtr6xKSmqBkgwbSlxCSGiC7QWeFzpy3WK0TAergjh07Vvr372/uiQ/UzMXkbqkseZEsAMkL+nbroNaEEEIIiQzjruEYa/z+9JM0redcGYRwQEwvWrTIfFQ5KNcQTZZtrGC+BJTOihRc5MfrTzzxRHn88ccTInmTge2iF1cZIBEBpGKisjJIZKCOi65/N3n6PPV5eRWcAFGCQYtdnACxBJO6OGlC6uJkqsUupG4iSzIQQuJHZ/GuW7dOrQkhqYGWhpCIkImJAvVs7aodh1INTtahcwOPvDxNrSHmWZuXEEIIiY9oxO+2TetlwLHNZGBXf/JLIsB8A59++mlUohf9K2TZYk4fJ0Ft6J07d5qPKgcX+ZFlf8QRR6iM6USRZ/GiiXBwtoveca9MV2sIXjcXh05nLhvQS30+aGA6+9rtMFuXEEIISV0gDXVWr5aJxF3gtsNFy43ZoodfZk8WNCGEEEL8hBO/1bKMGvxFJYmb6HXHjh2q3MXy5cvVhLUo36DZu3dvucjFfsxVsGrVKvn999/VPquE/fnnn2X69OnK3VTGu+++q8orbN261dxzMLiDau3ateoiezCZjMzduXPnSklJSfljqxBGfV+Ul3j77bfNPYkjEXMb2Cp6IQ5RZw2MvHKAWhP3EVjCwY1ZvczWJYQQQtILLQ8hE1EHlrgHZFnr2nIotYGFEEIIIc5iFb+Hteso//7kV/nwh/Xms86CTF5MqAaZes4558imTZsqlElYv369WgAmN5sxY4aSrpDCAJ4G7qaoqEiJ2ffff19GjRqlJmjTAjYQCOONGzfKTz/9JEOHDg1ZlgGvmzp1qrqTKnDiW/wbTNL2n//8R7755hu1D5PGYzJezQ8//KDk72effeZ41jHIT+DdasBW0WutzevmGQCJUcJBl9VYvMLIzkgWzNYlhBBCCOQhJosFKOGADFLiDqwlG5jNSwghhCSXRJS5gjCFpJ0zZ46SuA0aNFC1ejWQrF988YXaRj1eZPy2adOmvIwVMnqxLzc3V8aMGSPPPvusPPbYY0qu/vWvf1VZtYHA/Rx22GGqfm7v3r1DlmUYPHiwKg+BYy9cuNDcawjg5557Tpo0aaL+L7xvCOuqVavKrFmzVBYywN8B0XvCCSeo5xNFIrJ5QZWSkjJ/7nUcICtUzwB4+YBeLNvgAR55+QP5aN5iNbB66OZLzb3OA6lrXNnZrb5gVpFrBVI32GyTqU7bziep9WsvPSXduh6rtok3uPTKoTL/6+9k6PVXydDrrjL3Eju55JKLZP78+TJs2C1qIYSkHuhP6ruNJo25ofzCNEkOyK7WE7Chv8hsXkIIMdi0KV+GDLlWbb/wwguSl5entl999VW19OnTR9UDJcll9uzZMn78eOnYsaMqQ6C55pprJD8/X4YOvUlOO+10c6+76Xfjw2qdjP4RhO+LL74oNWrUUGJ3+/btSsQ2b95cyVJk97Zo0UL27NkjNWvWVJIY2bYQvlbw/IYNG6R27doycOBA+fOf/2w+IyrR7/7771cT2+LYzz//fMj5D1577TWVaXz99der/wMyF/IYmcfIQobshW/C9xLvA+8P7xWCGFnDOC7+lieeeELtcxLdl4Lofem+IeZe57BN9E6ePleVAUBjQ6Mj7geZMvo2PDQ2J64uQOYClGEIJ3WBcVuCkQmezmUXKHq9C0Wv81D0EpL6QPLeNn6KWqNf+eiIQZS9ScIqeZFtzQnYCCHED0WvN0gl0asvho+84uzySfYTBbJlv/rqKyVgIXpr1aqlZCkcDyY5Qybub7/9pjJlNXgd/l0oWrZsKUceeaT5yKilu2DBApVNjM+rcePG5jMVgRB+66235O6771Z1gZE5jP8rIyND2rVrp8oxYJ8uywDxe+ihh6p9kNJNmzZV5RwgnU866SQliZ1E96f6dusowwf3M/c6h+1/Ted2rcwtb4Ji06HqhaQaKK+hB052lW+A2GVtXUIIIYTECi48PzTsErXGrYl/Hzs5Ibcokorgzi8teZHFS8lLCCGEJJdOZolUPTdWIoFI7dGjh5x55plyxhlnSPfu3eXYY49V26effrocfvjhao3Heunbt2/5NgQsSiVYn7dKXgBhjP8DxwkneR988EHp0qWLety6devy93TaaaeprN1WrVqpbf3/nHrqqUpE4+ILHkMid+vWTU455RTHJS/Q/am8+rXV2mls+4uQzQsS9cad4s0335RnnnmmvHZHtODfJbLGR7xoMb9k1Tq1jgZIXSysrUsIIYQQO4HkRS1Yyt7koMt7gUSX+CKEEEJIcDq2bqHW+I1ORL8IZRDsWlA7d+zYsRX2wRmFe4zlySefVFm+P/74o5oc7rbbblOC+LjjjjvotdEuVmflFNbPqWObxMxlZkvpBmt93rEjBnl6IrZPP/1UFYmeMGGCqgsSLQ8//LC6BQCFqr2ATiGPpBMPqYsvAtasrescLN3gXVi6wXlYuoGQ9AIZK+Nema76miAZtyqmGyPGTZZFy407vRJ1iyEhhHgRlm7wBqlUusFa3srpPhESGP/0pz+Zj5wBtXULCvwiFDVzUVIhUaD0BJI9ka3sFImuzwtsF72zJ4xSa6+CRoWZ+S644AJzT3Tcfvvt6oSB2Qa9AK4EIWsjsNFB5gLW1k08FL3ehaLXeSh6CUk/rIMagEl/z/ANbFi3114wd8MjL00rzzxhTV5CCAkPRa83SCXRC8ZNmiGz5i+Rzu1aytjhg8y9zlBYWGhupS6YFM5J+gwx2lwi+1UhSzegaHFRUbGUlJSae0KTvzV1PnxcQUAKd6wgexWzD3qFJg3rqjXEbiS1dXNyclW28pFH2ltbF3WR0d6shbvtwN+O7a27jILiKBC+Z09sJT5IamN3+Zaysn2ea8c4Jo4drvh+LOzfbxyPMXYuxvp8jJjYCWPshzH2E0mM9cVo3H0EkBXxyMt+IUniB9kmmKBXxxR3eVU2GGE79sNzhQFj7Icx9sMYk1TAqXYM/xFtO+5zYge1xt03TveFIEFTfXES9K800UjeeM/HIUXvrl3GDHS7du2qVL7lb92h1qmSWQGxWVpqCG7EQM/UFwoEf/Xq1Wob5QqQAeslBhzbTC7p0bLS2rr9+w+QE0/sLh07HiMtWx5qW0kGxFe3t507d5l77cHfjnfbKpF37y7yffH2+E7KRepLaBfbt2+Ta68YqJayssovshB3YneHE+dhL7VjvFccE8fG/2EXf/yxQX0vjj76aPn1119VFoVdeC/Gex2JMTqv/vOm3edjxhgwxn6ijTHkI7IhIH4xuBl8xzMJq1GXqiB2KNXgnySkjoqzluqhYDv249S5An97ImJsp7RgjP0wxgaMMUkFnGzH8B/RtmP8RuP3GuDCN3En6GPp/hX6r5Fix/k4pOi1ZkvZfVXPTcyda0wiZwUz/enJ2JDm/95776ltDZ6zZv1u3bpVRo8ereROy5YtPZXentegjtTMyVDbkLqQt5C6wbJ1re3Azjbh1HGBU+3YieNCsH/66Sdy+KEt1JKRkWk+Q7xGOrdjYD2WHceF0H3yySfkb3+7Th0vKytL1q9fJ3fffbdMmfKaLcLXuVh47bj+Y1ljYgeMsUHFGNt3XODtGPu3w4FsCD1JG0D5KQxyUHaARAeyTCDLdT1eDEKsmdPhqNiOI/vsIsV6PDu/I4n4TkfajiPB+rfzfOzFGFvfc/rG2Hpc78TYmVgQ7+JsO47tO42+EMBvuJ48lbiLmebngj5rNNm8drS3kKIXk2llZGRITk62Wocjr4Fx+7/XMio2btwobdu2NR/5QfkGfaWmR48e8vXXX5cHGGUZrrrqKhkyZIjs3LlT7UMWb5cuXdS/ady4se1XeZwk3/eZffDdH/LvT35VUheCF1I3WLYuClVDsGRmZqp2YRc4Ho6Ndpabm2vutYdo2nE05ObmqPeNeNgRC10yA2zfUSjPvzxVbRNvkpmZZW7Zg1fascauc4UWvKh99sknH6t9qH2GemdY4/nXX59ii/B1KsY5Oe6OcSCZmRnl52PExE4SEePs7Orm3vhJTIxzzL32oGOsj28XiYlx5LGAiISQxERhOrsXZQfUJGIUvpUCwYt6cYFZvNEMQhJxrsDx8f/YhXPtuHpM7bgyKsa4hrnXHhhjA2fbcQ5j7EPHwFsxxvF0jO37/SfeBe1M91/tb8c1YmrH6AuhHwRe8f2e8+4md4H+qO5n9e1mlNqIFLQ1fT7GeD0WQore6tWrS+3atWw90bsJWPL3339fzfIXCMStlrW6ZgfS9ZE+fd9998mIESPkwgsvlAULFqjnQN++fQU1NGrVqlWeDewVdu4pK8+MCQdmIqxZs4bvb6ypTkZ2ggaM9la9ur2CzKl2jL8fcUA84gWCFyUzAAT7Q4+/JL/+vk49Jt4kI6OauWUPXmjHVuI9V4QSvJjMAhNdYD1mzBj5v//7P9uEb7rFOBz+87F9A0iQiBjbOWOul2Mca6cwFG6N8fDB/VRGi85ApfANT6DgBdFk8QbCdmyQmHOFM/1jxpjtWMMY+3EqxsTboP/qTDvOirkdD+rfQ3kcSN6/W+rsk+SCzwH9UYD+VTQX0jXxno9Dit5oyGvgL2DslcaFurC4VT5Y4CBs33zzTXn22WdlwoQJKvP3ueeeU4J35cqVSjSsW7dOlXTAa7BAGkMeV61aVVq0aGEeyf0sWm7UFiaJB+0PE97pmsi6ZAYh6UplgheZvBrsh+i1W/gSQrwFOtDIRrXWlaXwrUgowTvjqVtjGnwQQgghJPkYJQH8sleXCiDJRddN1ndMJYMqJSVlthS0uXL0BMnfViAjrzhbzuzRydzrXpB1e9NNN8m4ceNUurwGJRruueceQWauvlqDK3mQuA0aNFCi4fvvv1fC11o7A4J38ODB6rVYgmUKuxF0/tHxR9o/MmNIYoDc1aUaAASvLpfRtvNJav3aS09Jt67Hqm3iDS69cqjM//o7GXr9VTL0uqvMvaQyDEH7erncBRC3l156aQW5G478/Hz5+OOP1YJt0Lhxnpx66qly2mmnqW1CSOqzeOVamTx9jlprOrdrKZcP6K3mJUiViYMjQffxrEDwUu4SQog9oA+LBAWApAT0X8Grr76qlo4dO8rpp5+u9pHksXTpUjX3Ej6PBx54wNwrcs0116hxw9ChN/nGC979nCZPnyuTfAu4fEAvufyc3mqbJB6VZGDOfRDJ5LZOYZvoHTdphsyav0RJXshetwOh+9BDD6mJ1K688kpBbdg1a9bIv//9b5VZeccddyh5u2PHDqlZM3zKdGlpqarXW79+fXOPd0CGB2DHP3FA8OosXkyA16XL8RVqIlP0eheK3uiwQ/AGQuFLCAHBhC9AP/WM7h1TVvpiQpaZvv64HmRo2M8jhBD7qUz0EneRqqIXaB8HKHuTg1XyIolS11BOBraJXjQqNC5kTYwdPsjc626QkYsSDVhQrgGyDdK3d+/esmTJElmxYoUqydC5c2cZPnx40Bo9L730kqCO75QpU+S///1vhexgt4P0fsy2DJJ5tSFdKCraLQsXflsuedHegpVqoOj1LhS9keGE4A2EwpcQArTwzd9aqO48s5Iqmb6Qu6EmYqHgJYQQ5wgletH3HD9+vNom7gHl3iB7NakkegFlb/Jwk+QFtoledKRve/w1tT1pzA2ez5LA5FgfffSR+vIjmzfY5DHI5EXtXkzEhlIPzZo181TBdn1LH2qHYCIO4hyBpRqQxduq1aHmo4pQ9HoXit7wJELwBkLhSwjRYPAze8FSz0tfiN181OL7aklQuYvBRZ8TO/ACPiGEOEwo0Uu8QaqJXmAt44C+zcgrBqRV2apEg34YavK6SfIC20Qv0HV6vVK+Id1h2YbEsGzZj+rCAQhWqiEQil7vQtEbnGQI3kAofAkhVsJJX4DBUec2Lc3tVkkRwBg8YNJcSN38bYVqO5jYBZS7hBCSeCh6vU0qil5glb3ouzw6YhBlrwNgwl9M/qtx013ytopeXb4BpEJWbypjnaADsy4TZ7DW4w1VqiEQil7vQtFbETcI3kAofAkhgYQr72AF/dq8hnXKBbCSvw3rqm2Ax5pwfWDIWshbtb1lh1qDSISuBndjdWrbUvRs24QQQhIPRa+3SVXRC+DmJk+fV96vQSImEjKJPTzy8gfqDiuAftjwy/q76mK7raIX6Kxe1gRxN8zmdRbIXdTjRV1egAn+2rc/Wm1Xhha9LZo3VetUomj3Dtm0doVkVs+V5od1MPemDuvWb1DrdBe9bhS8gVD4EkKCgT4shO+SlWtksW+pTP5Whha+lYnbcOhbADu2bqHkLsUuIYS4A6voTUXJiz7yzz//LE2aNJF27dqpfT/88IPs3btXunbt6qmylcHQY4BUFL0AF7LHvTK9vB/DUg7xgyzeR16aVt6vg9xFJq/bsF30WtPEmdXrTpjN6yyrV/+uJK8GWbzhSjUEcmq/i2X9H4YwTDVKd66XA/tL1XZGjSZSNSNbbaca6Sp6vSB4A6HwJYREAgZL+Vt3yKZthUoAA0hgTTwyWIvbvAa1fUtdJXQBpS4hhLgfiF70gVORjRs3yoYNG6RmzZrSpk0b2b9/vyxatEg9B/Gbm5urtr3O/ff/Szp0SL0kJI11kjaA7F6UpaKriw5rFi9wSz3eYNgueoHO6kXDYT0Qd4ErD4PveEZtM5vXfgJLNRx55FFRSV6w4JsfUlL0fr1gnkx59WXzkUj9Bg3krtFjzEepQ/NmTeXEE44xH6UHXhS8gVD4EkLsQGcEayCHAQQuRK6GApcQQlKDpUuXpqzonTZtmkyd+rZvTNtebr31VjUZvc5gvvfef0jLlkYpIy+DPn4qS15NYHYvHN1lA3pR+EZAoOBFFi9KNbi5L+eI6EXjuW38FLVmCQf3YJW8aJQv3TdEbZP4QYkGZPFGW483XVi3bq306nXwRYULLrhQHn10rPmIeI1UELyBUPgSQgghhBAi8uSTT8jYsY9K9+7d5bXXXlclG9q1a6OemzZteloI0lQD2b2LV6yh8I2AQMEL3JzFa8UR0QusJRwoe93BiHGTZdFy43ZDSF5mk9gD5C4yeTXRlmpIBy655CKZP3+++agiU6a8Id26dTMfES+QioI3EApfQgghhBCSzlD0piaQvJiojcI3OF4WvBrHRC+wyl7O8pdcrJIXxaLdNCOgl1m27Effskxt5+bWkC5djqfkDeCtt96Uv/99hPnoYFq0OETmzDHOE8TdpIPgDYTClxBCCCGEpCMUvakNhW9FUkHwahwVvUDX6wXM7E0OVsnLurz2wFINkRGqZEMgLOHgbtJR8AZC4UsIIYQQQtIJit70IJjwBZ3btZTLB/SWvAZ1Ulb6QuzOnL+k3JdpvCp4NY6LXkDZmzwoee0nsFRD+/btfcvR5iNiJVzJBivI6oXoZQkHd0HBezAUvoQQQgghJB2g6E0vQglfAOl7RreOKZHpC7n7yrQ5ag6rQLwueDUJEb0gUPae0aNT2tf+cBI02kdenlYueVOlwSYba6kGwHq8oamsZEMgLOHgHih4K4fClxBCCCGEpDIUvenL4pVrZfL0OZK/tdDz0nfRijWyccuOkHIXnqzPiR1SqrxpwkQvwAx/s+YvUdtoHCOvGEDZ6wBoyCPGTjYfUfLaBbJ4raUaUI8XdXnJwURasiEQlnBILhS80UPhSwghhBBCUhGKXgIgfWcvWBo00xfA7XVu09LcbpXUUg+6xi7e86Llq4OKXZCKctdKWNFbWloq1apVk6pVq5p74gcTtEH25m8rVB/+yCsHSOe2RqMg8TPx/S9l4rQ55iP7J14rK9snBw4ckMzMDHOPPezfv1/27dvnO26mucc+4m3Hoerx4rhVqlSVjIxqar9dpEKMkcmLjN5oCSzhwBj7ceJ8DHDczZu3yNtvv0nBGwfhhG/v3if54tmE7diHc+24zHeuqMIY+3DyXMHzsQHbsQFj7Icx9sMY+2GMDRhjP0aM99seC6dirEVvt27dZcoUe0UvY+zHS+0YAhU+b8lKSN9Cc+/BwPXlNayjBLASvw3rqv3Y1kQrgyFt801xiwxdgPcDwkldDcTu4LN7Sl59+yS0W9txSNFbWLjTd3DjTdepU8fX6KqYz8RHUVGRfP/z7zJh6ueyecdOte/MHp3UzH7M7o2dwFIN7Q9tKkMGniKHtWgiWVn2nIxKSkpk167dajs7O1tyc3PUdrzgpFlQUGh2LDKlVq2a5jPxU7Ed14765BlYj1eXaigqKpY9e/aofTVr1vRYjDN8Ma5lPhM/wWI8fvxjaokWa/kGxthPvO04FKtXr5Y333xT5s790txDwRsvwYRvw4aNpGfPnr6YnuFr483VvnhhO/bDc4WfnTt3lnc4GWMvt+Mavhhnqe14YTv2wxj78V47LvXFeJfadirGGRkZUrt2OrdjxljDGPuB5IXsPf74E+SNN970xbvUFtHLGPvxcjv+5Y+tUr16dSV9F0P8BinzEAnaA0IMg/wt/mNUJm+DgUTHvAZ1pWPrFurx4c0aSL2aOWl1rggqetGAt283DDmAeLPrykVhYaGvY7FPNu/YJf959wtZ+st6tZ/ZvbETmMV74enHy3knH6u2c3KyfYs9JzhrQ7bzBIcfjJ07jYYM6tevZ27FR7zt2FqPFyUaUKpB1+PV7RgwxpHHWNftPeyww+XTTz8z9wbH6zGuV6+u+jGJFyfOxyzR4DzBhG+jRo1VOQc7SjqwHfvRwgLY2alnjP0wxgaMsR/G2A9j7IcxNmCM/TDGfrwY40ceeUSeeeYpJXpfe22KEp52iN7ExLiaL8a11Xa8sB37iSTGyLLN37pDNm0rLBfAIBYJHA5k5nZq29K3ri2NfYuxXTF51IsxLi4u9i3xteOQGb27dxep1HwEAcGwCxwTx4ZFx3E/+eYnNbOf/tBR3+PyAb0pfCMgcLZANOrhl/WXdi0bV4gxbgOwA0g3XFnACb5GjRpSvbo9VyyAvpKVnV3d9wXJNffGDzLI9+yJrh2HKtVgJbAdM8aRxTga0csY+4mlHQeDgjfxBBO+dtTwxa1j6HDilh5ciEqndhyIU+cKHWPjXJGrMhbsAsfFoIExZow13oyx0+cKe7NYjRgX+2JcxaEYH/DFOIcx5rlCwXOFH8bYwIsxHjdurDzxxOPStWtXeeONt1Rs7BC9e/eW+D6/3YKSUGzHTp2P/THG3Vh2lRawI8ba/WkBDCCG127Y4jvuPmnaqF55diwyc/Ma+EVnLGUXnIzx7t271bnCbTEOW6MX9tuOKxWVgQ963CvTy+trAArf0AQKXjC4f08Z5Fu8jFPtLZrjBpZqaN++vW852nzkfZId42hEr1dxQzsOhII3+TglfJ3Cje041WCMnYcxdh7G2HkYY+dhjJ2HMXYeJ2LBydgqwnbsPIyxPYQVvYkGonfy9DkUviEIJngxW+Cg/j1iurJBKhKuVAOxh3QQvW6Cgtd9eE34EkIIIYSQ9ISilxBv4irRq6HwrQgFr/Mgi9daqgGSF7KX2AtFb2Kg4HU/FL6EEEIIIcTNUPQS4k1cKXo1oYRv5za+pV2rlJa+kLv4u7G2QsFrL5C7P//8U7nkTbVSDW6DotdZKHi9B4UvIYQQQghxIxS9hHgTV4teTTDhC6zSN69BHWniW7xMKLkLKHjtJ7AeLyZcY6kGZ6HodQYKXu9D4UsIIYQQQtwERS8h3sQTolcDCbpk5RrfGktF6QvO7NFJzuje0VPStzK527F1C7Um9mIt1cB6vImDotdeKHhFtm3bJoWFhXLooYeae7wNhS8hhBBCCHEDFL2EeBNPiV4rVumbv7VQ8rf569cCZPs2aVBX8urXdkXGL+rrLlq+2vdeC3zvtVBtW2vuaih3naWoaLcsXPhthXq8yOQliYGi1x4oeP18+OGHUq1aNenbt6+5JzWg8CWEEEIIIcmEopcQb+JZ0RvIrPlLZPaCpUGlrwaiN69hnfJyDwACWBOvCNbiFhIXQEaHErpWKHcTQ2CpBtbjTTwUvfFBwXswy5Ytk9mzZ8vQoUPNPakFhS8hhBBCCEkGFL2EeJOUEb1WrNm+IJz8DYYWvpDCAJnBmo1bd6h1/hbjeJVJ3EC0zIXY7dS2JWvuJohly35UQgiwVEPyoOiNjXQTvKWlpfLRRx/J2WefLVWqVDH3Bmf9+vXyzDPPyP333y9Vq1ZV++bNmyfHH3+8ZGVlqcepQDjhe8kll6rHhBBCCCGE2AVFLyHeJCVFbzB0Td9w5R7sBAIXIhdCF1DqJg9rPV6WakguFL2xAcGLjpamY8eO8sADD5iPUo+SkhJ54oknlMwePHhwUNm7Zs0aadmyparPe+utt/ri86RkZmaq5yCJZ8yYoWKUk5Oj9qUKkLx33HFHuewFEyY8z8xeQgghhBBiK0899aQ8+ugjFL2EeIy0Eb3hgPCF+NXkm1m7m7ZZ9vm2Ue8XNDbXIM/M9s1rYOyjzHUPkLuox4u6vIClGpIPRW9sIKP3k08+kddfn2LuSe2MXrBv3z4ZPXq0jBgxQurXr2/uNdi/f7/af+2110qrVq1kyJAhMmHCBMnNzTVfITJr1ixp2LChHHvsseYe7/Pqq6+qxcrFF1/CjF5CCCGEEGI7zOglxJtQ9JKUJLAeL7J4Waoh+VD0xke6lXD4+eefVTZvu3btzD1+Pv/8c/nxxx/lmmuuUcL3qaeeklq1apnPGqIYE7Wh/IPXoeAlhBBCCCGJhqKXEG9iFDQkJIWA4NWSF/V4KXlJqoDb84cOvUndqn/aaaerfbiFf/z48Up4YlIyL4OSDRC4msaNG0txcbH5qCKowVu9enVVl7dGjRpSrVo1mTlzphw4YFy7xONdu3apba8CuTtgwIAKkheC95133qXkJYQQQgghhBByEBS9JGVAiYbAerxnndWPkpekHKkqfCFnp02bpuQmlssvv1zJ32Bs27atXAKfc845qhbvxo0b5U9/+lP5v8dEbV6EgpcQQgghhBBCSCywdANJCQJLNXTpcry0anWo+Yi4BZZucIZ0K+kAwYuJ1jAp3YUXXmju9T4Qu1a5C1iigRBCCCGEJAOWbiDEmzCjl3ieZct+PKhUAyUvSSdSuaRDWVmZrF69Wq2xLF++XG6//XbZuXNnStTfBczgJYQQQgghhBBiBxS9xNNA8C5btkxts1QDSXdSUfhmZGRIQUGBXH311TJw4EAZOXKk5ObmypgxY9Tay1DwEkIIIYQQQgixE5ZuIJ4EpRoWLvxW1eUF7du39y1Hq23iXli6IbGkUkkHZPMiixfUqVNHTcLmVSB2rXIXsEQDIYQQQghxEyzdQIg3CTtS1rOXE+diwRj7iTQWq1f/rjJ5teRFqYZwkpcx9sN27DxuinEqZfgis7devXpq8ark9VIGL88VzsMYOw9j7DyMsfMwxs7DGDsPY+w8jIXzsB07D2NsDyEzenfvLlJXbDIzM6RWrVrm3vjBMXFsDNRr1aqpZlm3A2R77dq1W/bv3y81atSQ6tWzzGfip7Bwpzp+dnZ1W28V9sc4U8XCLhIT41xfjKubz8RPpDGG4EU2L0CJhiOPPCpsqQbvteN9vhjvSmqMoyWaGEeT0csY+7GrHafbpG1uwYkM3nRux4F48VyB7PTS0jJ1TBzbLhhjPzrGXmzHNWvWlIwM7/zm2d2Oi4qKZM8exhg41Y51jHERtXZtxtiJ87HXYrxv3z5fLBhjwBj7GTdurDzxxONywgld5c0331KxsSOjlzH2w3bshzE2sCPGQdOiYLvxpgECXVpaqrbtAAEGeNMlJSVq2w5KSkrVMYF+73aAvx2dWKDfux1UjHGpB2Ns33EjiTGydwMlLzJ5w0leJ9uxPq79MS5JWoxjgTH2Exhju64a2hnjVJ60zY04mcGbzu04EP33Ix52xsLJGCMGADFhjJ2NsRfbsdd+8+xux7qfwhg71451jPEZMsbOtmOvxBjHZYwNGGMDHAcXWfS2F2Jc8VxhtA87YDv2wxj7cXOMg4reKlWqKNsNqlb1b9sBslc1dh7Xas+RAWAXyFpBPID1vccLY+ynYowPPi7k7ocfziiXvBC8WCoDx9THw3a1anbGwh9je4/rvXas3yfaMWPsj7HejhdrjLFtRyy08B0//gnp2bO32kfhax/BBO+5554nr7/+lm0lGrzfjv3vP16sv3P2/uY5c1zG2I/1WGzHzsfYzuMyxn4SE+MMm2Ns9LEYYydjbLxPu2OsjwsYY2di7FQsvBjjatX8usi5dmzfca3jJOtYMl5wXKdi7NT5mDE2SNcYh52MDbYb/wkEjp3A1BtSyL5gAKQ4w9jbeeIEsOk4tm4gdsIYG4SK8bJlP/qWZWo7N7eGdOlyfNgs3mAwxgZuaMfRTsbGGPtxsh1v2bJZfTYs6RAfELtWuQuQwXvBBRfa3rEA3m3H1Xzt2N46y7hCzxgbMMYGjLEfxtgPY+yHMTZgjP0wxn4YYwM9GVu3bt1lyhR7J2NjjP2wHRvs33/Ad+wyxthHvDEOK3oJSRYo1bBw4bcHlWog3iZa0UsSC2v4xkYoweu2CdYIIYQQQgiJFC16u3fvLq+9Zq/oJYQ4h706mxAbCCzV0L59e0peQhIAa/hGB+SuUzV4CSGEEEIIIYSQaKHoJa4CpRow6ZoGgrd9+6PNR4SQREDhGx4KXkIIIYQQQgghboSil7gGCF5djxelGs46q1/U9XgJIfZB4VsRCl5CCCGEEEIIIW6GopckHdTjheQNrMeLydcIIckn3YUvBS8hhBBCCCGEEC9A0UuSSmA9Xghe1uMlxJ2km/Cl4CWEEEIIIYQQ4iUoeknSsNbjRfYuBC9LNRDiflJd+FLwEkIIIYQQQgjxIhS9CSR/W4FaFq9cq5ZZ85eoRT/Gol+DJVXRpRpYjzd9KSsrM7eIl0k14UvBSwghhBBCCCHEy1QpKSk7YG6TOICwBUtWrZP8rTt8S6F6DOKVtnn160heg9rmI5FObVpKR9+CfXjOS6BEg87iBe3bt/ctR5uPSCrz5HP/lYkTX5HNf6ySzKwc+fMlV8rQ666U5s2amq8gXmfTpnx5/fXX5ZNPPjb3+M5feXly6aWXSp8+fcw97gNi1yp3AQQv5S4hhBBCCElXnnzyCRk79lHp3r27vPba67J3715p166Nem7atOnSoUMHtU0IcRcUvVGiMnJXrJFN2wp924VqOx6R26SBX9Ru3Br9cbQE1vJX7XOpAEapBp3Fi1INXboczyzeNACCd+q7H8r6PzbIgf2lUla0Wapm5Ei17HpK8p54wjEUvimGV4QvBS8hhBBCCCHBoeglxJtQ9EYAsnVnL1iqSiuEA9K2c7tWkle/tuRZBG6ThnUrPrZsB6Jlb75F+m7cskOtsW/RyjWSv8V4LpwY7tTmECV/+3Tr4ArpiyxePeEa5C4kL2QvSV2sgldz0/VXywnHHyPr12/wPf9S+XMUvqmJW4UvBS8hhBBCCCHhoeglxJtQ9IagMrl7Zo9Oag2hCrkbTt46xaIVa4z18tXlAjiY/E2m9IXc/fnnn8olL0s1pD6hBO/5fzqzgsTF8wu++YHCNw1wi/Cl4CWEEEIIISQyKHoJ8SYUvRbCyV2I3WRK3WiAAIb8nfnVkoPEr5a+KPOAbScJrMfbu/fJLNWQwkQqeAOh8E0fkiV8KXgJIYQQQgiJDopeQrxJ2oveyuTuGd07Sue2Ru1bL1KZ9O1zYgfp5Pv77M70tZZqYD3e1CYawbvg2x/kqWdflBNPOI4ZvmlMooQvBS8hhBBCCCGxQdFLiDdJW9EbSvCmgtwNRSjpC8k7qH8PW4RvUdFuWbjw2wr1eJHJS1KPaAXv7Xc/UOG1eM2fz+1H4ZvGOCV8KXgJIYQQQgiJD4peQrxJ2oneYIIXcveyAb1cX5LBTiB9IXyx1pO9xSt8A0s1sB5vamKH4AVWiUvhm97YJXwpeAkhhBBCCLEHil5CvEnaiF4K3uAgs/eVaXNUpq/O8o1F+C5b9qNvWaa2WaohNYlX8J54/DHy4P2j1Gux/533PpK3351RQeJS+KY3sQpfCl5CCCGEEELshaKXEG+S8qIXYnfy9DkUvJUQj/C11uNlqYbUw07BGwheR+FLAolU+FLwEkIIIYQQ4gwUvYR4k5CiF19iLBkZmZKbm2PujZ+ysjIpKiqWqlWrSo0auVKlShXzmfg4cOCA7N5d5Fvvl5ycHN/7zpDbHn+NgjdKgglfTNo2/LL+0rhe7Qox3r59u6rHi7q8IJ5SDWgTaBvVq2f5lurm3vhJhXZsF0aMS1V8I4lxpIIX8Z234Fv5x5jH5Y8NG8294QVvIMGFbxMZcNbpck7/vtKm9WHlMY5X+DofY7Zju2IcSviefvrptgteniv8RHuuwPcxEkpLS3xLqVSrlmHr92Pfvn3qs6tSpaovFjiuPTH2RVmKi/f61vslK6u6731XM3bbAN4v3ndmZoZvyTL3xk8sMW7RPK/S86Z32zHPxzrG+/fvV+83meeKSPFqjN1wPo4UtmM/eL8bNvwhLVq0cCDGJeq92h3j4uJi9ZvHcwVjrHEqxuPHP6aWrl1PlDfeeFPF3A7Ryxj7cfJ8zBgbpOO5IqjoxYG3bzfqtoLatWvZ9gEWFu5UAQHoDOXkZKvteEGAi4v3qO2V6zbLvc//T22Dzu1aysgrBlDwRkEw4XvjRX2kdYtG0qhuTdm1a6d8++3Xaj9AFm+spRowKN25c5f5SKR+/XrmVvxs27bd3PJeO87MzJRatWqq7Xixxhjnn3r1Qsc42gzeW+/8l2zYmG/uiU7wBhJM+DZtkifnDThTLvrz2RWOGavwTUSMAduxfTEOJnw1dmXwejvGGb4Y11Lb8VJaWuZrxzvNR5W3Y5wvnnz2v+Yj4kUGnttPHrxvlPkoOGgTaBsgFdtxNFjPFXi/eN92UDHG2SrOdsAY+2GM/TDGBrho/Oabr6vthg0bqTuHTjvtdPU4XrwX4z0qzoDt2PkYo5+J/qYdOBnjhx9+WJ555ik5/vgTVEbv/v37bBG9Xosx+vLo02u80Y53+WJcqrYZY2uMa/pinGk+ig83x7iqua4ATDSuxGrsMtPAetyqVe07Liw6+OeL0ypI3rEjBsnY4YMoeaME8Rp5xdky8kq/IH/qjdkyYepn8s2335RLXtTjjUfyAv3ZAWv7sAOvtmNg5/uteNzgMYawObXfxUraaHEKwfvpjNflxgBxCsGL1152zU3lkve4zh1k9rTX5JUXnohJ8gL8O/xfk14YL9ddM1hJXhz/2f9MlMHXDJOnnqsodSEo8FpICjzGc1PfnaFee/voiiUkNImIMduxve+3ceM8GTr0Jnn66efU8UpKSqR58xbyzjvv2lamwdsx9m/Hi/Vvj6Qdr//Dn8VPvEkkGdmJOG/a2Y6t37VI2nE0eO877cxxGWM/jLEfr8R4ypTX5Pzzzy2XvGDLls3qNvUhQ64NemE5WrwXY/97tPO4bMd+ou1jRYqTMa7YLtI3xk4dF1iPZ2+MrZ+dfe/ZqfaWuBg7857dFuOQpRvKyvapwTQMclaWPcYbIFt4z5696s3bmY6dv61AHn35A1n6yzr1GFm8ELzEHh7xxRbZvce3rCFN6xmZPHbW4y0pKZV9+8p8bS3L1ttjjVt6vdOOAY6L4+OqkJ0gxrhShttYrTGOtwZv1y7HyD/uGi6HtGhue4x//W2NvD99lrz7wazy/xPvKd4avk7GmO3YwKkYX3TRhfL11wvkpptuluHDR5h748fLMc7OzvZ1LsydNhDqXBEMXFDBxZULzu8vj/zrTnMv8QJvvTNdRt75L3VuxAW9cOh2jA5tdrZT7bh6hQ5zvETTjqPB6XOF12Lsxd88tmMjxhjnocxLOsUYgvf116eYjwz+7//+T5WEeu2112T27NnmXuMi88UXXxxzhi/bsR+eK/w4GWMnzhVPPPG4jBs3Vk48sZvvu/OGL972lG7whcAXiz2OxBjvcf9+no8BMkMZY+fOFcCtMU6JydhQhxf1eDUjrzhb1eMl9rJoxRr5bsFcyc2qKp8v2ywDTu8lfbt1NJ8lXiNewRtPiYZowf/LSdsIuOSSi2T+/PkybNgtaiHJhaLXu0QjegkhxMuEErxYrOTn59sufAnxMpyMjRBvYm9OdBKwSl6UGECpBkpeZ+jctqX0699fPl62XVZs2CnjJs2QydPnms8SrxBriQb9WghevDaeEg3Rgv9Hl3TAe8VjvJ8nnn3RtpIOhBBCCCEkddAlGqySF3J32rRpB0legAlfhw0bJi+88IL06dNH7cM8AXaWdCCEEEKcxtOiN1DyThpzg5KRxDkQ5+fvva5cpk+aPpey1yN4UfAGgv+XwpcQQgghhIQiGsGLCdnGjx8vS5YsMfdQ+BJCCPE2nhW9VsmLeryQvCRxWMtjUPa6m1QQvIHgfVD4EkIIIYQQTbSC95prrlFrlGoYNWqUekzhSwghxOt4UvRi4jWr5OWka8mBstfdpKLgDQTvi8KXEEIIISR9iVXwoiYv6NjRmHMEjyl8CSGEeB3PiV4leccbP+KqJi8lb1KB7IVsB5C9+HxIckkHwRsI3ieFLyGEEEJI+hCv4MVrIG8feOABtabwJYQQkgpUKSkpO2BuewJk8qJsA8DEa6zJ6w4G3/GMbNxaIHn168hDwy5Ra5JYIHinvvthBUkJ6Xn+n848SNhC8N5+d0WhCcH74P2G+PQ6+Lveee8jefvdGeV/I/6uP5/b76B44PkF3/zgi19FGXziCcfI0AAxTpLPJZdcJPPnz/cNtG5RC0kuuDCCiyQXnN9fHvnXneZe4gXeeme6jLzzX+och4t7hBDiFSB4rXIXQNoGyl0Asfvxxx+Xy12A151++ulK3AaC14Wq2atFsAavfe2111TpB03jxnly8cUXy2mnnW7uIcS74CLG2LGPSvfu3X1t/XXZu3evtGvXRj03bdp06dChg9omhLgLT4neWfOXyLhJM9Q2Ja+7gOT9+9jJaj24f08Z5FtIYqDgDQ3+Tgrf1IKi111Q9HoXil5CiNdwUvAGQuFLCEUvIV7FU6K3340PqzXr8rqTie9/KROnzVHbL903hFm9DkPBGzn4uyl8UwOKXndB0etdKHoJIV4hkYI3EApfkq6gLMnw4bfInDlzpH79+vLoo2OlZ89eFL2EeADPiF5M9IUasGD2hFFqTdyHLuHQqc0h8tDNl5p7iZ1Q8MYO4kDh620oet0FRa93oeglhLidZAreQCh8SboAwfv666+rmtNbtmyRtWvXSr169eTQQw+Vhg0byaxZM9XrKHoJcS+eEL2Y4OvK0RPU9uUDesnl5/RW28R9LFqxRkaMnay2mdVrLxS89oG4UPh6E4ped0HR610oegkhbsVNgjcQCl+SqlgFrwZtG9+lTZs2lbdjtP2ysjJ58MGHfP1yJnYR4kY8IXp1Nm+TBnVk0pgbzL3Ereis3r7dOsrwwf3MvSRWKHidA3Gi8PUWFL3ugqLXu1D0EkLchpsFbyAUviRVCCV4L730UunTp4+5x9+OZ8yYIfv27ZPs7Gy2Y0JciidEL7J5kdXLbF5v8NG8xfLIyx+obWb1xg4Fb+JA3Ch8vQFFr7ug6PUuFL2EELfgJcEbCIUv8SqRCt5A2I4JcT+uF73Wsg3I5kVWL3E/OqsXGb3I7CWRQ8GbPBBHCl93Q9HrLih6vQtFLyEk2XhZ8AZC4Uu8QjSCF20V3zu0YbZjQryD60Wvm8s2FBYWSu3atc1HxAoyepHZy/INkUPB6x4QVwpfd0LR6y4oer0LRS8hJFmkkuANhMKXuJVYBC++fxq2Y0K8g2dE75k9OsnIK84297qDW265Ra688krp3LmzuSd5FBcXS05Ojvko+ejyDZ3aHCIP3cwi7eFINcF74MABKS0tlaysLHOPd0GcKXzdBUWvu6Do9S4UvYSQRJPKgjcQCl/iFuwQvNbvIdsxIe7H9aL3tsdfk8Ur17qyPu/tt98uhx56qFx33XXmnuSwefNmeemll2TkyJHmnuSzaMUaGTF2stpmnd7gpGoGLzoRkLy9eqVOPW3EncLXHVD0uguKXu9C0UsISRTpJHgDwd9B4UuSgR2CF987fP/YjgnxFq4Xvf1ufFitx44YJJ3btlTbbgFy9ZhjjlFLMPbs2SPvvfeerFu3TgoKCuSee+6RqlWrms9WBLNXHnXUUdKqVStzT+SUlZXJmDFjZNSoUZKZmalOqk2bNpWxY8fK9ddfLyeccIL5ysTSZ8gDak3RWxGvCN6NGzfI999/L/369Tf3RMbbb7+lsnovuOBCc0/qgM+Bwje5UPS6C4pe70LRSwhxmnQWvIFQlJFEYafgDYTtmBBvUO3uu0ffa25XAPJwz569cuCA70XVqpl74wcCCAJ03779kpGRYe4NDUo3AJRucNtEbDh5lZSUyGGHHWbuqcj27dtl4sSJcvXVV0unTp2kQYMG5jMVQUzmzZsnW7ZsUbI3WiCPv/vuOzn22GPV9ldffaXqB59zzjnSrl07JX+TwcRpc9S6e6e2klfJZ4c47t1bot5/KBkeC2Vl+1zRjgEE7+13PyizP/1Sdu7cpfZB8D54/+3S59TeUrtWLbUP7/errxfKldeOkJcnv1n+WgjeSS88LlcMvqj8tdEQaYz37t0rt99+q+/1pbJ06RLp2bNX2NcHxrioaLf89ttv0qVLF/MVsRFLjCMF7xflJXDcKlWqmHsrB3Hv6vsc+p7WS+rUri3r/thoCN1vv/d9rnOloKBQGjaoL3Xq1PIttaX9kW3Ua9u3ayPLlv+iXrts+Sr12p9XrPLtbx3RZ+mmdhwpsca4Mt544w1Zv369dO16onTv3sPcGz/+GB9I+xhHcz6e/ekc1aaPat9Gzjj9JHMv8QI//bxSZn3ypToHXTk4/IW5VG/H0cBzhR8d4ypVGGPG2EDHGJLpnnvulh9/XGo+Y0jbBx544CAZBMEEcYSLuLt371b78FqIo+7du0vNmjXVPq+DvwOSDQIN/eRNmzapvxeSDcvhhx9eLrTx2m7duqnXFhUVya+//qpe+/XXC+TTTz9VY7sWLQ5hO+a5ohzEGMllEye+LE8++YRqYwBt6q9//asqOYk2poHHQELav/71r3Jpi9eee+65ctdddx30PdWwHdvfjvftYzvWMMZ+4o1xyIzeHTsKZP/+/WobwsKugOzatcv3AZaq7Ro1cqV69epqOxj52wrkytET1DYmYku26P32229l2bJlMnjwYBXs5cuXq4zHSy65xHxFcBDHHTt2SP369c090QEB3LBhQ/NRcJ5//nm58MILpV69euYeZGRuVCdaO7980TD4jmdk49YCVaMXtXpDgYsKhYU71Ta+0HXr2vc5O9eOd6sTEaisHYPL/nKTyu7UhMrgxYniymuHy3eL/B1jOzJ40RGC/AfBYoy/ZefOQmnQwGhnc+fOkaOPPtr3On972rZtq+9vrXnQ3xoY4zVr1sgbb7wut912u9oXK9YY5+bmSnZ28Bh//LFxlRhXhiNp64hxUVGx2kaJiZo1a6jtWIC4DczwbdokT0aPGiann9JTPdYoIRwkwxfZvQPPDT9hYSLacbgYR4udMbaCdnzxxRfKwoXfynXXXS+33z7KfCZ+vBfjvarTDOyOcbhzRSDM6PUu0WT0pno7jgaeKwwYYz9OxRgDU1xABk7GGBNLZ2TYE+NXXpkoU6e+bT4ygLQNlhmY6hm8lRFvZmTDho3U3XNnnnmmuSc+2I79eO1csWHDBpk8ebJv/PalucdoS3Zk8FYG23H8JKYd5/jacbbajhfG2I+bYxxSk+tAAJhqu9i/338s67YXwKRrqIf7+eefq8cQtxC4lfHzzz/L008/fVAc8RgSF1e3sPz+++9KkmFBQwdoOCjLsHOnIUKtQJA+99xzyvQD/W80jz/+uPz000/mo+SRvzV8jKxxOXDA3+7swLl27D9uJO143Xp/J1YL22DiFu9xQ/5m85G+1f+4oK+NhspijAsYVkmKLF6r5AWTJk2S+fO/Uttoe/qYaHdog2vXrvWd7HapzPWyMqNNRgKOhSxNHVMca/PmTeq2I431/b/55hu+791285HxXj/66ENZsWKFuccAsnH79m3mIz8VY1H5ZxcOfC4Q9i2a+QckGzbifR8cY+OzPEYtGi18KyMR7djO49oZYytOHRc4FwuvHdd/LGtMSHqTmHZsX3tzsh1bj2dnP5Yx9uO9GPuPZWeMK46ZnIuxHbFAiYbzzz+3guSFNJo2bdpB8giC6ZprrlFriB+A17zwwgtqnQ6SF+DvRIYz/m4txBAPlOJDfIKJM7xWi7stWzb7xoHPyJAh11a4RT9WnGrHiTpXeOE7bXcsMFZC9u4NN1xXLnmDtRWAtmX97gG81vrdiwW24/hJTDt25rh2xsLJGCfm999dMQ5ZugEWHf9B9epZlWYrRgOuyuPNIgUZmZDhqJmTXV66oecxbZOe0Yv3jnq8r7zyipx88snqdgOUScBtRVZwGwQk61lnnaXiiGzcOXPmqFsXrFkJyBAePny4qs+LZfr06fLBBx/4TtRz5bzzzlP/Fq/Hbcq48tCoUSPzXxpAiOFEiXq8MP4oIVGjht/2I8440R555JHmnsTyzBvG1brzTj0hbOkG/I26Lefk5Nh2hQW4oR0D3L5fu3Yt+frbH1QpBtzqP/W9D9VVIJQC0OB4PbsdL7Vq1pSF3y8O+9poqFYNcTC2g8X4+++/k06dOpuPgoP60chgxwUPXEDA7Ti4wlRaWiJffvml7NtXquRqs2bNVEbwSSedbP7L8CCTeNy4R+Xssweo7xRkMm5/+PLLL1TJE2uM8VnOnDlTfvnlFznuOKM0BJ7v0aOnzJs3t7z0CS6Q/O1vN6jX9u3bVx1Xg9fjs0PbyPGdY7COBUjaMY88ZdZQ3qj2NWvaRB594C7fZ9i1Qozx2omT35Ybht2pbnMHEL+4XbqyW6aBbseIt1PtGBkLdiX/2xXjQNCOcc79+edl6r1feOFF5jPxo2Ps5LnCKzEOd64IhKUbvEs0pRsqtuOcChcG46FiO85xqB1nq//HLvS5Audju7K8gBHjA4yxD2dj7EQ7No6bjjGG4L377rtYoiEO7LwVHv3lww7z354fDf52XMXWdmy0NWPb/naMMaQT54qqDp2P/ecKHDfWGEPwvvjii46WaIgW97Rj/ZvnpXbs1G+eU+3YH+N42nEg1uOk+7kiMzND+ZB4YhxS9OLNYrBrFSR2gDeJ4yLIkTB7/lLZXbzXNTV6EQ/Uv+nQoYPaxskInRMdfEy69tlnn0nbtm1VFi7kGD5wlFGAiLUKhMaNG6uyD/i3ELSYOO3QQw+V22+/vULDxr/ftm2bes4KXoP/++uvv5ZavoEajtOkSRPzWSPjGFmOeK+JBiUbpn78jdoefHZPJe3DgVgiNpVJhWhxSzvGQPrE44+VgeeeFVb44rNu0KCe9OjWRb0WdWDxGjuEb7gYf/HF5we1n0Byc2v4frh/lfbt26v608uW/aR+hPHv5sz5UgYMOEdlo6Od4jHqp2JQZeWbb76W5s2bm48M8J5w0eKII45Q2wsWzJcTT+ymjn/iiSdWiDHic/zxx8tXX81Tr9HgNXg9RC86CsOG3Sx/+9uNvo5EDVm/fp20a+e/2IFj4PUQenjv0WIVvFZpe+fIofLQP++Qw1qh1pTxd1sFLz4/oAXvM+P/pdpEJCSiHfvCYhvxxjgcs2fPUhcaULvp6quvMffGD2PsJ5rzMUWvd4lG9FZsx/Y15MS0Y/sGCsDZc0UWY+wjMedjxjieGFPw2k+yRZm/HVf3UDuuFlc7DoVbz8duFLyBJL8dG+NCb7Vjr/UrvBhjb50rQLwxDlmj1y2gRi9q9Y684mwle5MBRCoyFnW2LORp69atVdBx4nzooYfKOylbt271dXzulpYtW6qyDlrOQg7fdtttSshqILdQpwYiFhOpoXGMHj1ayTbrBwrJ27NnT5VFHAgyF6dOnSpdu3aVZ555Rr0vDY4P2Tto0CBzT+KA6EWNXjDjqVvVmviBAIS0ffLZ/5p7DAH453P7yY3XXWnuMcBrUQf2iWdfNPeEfm2soHTDgw+OURJX1+kNxqpVK+WII1qrjEpcvOjVq7f6Yf72229UVi0ycE855VR54YX/yDXX/MX8Vwb44UbmMP5NIChvgtt1UMYBEvfYY4+TOnXqyJAh15mvqAhqwOH7iM6Dlsl4T23btvMNOn6UtWvXSKtWh0rjxo18381actNNN6vXxAM+B9TXRT1SDT6HYDV2Q31mkPdDr7vK3ENiYfz4x9SCyRvmzDHu+CDJgzV6vUs0NXohaDAYI4SkNxC8r78+xXxkAGmLJRAIXogdCCcNXgepo0UPCQ3iFk/t08aN8+Tiiy9Wc1gQbwPBiwkOraUN0BYSUYM3XtiOCUkOITN63cKv6zfLr+s2Sa0aOap8QzKAcIII27t3rxJReIy6pNjGbepdunQpv+qAW3MhV/F6PI9bBrDGJGnW1wEIZGQxQo7pKwB169ZVV7/wb/SCKw8QwcEmZFu0aJEqwH7KKadIcXGxqvmr/x3S05HhCOmcaJDNu2jFGsmrX0fOO/V4cy/RRJrhq1+LbbszfK2gLEivXr1UDWoIWWv7sy61atVWt2ocddTR6scZGexo8+edd74Sv0cf3UFlqjdpkqdeawU1qLOzcw4qQQIgbDG5IQqYX3LJpSpjGFd8Dz/8CPMVftDZ+fzzz3wdlj6yYsXy8vdWp05d9d6QTY+J4HAFrLh4j7Rr1059z2IF0jZkBu/9o6T9kW3UPoDX2pHBS8JRRd566001CVC3bt2lRYsW5n6SDJjR610iyeiF4P3734ebF1daqHM/IST9YAZv4kl2ZiRJPl7I4K0MtmNCkoPrM3pnzV8i4ybNkM7tWsrY4YnPTI0FyLL77rtPZfCGkxCoy9uvX/jZ9iGUITQgiq1A4kIm33HHHfLwww8rueUmJr7/pUycNkf6dusowweH/xuJIQjdlOHrBPiRRntGSQcrmMDtoYce8LXlu9SFkXBgcrVbb71Vzj77bCWXnQRxZgav+1i3bq306tVTbaMzOGXKG2qbJAdm9HqXyjJ6dfa8ZtiwW9RCCEkfmMHrHpgZmT54OYO3MtiOCUkMrhe9i1euldsef01tTxpzgyvq9AbyxRdfqJIJKLnw7rvvqsnaevfura60hQMnLtToDVbPA5mJ48aNE9T1xYkbJR1Q+/faa69VmcVPP/20LFiwQJ3ocBK3uyZIvPQZ8oBaD+7fUwb5FhIZqSx8MYHa6NF3KVHQpcvxquzIBx9MkzfeeF1uvnmYKv1gBVL46aefkosuukjq1q0nb7/9lprNGZPBjRp1p+01djQUvO7HKqAgenlLefKg6PUuoUSvkcU7Ql1UsULRS0j6QMHrXijKUpdUFryBsB0T4iyuF71A1+m9fEAvufycg+t7JhtIWdQYfeyxx1Q2L046f/7zn1UB5XD8+9//Vrexn3feeeYeP5BceB4Co2nTpup2eJRmgOydNGmSqk960003Je02jHBY6/O+dN8QVb6BREcqCl98T3744Xt54YUXZMOGP8pLklxwwUUVaktbQUkG1PV96aWXZMeO7apmLzKCnZC8FLzewZrVi1q9U6ZMUWuSeCh6vUsw0QvBi9IowaDoJST1oeAVdXs5bhdPxmTW0UBRljqkk+ANhO2YEGfwhOidPH2uTPItyOZ9dMQgV2b1xgI6Eii9gAxFTLaGNSZrc1t2brQ88vIH8tG8xUrwQvSS2ElF4es2KHi9CWQUpBSA5L3gggsooZIARa93sYreB+65JWgWrxWKXkJSFwpeP5iAG4k7AwcONPe4G4oy75LOgjcQtmNC7MUTohfZvLeNn6LWI684W87s0cl8xvtA9k6ePFllBKMWL7Iejz76aLnxxhvlkEO8l6FmzeZFbV7U6CXxQ+FrPxS83iewhiiELzqEOruXJR2ch6LXu2jRW73Kbtm5Y7O5NzQUvYSkHhS8B4MJoKZOnSp///vfzT3egKLMO1DwhobtmBB78IToBZiQDROzpVpWb6oxYtxkWbR8DbN5HYLCN34oeFMLZCAiExF1RYPBkg7Osn3HDikqKpbTzjhbJr5gXORLRz77fJ6UlpVJn9NOEq/clPOvB8bKM0/hQklk3cA6depI7drsexGSCqBE3JYtm6Vhw4blkjaU4AWjRo2qIF68Jngxv8kTTzyhEmkqm/gX2bwPPfSQWqpVq6b2oUQU5l9p3ry5euxmgokyyEOIskACRdmGDRukoKBAGjRoqB4nihYtjLh269ZdLXiciv03Ct7IofAlJD48I3qtWb1urdWb7ixasUZGjJ2sth+6+VLp1IaCxSkofKOHgje1QSkHyN5Q9UWJs3Q85gT58IP/mY+8wb8eekJu/tvVUrNmTXNPRQ4cOCDvTZsp555zprknNNt3FMifBl4hE198Qg47tKW5191c85ch8uGMaeYjQkg6ggs4hx9+eFhxC9EC0auBZIFs8YrkBTifQwJBnI0ZM0aqVq1qPuMHfQjcCVRUVKQm1H7qqafK54SAAB0+fLiaDLt+/fpqn5sJJsmmTQt+vre+9scff1STJbuBCy64ULWzVBC+FLyxQ+FLSGx4RvQCXasXTBpzA7N6XQRKNvx97GS1huCF6CXOQ+FbORS86QeyfNetW1++TZzjzXemycLvlshFF1/kqdINBYU7pefJf5L8TVvknruGy43XH/z93u0b7Pc562J59qmH5JhOR5l7RbZvL5Chw++Sob5/c2LX48y9Ipu3bJN7739Unhr/L0/U2kfphltuuVmqHCiVfWWl5t7QnHVWP99ylvmIEOJ1IDYhRjDZLdAyKZjwhTiBQMHrAZ6HZIGoCnytW4Hsff755+VPf/qTmujaCp67/fbb5cwzz1TzpgwZMkRJXUx+rVmxYoX6+5HZ61bilWIQ2z179kpo5vK6devUev78r1TfLbDf9uijY5X09SIUvPYRb9um8CXphqdEL7hy9ASV1csSDu5Cl2wAKNmA0g0kcVD4HgwFLyHO49UavZ98NkfyGjeSktJSufHmO2X2jNclJyfbfNbPR7M+k0WLf5JbR9xg7hF5/Kn/yK5du1W275efvCNZWVlqP26Fvuqvt8i/n31Uqlc39rkZXaM3r1F9ad4wK2T5Ew1r9BKSekBEffLJJ/Lpp5+qbaDlUqDwhTyBZPGy8F27dq3s3LlTjjrKf/FO89NPPynRdt111ynR+9hjj6mMZw3mUZkxY4acffbZ5h73kEoSLFhJLq/9/lDwOkcqtXVCnMRzojewhMMZPTpR9iaZie9/KROnzVHbLNmQXCh8KXgJSSReFb0PPvr/7N0JfBTl/T/wLxAgBAjIFVTkUBFRCVahIKL+rcglHm09oEGlntV6IEc9Wv1VLVCLUNRWxRM5BBW1KoICSquIeJejKuDFoRIuIUAScsB/P8/Mk5mE3WQ3+8zuzO7n/XqtMzu7DpvvPpnsfva7z/xDiov3SfPsbHl/+Scya/o/JCMjw77Vsen7H+WZGc/LH2+72d4SesM5+i457LC2suDNt2Vg/zPlkEOahS7N5cD+A/L09DnywuzHpImrC8yvdNCLY96SBc+paU/w5ilSFzyDXqLUlaqBL6YhePrpp6VLly7q+t69e6VNmzbSs2dPdd0NUzbgBNm//e1v1VQV9957b+i4OFd1t+pvaeBEbVdccYVa9wPToReO/zV96BcvTMUQzRy8eBwIfPXfpKVL3/P9NA4MeBPH9NgnSjWBC3rBPYUD5+tNrjeXrZSJz7yu1ocPPlXyQhdKvnQMfBnwEiVeUIPelau+kGuuHystWx4i0554QFq3Cj/n4rz5i2XV6i/k9j/caG8RWb9+k/zuxtvkiy/XyXOzHpWxt94jxfusOQ0zMxvIG689K1lZ1Z/sxw+qBr0QrpNKY9BLlPpSLfDFlAyYa3f16tX2FpHrrrtOTjzxRPuaA/dZtGiR3HTTTfLll1/K8ccfr66/+OKLaj/Qq1cvXwS9XoVcffueGvHDPi9gTuSRI0epZTh4LEOHDlVL3GfOnOftW/yFAW/yePW7QBR0gQx6oWrYy87exHOHvJyX15/SIfBlwEuUPEENeqPxv8/XyoAhw+T1f82Q7q45emH+G2/LP0PH1VdfmlZxVvagCRf0auG6exn0EqWPVAt8a7Jz504V8F5++eXq5/Mrr0OtKVP+Lpgr1wvVnTsBIS7m4g3XsYvHhAv4rauXAa9/eP27QRQ0gQ16gWFv8jDkDZZUDHwZ8BIlX6oEvRs2fi9v//s9GT7sV7J3b6HcO36KzH1pnlx1RZ78PnRM+ejjz+SsX5wmm/O3yp//MkkWLfqPvLvkX3JEu8PsPQRPdUEv4M24u7uXQS9R+knFwBfTN+BnQhCHTt3nn39e3nzzTTnllFPk+uuvDzuNT7KlUoiFvy36pGtVP1CMdOI13Wnsl79DDHj9K5V+V4jiEeigF9xhb/cu7WXs5UMY9nrMfeI1hrzBkgqBLwNeIv9IpY7er77+Vv75yDSZOfslOezQHPnT7SPl16Gfq27duqHbvpO7/zJZ3li4RDp1bC/j7v6DnN3vDPv/DKaagl4N3b0Ie/Emye/zIxKRN1It8N2yZYv861//UlMz4FsZCNwGDRok9evXt+/hD+kQWqFbF3Mh68A3XNcuPnTE36JkT9/AgNeay/qdd96RgQMH2lv8KR1+d4iqE/igFxD2Llq+Wp2gDSHv/aPzGPZ6YPP2XTLxmXkMeVNAEANfBrxE/pPKUzekumiDXiIiLdUCX79Kt5AKIa+eixch75w5cyqFvQh5EfbCd99Z70MTiQGvAycknDlzptx11132Fn9Lt98lIq3aoLe0tFR9yoluFpNKS8tC+6xjdF67les2yuQZr0v+jgJ1fezl58iAPrlqneK3Yu0GGT1pln3N/InX9u/fL+Xl5Z58kh6kcQxlZeXqq2T165v96li4GpsKfK+9Ms+zGv+4OV8efny60YA3kTU2xctxjLNJZ2QEdxybwmOFJZYaM+gNrliDXh4rHDweW1hjR7rVmIGvN5IdSiVzHLvn4q06hYM76K3a8evlsWLr1q3y4osvMOB12b17t4wfP14mTJhgbwkGE79bF198sZx++hn8mxfC1xUOr2qMOuzfX/saRwx6Cwp2h55A60E3a9YsVJA69i3xKSwskuLiYrXepEkTadDAzJNYUlIi327Kl3FPzZOtO3erbZzKwQz3VA3wpyuGyM+O7WTsrOL4hd61q6DiYNG0aVP7lvhVHsfZxn6xvRzHe/bsVeuZmZke1bh+qMZN7Fss8Qa+h7bNkSEDz5LRN19jrMb4qvQ/H3tGXn/DeXEVb8ALiakxxzFrbEn1GjPoDa5Ygt7K47hxaBw3UOvxCuKxAm9y9Yt6HisKZMtPu2XnnkJp1ChL8rfvtG8V2WI3XugGDNC357Rsbi1bZKtlG3uptxcVFUrzJlmhGosc3eFwj2rMcWxiHDPwNcNECBVv12FJSWloHO9R616NY8x/nJ0deRzruXirTtGA6YOGDr1YrbuDXi+Pxw8//E9577137S3W8xEu4AWEu0EPeF988UUZMGCA+vtTHYRlf/rTn+Tee++tOIZ+9tlnav34449X1/0s0u/ak08+aV9zhPtda9Wqtdx22x1y1FFH2lvil5jXFSb/5iX/WBGrdKxx2KAXxf3pJ+fFGkIhU6l6QUGB+gQAGjXKDF3MDAx3kR9/5V354tsf1VQOgO7e7l06MPCNEU64NmPeUjVlAxx/5OFy9QWnS+vmTYz+8uEPxu7d1kCGFi0OsdfiE/RxnIwaxxr4vvRK6L6Puu/bNnTfwXFN6YD9Vp2i4bBD28pN1/02roBXS1SNDzmkufpjEi+OY0cwa2wFyJCKNWbQG1yxBL3ucWzyRT2PFY4g1HjRcuuN8aqvNsnKtesrhbhe6XZ0O/Xc5XZuL91Cl5yW2ZLTonav5zmOLV6MYx34ovMRXZCgwy4GvpFFCp2iDXhbt26jpjww8bVyP4zjSIEudOzYXi31di+Px19//Y2MGeOc9A3PBZ6TSGNzyJAh9poFoWHQxvGyZcvklVdekb/85S9h6/jFF1/IUUcdpYIshLw333xzaIxYH9Jt3rxZ/va3v8nvf/97dR+/C/e7hA7lqr9zGn5H3fe94oqr1HOerq8rioqKQhd9rKhXMQ7ixdduDhM1jtjRi7NO79u3TxUBxTAF+8S+kaJjv2ifNgFhBVLvAwf2hwrcWNZsyJfJM+ZXhL0IeS8d0peBbxQQ8C4MvZh3d/FiLt7jOh2maoxPWxo3biwNG5r5xAL0pyyZmQ1Dz1+WvTV+mDC+uDh44zjZNY4l8MUJjF4O3ffxabPtLZHvW51wAS86ha8eMUyGXXx+pRrXJuDV/FLjWAT1eMxjhXc1xtd58GIo2TVm0BtcsQS9iRnHWaFx3NC+JX48VlicGh8I1bhR1DVGqItAF1au3VDxeromeI2d08p6nd3W7tAF3b0LOiDebHf45m9z9q2bC6qDoBeBb6zhL8exwxnHZjuFN27cKG+9tVjee+892baNgW8k8Qa86Co8//wL1AnkgjGO94TGcWlU41gHulWnb6ga9IJX43jfvpJQzWdFNY4BzyOez6CPY3xYgyC3b9++9hYLgrKHH35Y8C3v4cOHh56b+9UHDO3atbPvIfLDDz/ICy+8oAJgv8LzE8v0GlU7tQG/dxdffEkgjscYx3v37lV/89CpbWpqgUQcK7BP7NuUdKxxtXP04pfaRIqeTJNnLqj0ApWBb2ThAt6ze3eTvMF9at09EQuvxlsqjGNTYq1FtIEv9vvDj5vDhq81Bb7hAl78f0E9yRrHsfdYY+9FWwsGvcGVDidj47EiejjXBaZWmDV/WbWhLqZFQ4CLE/Ja1715PY3ANz90WbFmvaxYF3odb4fBkYJgPB4Ev/16n5CQ16yJFMRxzCkdwsPPF0/AG+QTQ0U73vT0DdEEvcBxbM6OHTvk1VdflREjDn7fhg7D22+/XXXuPv300+rnP/roo+1brecBncxXXXWVvcU/8HzEG/BecslQGTp0WCCPx0HDGptRbdCbKvCCFS9cGfiGFyng7dfrhIoX8pTeog18IVIYW/W+qRbwEqUjBr3BlQ5BL1UP4e7iD1ZH7NjFSY3RiZsTep3sl9fLODmwWroC4KrhbyqHvkHDwNeCnyddA95Y6aB35Mhb1EWLFPQmQqqOY3QLYlyiOxed4Zi6Y968eWoKhqoQkv31r3+VUaNGydy5c0Nj8Rfy7bffSqtWrVSnL8yfP19++1v/vC9D/U0FvERBkxZBr8bAtzIGvBQrU4HvJuyHAS9R4DHoDS4GvekpmnAXr4uD9JoY4S+C34Xvr4oY+mKKB762TZ50DXzx+BnwxmbMmNEyd+4LqpsXXb1aMoNeLRXHMYJNPEYEuYBpG2677Ta17oZ5SMeMGSP33XefrFmzRv0cmKrllltuUdPiQJs2beSpp5z3bMmCejPgpXSXVkGvFi7wBXwd7bIhp6nOhVQNfRHu4kU+XhC7Xwwz4KVYxBv4agx4iYKNQW9wMehNL3jtN2v+UrV0w2vf/qHXgKnS8FBT6Js3uC9f6yZRugS+eLwMeGvHz0Gvli7jWMOcqZMmTVJfex87dqyaj9SPUF8GvESWtAx6tUiBL6RS6Bsp3AUGvBSP2gS+L9qdvAx4iYKPQW9wMehND+EC3lQLdyPRoS+meHB/e42Bb/KlalCGx8eANz5BCHq1VBzHOAnUu+++KyeddJI6udTKlSvlxRdflO+++04mT54srVu3tu/pH6gnA16iytI66HXTL4TztxekROhbU7jb7eh2kntMe85dRkbEEviGw4CXKJgY9AYXg97UFingxevZ7qHXf+kGoe/0ee8y8PWZVAnK8HgY8JoRpKBXS7XAFydee+SRR+Sjjz5S67m5uaqTt2nTpvY9/AH1Y8BLFB6D3jBqCn3VsnN71Qnhh/AXoS5ECnaB4S4lQqyBLwNeomBj0BtcDHpTEwPe6jHw9aegBmX49xnwmhXEoFdLtcDXr1AvBrxE1WPQW4PqQl83vIhu27K5OjuxDoC1eINgHdzmh5abt+1Uj2nz9p1hzzTsxnCXkqWmwJcBL1FqYNAbXAx6Uwteo06eMZ8Bb5QiBb6jLh3M18xJFJSgDP8eA15vBDno1Rj4egP1YcBLFB0GvTHAi+f87Ttly46C0PqGGsPfqnTgm9PKHQI3V0sEt4DwVqsuxK0KL05zQvtCsKuuM9wlH3jmmeny4ssvy5ffbAsdbeqEthyQzLrFUrivXOrWb6Luw4CXKLgY9AYXg97UsWj5Kpk805r/Hgb0yZX+p3RjwBuFcIHvqOGD+Do6yfwalGH/DHi9lQpBr8bA1wzUgwEvUWwY9MYJQS8C31XrNlSEv3q7V9Cpi87hNqELX4iSnw0Y0F/WrPlSxo69TfbXayQPPPCQlBVtkzp160vHLj0Y8BIFHIPe4GLQG3xVu3jRUDB2xBAGvLWAwHfitHkVTRbs7vUHvwRl2B8D3sRIpaBXY+BbO/j5GfAS1Q6DXg/psFeHv6A7grV8e10Htxq6c62laxtfbFLA6KB33Ljxkpc3XB57/HEZP+5eOaRFS/ns08/sexFRUDHoDS4GvcGGcPfWB2bb16wu3rGXn2Nfo9qa+Mzrlc53ge5eNFhQciUrKMP/z4A3sVIx6NUY+EYHPy8DXqL4MOglIs9UDXrxwg0v4Dp1OjL0Iuff9r2IKKgY9AYXg97gmjX/PZkZugC7eM2r2t07fPCpkhe6UPIlKijD/RnwJkcqB70aA9/w8PMx4CUyg0EvEXmGQS9RamPQG1wMeoMJXbx6qgacbG3SqDy1TmYh5J34zLyKuXvR1Zs3uA+/XecTXgVluJ0Bb3KlQ9CrMfC14OdhwEtkFoNeIvIMg16i1MagN7gY9AaPO+S9bEhfuezc09Q6eWf6a+/K9HlL1Trn7fUfU0EZ7ovgiAFv8qVT0Kula+CLx8+Al8gbDHqJyDMMeolSG4Pe4GLQGyzukBdz8WJOXkoMhr3+F29Q5ob7MuBNnnQMerV0CXzxeBnwEnmr3p133vVne52IyKiZM2fI9u3b1B/u3Nxc+fzzz2XhwoVyyCGHyIgRI+x7EVFQLV6yVL5Y85Uc17Wz9D/rdHsrBcHnX66TRW+/K9lNm8qI4RfZW8mPGPImV/cuHdQSJ1D+etMW2VtUIke2ayNNGmWq7ZR8jRs3kRNO6Ca9ev08tN5Ytm7dqoIyBGEffPCB7N27V9q0CT1nTZqoy5FHHim9e/dWy2+//VbdjqDpT3/6k1x99dUHBWpPPPGEmtLhm2++UdsQ8F5xxZVy0003q+YFMgfvE/B+4bjjjpf+/QfYWyVU/7+rJeqenZ2aH7TEO44xVjFGcV9c79Spk7qfX+DxvfrqqzJu3Dj1MwF+184//3z1u1f1wxWEu7fffnvFfQEB71/+Mk7ViYgiY0cvEXmGHb1EqY0dvcHFjt5gcJ94bdLoPJ50LYncnb08QZu/xdIZGQlCKXbwJl46d/RWFcs4xnj1a4cvHg87eIkSq669JCIiIiIin0AXrw55MScvQ97kwpzIeB4AzwtCePInBLIIhe69914VEOE6wiaER3fccYda6jCsKmxH9+6VV15ZEfLi/7/xxptk6tTHGPJSwsQyjhGc9uvXT8aPH6+mHsF13IYxjPtiTEca817RjxW/S1gCHhfC3SeffPKgkBf3GTJkSMV9AT/3yy+/wpCXKEbVBr0HDrDZV/OqFqyxgzX2HmvsPdbYe6yx91gLSgVBPlbk79ilpmyA7l3a88RrPoHnAc8HIOzF8+Q1/s2rvViCMixNB7z8W+rgOK69oAW++rGlYsDLcew91tiMiFM37N1bKPv27ZP69TOkadOm9tb4YZ/Yd926dUP7bSL16tWzb4lPWVmZ7NmzV/bv3y+NG2dJw4YN7VviV1CwW+0/M7OhZGVl2Vvj59S4vqqFKayxI3jjuDxU4z0pU+N4pm5gjR0cxw7W2OKXGuupG3r//CTp1fNEe2vqWP/dN1Kwa6d0636Sur6vuFg+/Xi5dOl6grRo2UptC6oPPvqvLP/w06imbgjiON69e7eUlgb3WHHHP55XHb1tWzaTmeOvt+9FfjH8jodl8/ZdagqHoQN6h8ZbsMZxYWGhFBd7O44xN2hGhpljRXl5uZEaR/oqPOY9dc8DiiAt3ikadI0zMjIkOzt9ahyOHsfYJ/ZdnVimbkjXGvt1SgfsP9lTNPhlHMeCxwoHa2wxUeOwQS/S7p9+2mlfE/WCE2GkCQUFBeqFPTRqlBm6NFLr8SosLAo9ecVq3eQTWFpaqoqstWhxiL0WH9bYwRo7Uq3G8QS9Qa/xIYc0lzp16tjXao/j2BHMGluhKWRmZobeqKdWjXXQm6pKdq0P/feA1G9ymNSp10DKi3+S8n27pG79LMnIamPdKeCiCXpTfRxHK1HHiq9/2C53PfqSWue8vP7knq/3kdsvl+xGDdQ6x3EwjhVOUPZ2aH2LvdVMwAussSPWcRxt0Bv8GtcL1ThbrddWuHGcjMDXDwGvxtcVjqCMY401dhQVFYUu8dU4YkevftB169aRZs2aGSkyuAeGySKXlJQIuk3BZGCBFH3XrgI1QPBY8ZhN0TVGbZs3Z429rjHGMcazCe4a49ObBg3St8b6kzfUFmfBddc4nqCXNXboGlvjOFt9amgCa+xgjS2Va1xzp9f3P/yowt5o4NPp/fsPhGosUq9ehlqaUF6+Xz1uQKepqeM8Hut7b7+i1k84qa8c0qKVfLP2f/L9hnXSss2hclxuL3VbrEKlDT3mMrXEYzXVHQux1hgh7y/PHVRjN7Z347g0NI6tF/U8Vjg1HjXlOcnfUaCmCJg0Kk9tI/8ZPXmWrFizQXJaZMvkkZeobSbf6MV6PI5F8P7mOccKkzXevHmzvPHGG7Jt2zY57riuMnjwOfYt8UNggeDCdI3dAUAQahzrOI6lo9erGgd1HL/33tLQWN6qtiUi8DUR8J5//gWh++aFamx9WBYvv4zjWCTmWNGYNU6zGkcMegHFwBsFU2+aNB0KmXxzA3iDg4GBT29MwqDDvvFmwTTW2MIaO4JbYwQslQ+a8QS9wBo7ItU4XqyxgzW2BLHG+gM90zXWbyznzn1JevToIRMmjJepUx8NHdsGqjkba4vj2MFx7MA43vLTbrny7sfVdUzZgKkbyJ9WrN0goyfNUusTbrxETjjqcI7jEK+Ox6gDPshCAGASa+zwQ41jCXqBNbagxj/++KO8++47ofdY3k7pYCLgRQcvnmMeKywcxxbW2BFvjav9KVFgvKg3DQ/WdCEA+zT9AgswGLwYbMAaW1hjR3BrbPagCayxgzW2sMYO1tiBOnhRY69wHDs4jh2ow5w3l6t1BLwMef0NU2ro5+jtjz7nOLZ5dTzGPnEcMo01drDGjiDW+PDDD/f0pG16X6ZOssZx7OA4trDGjnhrbP4nJSIiIiKimOTv2CWLllsnhLp0SF+1JH/TzxOeNzx/RETJhoDXZOCLzl/8P6YCXiLyHoNeIiIiIqIkW7l2g1qiS3RAn1y1Tv6G50l39ernj4jID0wFvrfffjsDXqKAYdBLRERERJRkW3YUqGVOK07ZECT6+Vr11Sa1JCLyk3gDX72dAS9RcDDoJSIiIiJKspXrrI7Q7p3bq2WQfffdd/Za6tPPV/72nWpJRORHtQ18Ee4y4CUKFga9RERERERJtnLdRrXs3qWDWgYVzmw9bdo0dSbqmuDs8EVFRfa1YNLPl37+iIj8LNbAV3f1agx4ifyPQS8RERERURK5T+SVY8/5GgTl5eWycuVK2b9/v73FOrN1SUmJ7N69294SXmFhobz99tuyYsUKe0swuZ8vnpCNiIIilsAXGPASBQeDXiIiIiIin9An9wqCb7/9Vp2VvepUDU2bNpWCAmvO4UiysrJUwNC7d297CxERJVpNge/VV1+tpnFgwEsUHAx6iYiIiIiSKH979aGoXx199NHy1FNPyZFHHqmuY9oGaN68uWzZskWtVwedvwsXLlTru3btkjFjxsh5550n//jHPyp1CfuZO5gP6vNIRBQu8MU3NubPny8bN1pT0zDgJQoGBr1ERERERD6xeXswv/6PuXb/8Ic/qPC2WbNm8uOPP9q3RLZjxw55/vnn1TQON954o5x99tny6KOPyhlnnCFPPPGEHDhwwL4nERElgjvw7datW8U2BrxEwcGgl4iIiIgoiXJaZttrwbBt2zY1P69bvXr11HQN6Mxt0aKF7Nu3z77FgtD24YcflgsuuEA+//xzta1t27Zy1llnqe7fTp06qaD3sMMOU+HCNddcI3Xq1FH38zN3MB+055GIKBKEuyecYAW9OTlt1JKIgoFBLxERERFREuW0CM68vJhS4eOPP5a6dSu/jWjQoIGab7esrEwaN258UBCMAHjTpk3y0EMPyapVq+ytIkcddZRkZmbK119/LcuWLVPdvThB29y5c1VHGa4HRZCeRyIiIkpNDHqJiIiIiJJMh4Qr1qxXS79CYIsTqYXrtm3VqpVaIvTt2bOnWtcaNWqkwt/rr79eZsyYoc7ejss999wjV111lezcuVMmTpyoOnmfeeYZ1TV8yy23qH/Lz/TzxZCXiIiI/IBBLxERERFRkuUe014tV66zTnrjV5hXt127dva1yrZu3aoC4F69eqlOXbeGDRvKfffdJ//85z/lyiuvlHnz5h10eeWVV2TmzJkyefJk+d3vfidNmjSx/2//yrenbuC0DUREROQHDHqJiIiIiJIsp4UVFG7evlMt/aq0tFRef/31g06U9uGHH8o777wj2dmRA09M+YATtvXt29feEnwr1m1Qy9zOVlBPRERElEwMeomIiIiIkqybHRSuWLOh0gm+/AbdvJhj94477lBTLfz1r3+VG264QS2rTrWADt8nn3xS3W/MmDEybtw4GTFiRMUUD0GH5wnPF+jnj4iIiCiZGPQSERERESVZbucjKuZ5XbhspVr6EaZTeOCBB9T0DC1atJA2bdrIwIEDZdq0aXLyySfb97K0bt1arrjiCsnNzZXjjjtO/vznP6v7hpvfN4j084TnDc8fERERUbIx6CUiIiIi8oGze5+gltPnLfV1Vy9OrHbBBReouXYR5OKkapGmbECoO2DAAHW/7t2721tTA54n0M8bERERUbJFDHr37dsnBQW7pbCwyN5iRllZmdrvnj17D5rbKx7YF/a5e/du9W+YhBrgMaMmJlk1LmCNQ1hji/c1LvCoxjxWAMexhTV2sMYOq8bBOlZo5eXl9poZHMeW4I5j72p8/uknBqKrl0Smv/auvSbqeeM49v5YgX0Hq8be/M3DWAtejYP1HiSYNTY/jvXrn/Ly/Wppitc19u547NU49uZ4zGOFJR2PFWGDXux4795CtdPi4mKjTyCKi/2VlJSE9m3uCcTjxD5LS8ukqKjY3ho/nHBC1wA1McmqcTlr7KpxYSFr7G2Nyz0axzxW8FjhYI0diamxuRct2J+3Nbb2j3/HFC9rrJl8wel9ja1xbLLGGGMcx5ZE1Pj/ndxFbfN7V286w/Oiu3kvOfvnHMe2yscKc3//sS/sE/sOVo3N/83Dz4/9ma/xPo9r7O17kKDVGK9dTHFqbH4cl5SUquX+/fsDVWPs2+Q41uPMu3HsxfHY2l9QxrH3NdbHCmtMm+DnGocNevEVq7p1nZtMzqPl3m/duub2W6dOIvYbtly1FuQam3y8lffLGmte1ZjjmDXWWGNHImrsVS3c6/FyP0Yva2xyvCWmxiYfb/BqnIjfaZPjOOg1HjrgFHb1+px7bl48XxrHsbNfk7Xwar+sscN9bGeNva+xyVp4WePK4yJYNQ7Ccwfu/ZmtsTe18Gq8Ja7G3jxmv9U44v+FEy1kZmaqZb169eyt8WvcOEsaNcpUZ+Rt2LChvTV+mZkN1T4xZ1jjxo3trfHLyKgXqkFjVYumTZvYW80Ico1RE1OsGlu1CFaNMdZYY+yPNQ52jb08VuDfMMXL43Eiaoy6mOJtjYM7jk3XWMPjNgU/O2ts8Wocp0KN3XP1vsmw11dWrN1QaW5ejmMHjxUO1tjCGjuCWOOGDRuoJf4NvEY0hTV2uMdxEGqM94yssQXvS/1a44hBLwqQldVIGjSob28xA6k3HrDJQmjYJwJO0xo0aKBqYfIPCLDGDtQgeDXONBqOaUGrMfbHGluCWmMvjxX4N0zy6njMGjs4jg/GGnMca4mqcd7gUyW38xFqfeIzr3MKB5/A8zB60iy1jucHzxNwHFt4rHCwxg7W2BG0GuvHabJjGlhjB8exI2g1Br/W2Fx/MRERERERGXHfzcMqpnAYM2kWw94kQ/3xPACeFzw/RERERH7DoJeIiIiIyIfuGzlUhYoIGSc+M49hb5JUrf+oSwerJREREZHfMOglIiIiIvIhhLyYBxbLFWs2sLM3CXTIi/oDOnn1tBpEREREfsOgl4iIiIjIpzAPrA57EToy7E0chrxEREQUNAx6iYiIiIh8DGFv3uA+lcLeFWut8JG8gfoOv+NhhrxEREQUKAx6iYiIiIh87uze3dTcsDrsHT1plkx/7V37VjIJdUV9AfVmyEtERERBwaCXiIhSVv6OXepCRJQKEDbqE7TB9HlLZfRkTuVgigrQQ/VEXQH1nnbPtQx5iYiIKDDqlJSUHbDXiYiMGjCgv6xZ86WMGzde8vKGy9y5L8iYMaOlU6cjZcmSf9v3IorOynUbJX/7Ttmyo0DyQxcN26ylta26YFeHIzkts9USclo2D223rnfr3L7iNn1fSl8dO7ZXy7lzX5IePXrIhAnjZerUR0PHtoGh5WPqNqJkmTxzgSxavsq+JjL28nNkQJ9c+xrF6s1lK2XiM6/b1+wO6uGD7GtElAh4n4D3CxdeeJHcf/8ke6vz93jp0vekXTt+8JIoDz30oEyadL+ccsopMnv2c/ZWIvI7dvQSEZHvILzABUHGiLumyqAb/ia3PjBbXZ85/72K23FBAKxC4Ci6d/V99P+DC/aBfeKCfwP/Hi5Yx2VWaLvePxGRXyCExJQC+kMphJToRuXcvbFBvVA3HfLqqRoY8hIREVEQsaOXiDzDjl6KBkLUxR+sVp256MqtKVB1d6zpTtyclk73bdtWzdXSvS3f9bXmzdvw7zjXdXfwZvz723bV+BVofIU3t3N76WefBZ9SFzt6KSiqdvd279JeLhtymnQ/xhrDdDAEvNPnvVtxsjVgFy9RcrGj11/Y0UsUTAx6icgzDHopEgQSq77aJCtDb7QjBbsIKtq2bK6CVYS3CG7busJbryDoRRC8Ys16WbHOCgAiBcA69MWUD5zDMfUw6KUgwYdms+YvVUuNge/BwgW8OH7nDe7L4zhRkjHo9RcGvUTBxKCXiDzDoJfcqgt3EUZ0V/PjNgutd0hIoBsr/XVoBMAL3191UPDL0Df1MOilIGLgGx4DXiL/Y9DrLwx6iYKJc/QSEZFnEOjqeXb1V4t1yIspGHDyoJnjr5dJo/LksnNPU9v8GPICAhJc8DjVYx4desxD+qoABRCq6Hl+Macwft6apqEgIjINoSXmmMVFB5gIN0dPmlUxh29NU9SkEpxkDT83fn4d8oarEREREVEqYNBLRETGuQPeSOGuPkO8X4PdmujQFyF11dAX8HPrgJuBLxElWnWB7/A7Hk7p0BfhLk6u1u/aCWrJgJeIiIjSBYNeIiIypmrACwhyUyXcjaRq6IufU/+MDHyJKJmqhpv6JJKpFvpWDXdxXcNJ1hjwEhERUTpg0EtERHGrKeBNxXA3EoS++Hl1sM3Al4j8QAe+0+65tsbQFyGp34NfPL6awt1RwwfJgn/8QS0Z8BIREVE64MnYiMgzPBlb6kNgOWv+sopwFzB9Qf/QG2yEnWRB+DBj3tJKoQlCiLzBfSqCFvIfnoyN0oE+eVv+9oKwH0LpKWlwwkycLBMnzUz0B3c4huaHjp/5OwoEJ8SMFEDjuNrt6HZqSUTBw5Ox+QtPxkYUTBGD3rKyMikpKZWMjAxp0KC+vTV+Bw4ckOLiYqlTp65kZja0t5pRXLwvtP/9of1mhvZfx94av5KSklA9yqVhwwZSr149e2v8sE/smzVmjd2sGh9Q+w16jeMJelljh1/H8az576mTj2k8q3vNwgW+qtMsVLNYA18ejy1eHiv0G8sXXnhRevbsaSzo9b7G9UI1bmBvjZ/3x+MgjuPUrHFNoa8bjvltWzYPHbuy7S1ihcCtmtvXrOuaDof18Q/BLWzetlMtQW+rKdB1izbcDfI4xljDmDOlvLxc9u3jsQJYY4d3NS4N1bgsqhrHEvSyxo5YahyLBx98QCZPniS9evWW55573t4aP9bYwXHsYI0d8dY4YtC7c+cu2b9/v1pv1izb2IvkPXv2qj+o0LhxVugFuJmCoMCFhUVqHU9ekyaN1Xq8MNAKCnar9bp160rz5uY6GFhjC2vswC90YWGhWjdb4/JQjQvUeiJrHE/Qyxo7EjGOs7Kyov4DpYMALEFN0TBiCAPeGFQNfPGV4lGXDo467OU4dtR2HNcENT722M5qfcaMWXLaaacZCXpZYwfHscOvNcZxftU660RmK0PLaAJgr+ggF6FubT4cC9o4xhvTXbu8H8fZ2dnG3lCzxg7W2BJrjWMJellji5fjeOLEifLPfz4kPXr0lDlznmeNQ3isYI01r2q8b98+2bs3vhpHnKNXFwKQVJvi3u/+/eb2636MJh+vV/sF1thSeb/OYzcheDX25vFW3i9rrHk1jt2P3YRE1Dja/aKL99YHZleEvJcN6avmomXIGxs9h6+euxj1xPy9qG80OI4dXu2XNXZ4Vwv3fs3VIlE1Toe///gQKm/wqeqi5/fFZdzvL5Zfn3mSnP6zLtK146HqfnrOX32Jlr6/3gf2iQv2f/OwAerf0/Ps4oLAN5b9a97V2NmXyXHsHl/BPFaYe8yssSNoNXbvlzX2phZe1rjyuDBZY/d+valFUMZx5fEWrBoHZRy79xeE8Wbib1PEjl6kyGhvrl8/Qxo1amRvjR+6N4uKigTtzabSf0CRkXpj2ahRpuCroaagixWPGx2F+AqgKayxgzW2ODXerx6vNzVuoOpsSnU1jqejlzV2JGIco2u6pq+FuANeTtNgDk4oNHHavIruXoQYNc3dm5hxHLzjcTTjOFqocadOHdT6c8+9IL169TI2dYPXxwqMh6ysYNQ4qMfj4NXYy9du1dcYHcDoBIaclq5pHiIc4ziOHRzHlmDWuETVmTUW9XhLS6OrcSwdvRzHjlhqHIspU/6uLj//eS95/vkX7K3xs2qMr7zXSfsacxw7gvk3z/w4BnQLx1PjiB29KGx2dlO1Y5PwIJs2bWo0uAEUFfts2rSJ0cEGGAyoBQacSayxgzW2ODVu6mGNzR00gTV2BLnG1f1hwpv0ql28k0blCUNeM1BH3d0LOLHd5Bnzq/16dGLGcfCOx9WN41i592Xq6/ma18cK7N8kL2sc1ONx8Grs5Wu36mvs7tbFur5EwnHs4Di2BLPGDVhjG/7ucxwHs8b69U+9ehFjo1qxatyENQ7hOHZ4dzz2ssbmxzHEW2Ozv7FERJRS9JQCOuSdNDpPLjv3NLVOZo29/BwVorunckjWXJhEREREREQUPAx6iYgoLISN6OQFhI8IednF6y2E6GNHDKk4Oz3DXiIiIiIiIooWg14iIjpI1ZAX4SND3sRAne8fncewl4iIiIiIiGLCoJeIiCrRc/ICwkbMH8uQN7FQd3fYe+uUOQx7iYiIiIiIqFoMeomIqBKcCAx0yEvJ4Q57VfjOsJeIiIiIiIiqwaCXiIgqoJNXn3gN0zVQciHkvdQ+QRtC3sXLV9u3EBEREREREVXGoJeIiBQEvBUh7+XncLoGnxjQJ1f6n9JNrc+c/54sWr5KrRMRERERERG51SkpKTtgrxMRGTVgQH9Zs+ZLGTduvOTlDZe5c1+QMWNGS6dOR8qSJf+270V+oU/61b1Le5k0Ks/eSn4xevIsWbFmg+S0aCb3jRyqluStjh2tDzvmzn1JevToIRMmjJepUx8NHdsGhpaPqduIKLLvf/hRNn2fX7Gulj9uVkv4/gf3unU76P+n3eE5ann4YYeqpXb4YW2t5aHWEvR9evU8US2JKHjwPgHvFy688CK5//5J9lbn7/HSpe9Ju3ZHqHXy3kMPPSiTJt0vp5xyisye/Zy9lYj8jkEvEXmGQW9wzJr/nuoWBczLi6kCyF82b98lYybNUsvhg0+VvNCFvMWgl6hmOsz98JPP1PUPP/5MXXcHt4mG0BchMZY/P/lEhsBEAcGg118Y9BIFE4NeIvIMg95gQBcvunnhsiF95bJzT1Pr5D/TX3tXps9bqtan3XMtu3o9xqCXyOEOdNGJi+sffPRf+9bquTty2x1md+ke7t7mrB92qHW79sOPVnfvJldw/P33ru7fHyp3DFenauCrQ2AGwET+wKDXXxj0EgUTg14i8gyD3mDQ3bzo4kU3L/nb8DseVl29o4YPkrN7W3P3kjcY9FK6Q3j60qtvqC7dmkJdBKYIcXv1PEld79njROkVuiSSDnvxWBEQIxxGKPzBxzU/doS9CH5/df4geysRJRqDXn9h0EsUTDwZGxFRmlu0fLVa6hN+kb9179JBLRd/YD1vRESmICh96NGn5dKrbpJjup8uZw66RB565OmKkFcFoj1OlJuuu0JdZjz5oCxZ8JysXfGOWuL6Db8boS6JDnkBjw8XhLV4DH+953b1mNyPD9twu/vxqUD7lQVy210T1M+sfu5QHaLtWCYiIiLyCwa9RERpDNM24AL9++SqJfmbDuRXrttY8dwREdUWAk6EmuGCXUBw6g51q4a5uD0eCFn1BZ234S769njokBohb9UAGNd18Kv/LdQBgTdqggAYdYr3MRARERF5jVM3EJFnOHWD/3HahmDi9A2JwakbKFUhsMSUDAgzq0Ig+uvzB6m5cmszjQH2jXlzP/rYCos/+OhTtYxlLt1oVA2YMW0E5v3F9AuA9Vi7it2PHY8bIbObCot7nii/PHcQ5/Ul8gCnbvAXTt1AFEwMeonIMwx6/e/WB2arzlCehC1YJj7zury5bKUKeRH2kjcY9FKqQZD50KPTVHeqGwJRzK37y/MGRNWhi/3oeXABoSgCUpMhrsl96RAYJ31DgB1tCKx/zg8/QfBrdRZr2O+vzh8oN/7ut/YWIooXg15/YdBLFEwMeonIMwx6/W/QDX9Ty3QPeouKiuTjjz+W004LRg0Q8iLszWnRTKbdc629lUxj0EupAOEkundfeuWNg4JKdO5iCoaa4P97+dU31fqDjzylljXRAas+ORsCVkDIquF2DfePxP24dWcw4ERrGsJYiObka+B+fNGcOA6PAWHvy68uqLR/Hfj+/OSfscuXKE4Mev2FQS9RMDHoJSLPMOj1Px30ThqdJ92PsV5EB9G3334rrVq1kqZNm9pbojdhwoTQmOwk//nPf+Tee+9V+/G7FWs3yOhJs9T6gn/8QS3JPAa9FGQ64K06PQOCyRt/N6LaaRmiCXZ1MItwM9ZO2UTQ4bCebxhBMELgSJ3HsQS/uj5Va6OndajNlBdExKDXbxj0EgVTtSdjKy0tlf3799vXzCktLZPy8nL7mjllZeVq36ahBqiFF1hjC2vsYI0drLHDixq7T+SV07KZvRYsCHhnzZolDz/8sEybNs3eGpuePXtK9+7d5ZFHHglEyAvu58v0Cdl4rPAea+zg8diBOqAe8UIIqU8ipkPeww9rq06ohhOP4RIuiESXKk46pk/KhhDTHWQiCMU+9H7een22LHx1pjqRGbqCsU9TIa+JGuPx4oLHhQse51OPTpZFrz1bcQI292NG3VAD/MyXXmnVD8t/PHrw3xbsFz+z3o+eFxihMmqoav/owfMfxyqdx3FVPFY4vKoxjvGssYU1ruyAB62BrLGD49jCGjvirXHEoLegYLfs3r1Hdu0qCBXE3G92YWFRaL+71X5LSsw9iSUlJaHHXKD2ja/gmoLBgMeKWuBiEmtsSVyNzf1iJ6LG+DdMqVzj3fZWM1hjSxBrXFRUbK+JOhlbEKGD96uvvpK//OUvct1119lbY3PmmWfK7NmzZfr06fYW/3M/X+7nMV48VjhwrNCKi/fZa/HzssbYX9BqHLTjsdc1Rj1qW2MElQgXETLqLlYEvFePGCYvzpoqV1x2iQoo3fD/IMhEuItQ0z13rzvYXbviHRVqItzE5dC2OYGucetWrSrC3xlPPlhj8IuaIsCtOiUEajRkUD958P675eXZj8t55/RX29Vz8Ujl5yJWwR/HzjE0Xvid8PpYgb9RJgWxxlYteDwOco1Nj2P985eVlbHGHMdKEMdxOtY4bNB74MAB9cus18vLzaX17oTe5H7dKbrJTxeQpKMGYPLTBdbYkbgam/ukpazM+xrrx25C5Rqb2y9r7KhaY70eLy9rvHnbT/ZasCxatKiiJujA/b//+z9p2LChZGRkqG3FxcUyatSoaj+QQi2feuopWb9+vSxcuFBOOukktd8tW7bY9wiOzdt22mvxC+I4dv8em/yddh8rTD5eL2usj+9BrLHJ/aZjjXXA63TwHqoCzNdffEauvHyo2qb3q8Nd3B8Xd9cuQs5wwW5VqVZj1Ktq8IslagGoGUJw3emL+unQV+/r0LZt5K7bblb/r/v/Q3c1QmKsxyL4Nfb/MchdY+yXNbZ4VWOOY+9rjP2arHF5uROKBaHG7veM7veS8eI4diSixqbHcTrWOGzQW6dOHfWmGerXr68upmRmWvutW7euNGjQQK2bgH1hn6Afuwn42XV4oB+7Cayxw/r5g1VjvV/WmDXWqtYYtTHByxof1qalvSayebvZr/97qVGjRhXH5XBwW+PGjWXbtm3qOv6ov//++3L55ZfLmjVr1DbUFfPyYvuGDRtk48aNkpWVJR988IG63e/cz9dhbVrYa/HzchzrYw/2b/ZYYR0f8Hut101wH3caNIg83mKVmBqbPh57U2Psyzkem9tvOo1jdItWDXgRViJsRGjrrvH2HTsqphVAuKuDR925i3AX4Wa4YLeqVK8xaoL6oRa629fd6eue3mH+m29XGsf4f/X/p/8fhMTDrxwZ03QO6TSOa4J9uWtsCmvs8LbG1s/PGgdvHGdk1FPrdevW8azGwXmfZ/382G/QxjFr7FWNrf36scbVnowNb45NFTjovKoFa+xgjb2X6Bqn48nYgjSOMbfriLumqvWZ468PzPQNTzzxhIwYMaLasPfTTz+V7OxsOfroo+WTTz6RqVOnyg033CALFiyQsWPHqj+e6Pz95z//KcOGDZM5c+aobdgn7ud3CHqH3/GwWvfiZGxBGsde8vJkbKyx91K9xggN3SdaQ1gbLqRF9+mLryyo1FGKMPLX5w+SX543QK3XVrqNY9QQJ2H74KNPK03joOsZrv4IeR8KPQfuYH3mk1Oirnu61TgZWGPvRVuLWE/Gxho7vKgFT8ZWGY8V3mONzbBi4gg42Bxe1YI1drDG3mONvRekGue0cJ3QK0AdvZiT949//KN88cUXkp+fH/aCr9L8+OOPsnjxYrn33ntVqIuv6mzevFm+/vprdR90/GK6mHr16kleXp4MHjxYtm/frl4I+J3XzxePFd5jjb2XqjVGYOju4kXXKLpHq4aMenqGqt27uuMX948n5IV0G8eoF+qmp3fAdA+A+uq5fFF3N9wHwa57OodYunvTrcbJwBp7jzX2HmvhPY5j77HGZlQb9BIRUWrTYa/JeV69ds8990hubq7cddddcuWVV4a93H333XLffffJo48+qkLcCy+8UP72t7/J2rVr5ZZbblH3+d3vfidLly6t+H8wr29QrFizXi3dYT0RpT49VYMObhEeInR0B7boNK0a8OJ+CCbd4STFxx2au0PccIGvDohxX6zjfgjqY5nKgYiIiCgaDHqJiNJY7jHWV+FWrtuolkGAeYsQ3r7wwgsyb968sJfXX39dLefOnSsXXXSRnHfeeTJ79uyK7ZEuOLFbED7xXbFug1qe3fsEtSSi1IdQECf2AoSFVefTRXiIOXgxd2zVgNdE9y6F5w5xwwW+Vad4cHf3IuzVzykRERGRCQx6iYjSWLej26nlm8tWqmU6wNQPOCkbOnpXrVplbw2WFWusoJeI0gPCwKpTNegTfQHmgUWoiCW4p3NgwJsYkQLf2+6cELa7V99Hd2kTERERmcCgl4gojemOXlixNj3CQ0zXgJOvYbqG9u2dnz8ocCI2LW/wqfYaEaUqdOkiDARMu4BOXjd08OI+gBAR0wlUnc6BEscd+CJwd3f36k5rwH3wXAG2M+wlIiIiExj0EhGlMczxmtvZOnvxwveD2d0aqxEjRqgpGnr27CnNmgVvjtsZ85aqJefnJUp9CHB1ly5CXh0MAsJBhLx6agDcjnCRc/D6AwJfBO7u7l6chM3d3et+Thn2EhERkQkMeomI0ly/XtY8r5i+wd0tSv6D50dPs5E3uI9aElFqQhdvpJBXn3BNh7y4zX07+Yfu7kXwizAX3b3Vhb26O5uIiIioNhj0EhGlubN7d6voDl2YRnP1BpG7mxfPGxGlJtWta5+kC1//rxryopMXdNcou3j9Dc8TTsKm51WuLuxFuK8DfiIiIqJYMeglIiI5u7fV1Tt93lJ29foU5lBmNy9RenDPueuek7dqyOsOD8nf8Hz99d7bK6ZyCBf26sD+odB2hP1ERImyadPGgy4FBQXqtn379oW9HRci8h8GvUREpE7qpbt6x0yaxbDXhyZOm6eW7OYlSm3o5tQnX0Mw6HbbnU4ArKcDoODA8/XL8wZUBLov4rm2p9+AG383Qt2HUzgQUSKNGTNa+vY99aDL448/pm7/9NNPw94+dOhQhr1EPsSgl4iIlFGXDlYhIkJeTuHgLxOfeb0ifL9v5FC1JKLUhG5OQBjo7tZFJ6/u8qwaAFNwIMhFoIvnVgW6dngPuE0/twj7deBPROSleEGRh6AAANE6SURBVMLadu2skzoTkX8w6CUiIiW38xGVpnCY/tq7ap2SC9M16Ckbhrs6r4ko9aCbV4e5CAM11eVrd35iKgdO1xBs7kC3avcunlv9/P5j6lNqSUTkpfvvn1SrwBb/HxH5D4NeIiKqgCkcECYC5+tNPszLi25ewHQNeH6IKHW5u3kRBmqRunwpuFTYa5+ATXXvuqZwuMGex5ddvUSUCAh5L7zwQvtadHr37q0uROQ/DHqJiKgS93y9w+94uKKblBILIe/oSbPUOp6PUcN5Vn2iVFZdN2+47anuwIED8tVXX8n3339vb0k9vXpa3bt4fl9+dYG9tXJX74effKaWREReGjnylqi7enG/OXOet68Rkd8w6CUiooNgHlgd9qKjlGFvYlUNeafdc61aJ6LU9f2Pm9USnZ7ubl4dAFbt8k1VOLv7J598LLfcMlImTbpftm/fbt+SevB8urt33Xr1PEktP/yYQS8RJcacOXOiCns5ZQORvzHoJSKigyBcZNibHJgbWYe8mDeZIS9RetCBHro83fRX+n95Xup39W/cuFFuvPEGmTlzhlx//e/lvPPOk6KiQvvW1NTusBy1RFeve/qGnnZH76bv89WSiMhr0UzhwCkbiPyPQS8REYUVLuxFCMl5e70zevIsNTcyIOS97+Zhap2IUp/u6Pz5yU7Qi2kbtHSYm/f77zfJmDFjpW7dunLnnX+U7777Trp2Pc6+1TFnzmwpKiqyrwUbunr1c/uRK+itFABznl4iSpDqpnDglA1EwVBt0Iu5scjiVS1YYwdr7D3W2HupVmM9bQBOBAYIISc+M49hr2GoJ0LeFWs2qOvJDnl5rPAea+y9oNbY3dH7w49WN6dfQ17TtejatavMnj1Lhg37jUyfPlOuu+56yc7OVreVlZXJH/94uzz11JPyzTdfy+bN1lQXqUBP0/DBR5+qJVSdwsM0HiscQT1WBAlr7D2TtYg0hUOsJ2xLNRzH3mONzahTUlIW9ifeu7dQzZFVv359adq0ib01ftgn9o1P6rHfevXq2bfEBy/+9uzZK/v375fGjbOkYcOG9i3xKyjYrfafmdlQsrKy7K3xC16Ny0M13mPXuHGoxg3sW+LHGluCXeOMUC2a2lstAwb0lzVrvpRx48ZLXt5wmTv3BRkzZrR06nSkLFnyb/te4bHGjupqHI9Yazxr/nuyaPlqyd9hhbxjLz9HunfpIG1bWh2/VDvoktZdvICAF0FvdSqPY7N/83bv3i2lpak7jqOFGh99dCe1Pnv2HDnllD4yYcJ4mTr10dCxbWBo+Zi6rTa8qnFhYaEUFwerxhzHlm++XS8DL7hUrS+eN1vaH3G4Wr/trgmqqxfz8/71ntvVtlgErcZvvbVYnntujlxxxVVy/PHHH1Tj/PzN6mc59NDD7C3R82ocl5eXh2oRX43xHOO5RrC7ZMFz9laR34z4vXz82Sq550+jZehF59tb45eIY0WTJk0kI8M/NY5Ej2PsE/s2Rdc4IyNDsrNZ42hrjPcJeL9w4YUXVZoHtmPH9mq5dOl7FQGkX2q8evXq0GWVfS0yBE0lJSVqifempo5BgP3iucM+sW8TFi9eFLostq+JHHnkUXLNNdfY1+KD8VZaWip16tQJPd4GoVrXsW+JT21q3KZNGznhhBNCS+tbFJHwWGHh8djh5xqHDXrxi/HTTzvta6JeDJk6YBQUFKgXndCoUWbo0kitx6uwsCj05BWrdZNPIA5AKLLWosUh9lp8WGNHEGu8a1eB+gUE1jhyjeMJeoM+jg85pLl68RKvRB0rMjMzQ2/Ua67xynUbZfKM+RVhb/cu7WXs5UMY9tYCunjRHa27eNE9PerSwTWGvMBx7KjNOI4GanzccV3U+jPPzJQzzjjdSNAbzBpbH2KB6RpzHFuW/GeZXHvTbWr9v++/WVHjeINev9YYv7f4sLXqm/DPP/9c/vrX8erN09VXXyunn366NGhw8AeyL7/8kvTrd3boOYj+5/HzOA4X9KLGl155s3y6YrVcNWKojB15HY8VIfybl9o1jjbo9UuNt2zJl2uvNRN++tHKlSvVe14EWd27d7e3pp4bb7xJfvGLs+xrB+OxwlH5WFEvdKywvnUTL9bYgampioriq3HEjl79oFHc5s2bGSkyuAcGUu8GDcwUGZ/coKMXTIZCSNER6mGAYEBgYJiia4xPsJo186bGJgdy0Gucnd1MLU3gOHa4jxUYx+4axxP0ssYO/emmVeNs9WLLhHhqPHnmAlmxdoNssQPfAX1y5dIhfRn4RgEB74x5Syud3G744FMlL3SJlnscm3xhkW7juDqo8THHHK3WZ86cLX37nmok6K1cY7PddMGrcWloHFsv6r0bx8Go8VdffyuDf3W5Wl/90VsVNY436E1MjWM7VuD/+de/Xpbzzjs/bLfVjz/+KJ988olMm/aU3HLLaOnTp4+qt9uECeOkZ8+fq7A3Wn4ex+GCXtT4zEGXyI+b8+XPd9wiv7nkl2q7CTxWWHg8dvilxrF09Camxo1DNY787T930JuTk6O6Q1MJ5kn/6KOPpH379tKrVy97a+rYsmWL5Ofn1xj0enus2BMax1Z3c7LGcSyCeTz2psbuQNZvNY4Y9AKKUa9eRqgQZsIxDQdk7NPk1xUAnzZhYOBTSJMw6LBvvJA1zapxPWODTWONHayxJRk1jifoBdbY4cdxXLW7Fxj4RhYu4I2li7cqjmOHV8cK/cZy7tyXpEePHsambmCNHRzHFpxwC6EeIOjTc7P+49Fp8uAjT6k5emc8+aDaFivUYf9+642TSbWtMT5EeeWVf8lFF11sbzkY3pyOHz9O1q//TsaOvVV9rdbtm2++kY8++lAuuWSovSU6Xo7jeGoc6Xk+c9DFobGxWYX8CPtNCuKxwk/jOBpe1Vg3WKRijWMJeiHZNXYHvU8++aQKeyk4rrzyyqiCXuCxwsHjscOvNa72p0SB8YfaNDxY04UA7NP0GwXAYPBisIFVY7ODDVhjB2tsYY0drLEjnhojnMSJ2kYNH6QCS0CIOfyOh2XiM6/zhG02a4qG11VddMirAt5Q3VC/2oS8wHHs8OpY4RXW2MFxbHGfdGvTD9YJ2KCnfRI297ZYocZ4/kyrbY3xhujf//63fPrpJ+oNUlXo0nvttddUYDJu3AR5+ukn5csvv7RvtbRu3bpW/7aX4zieGm/64Ue1PPzwyidfQ8gL7vFhShCPFX4ax9HwqsY4ZrLGlqDVmIKL49jBY4XDrzU2/5MSEVFaObt3Nwa+YdQU8KJuRERar55WqPvRx/9VS2h3mNUdho7fD1zbgwxvinDm9qeeekqGDr1YfvnL8ytdfv/762T79m1y9dXXSLt27dQ3gu6/f6JccMF5Ffe57LLhgpOrpIoPPrKe25+fbI0BwHQOWrvD2SVIRERE0al26gYionjEO3UDBdOi5atk1vxllaZ0wEnbLhtymuS0bJby0zog1MW0FjrcBQS8eYP7MNwNGK+mbiAK56FHn5aHHnn6oK/vX3rlTSrkvem6K+SG342wt1Kq0PPzQrhpO2o7PzNREMU6dUOyRZq6AdMB3HHHHWqd/OOss86S3/zmN/a12KZuIAoSdvQSEZFR4Tp8V6zZIKMnzVLdraMnz1InckulTl+Euuje7XftBLVkBy8RxernJ/9MLatO0/DL86y5WV90dXhS6nj5Vet5RaDrnqKBzzdRcL311lsqQOTFX5dVq1bZzxBRamNHLxF5hh29BOhunTV/qeRvL6jU5Qvo9O3fu1to2SFwnb4IcxcuX6VC7KoQ6nY7uh3D3YBjRy8lkvuEbO6Tb7m3s7sztaBTGx3bgC5udHNDpe1PhLbb03oQpbpU6eh99tln1aVbt26VOkgpORDw6udjwgTrGxTAjl5KVQx6icgzDHqpqppC3+6d21vTO7Rq7qtpHlQH8rad6vGvWLM+bDcyw93Uw6CXEg1f4cdX+dHZia/xa/rr/dj+13tvrwgEKdj0tByRputAwIuglyhdpFrQ269fPxk5cqTaRsmzePFimTJlCoNeShucuoGIiBImt/MRct/Nw9RUBlgiFHVP7zB93lI19YF7mgdcpr/2bkKme8D+0amLf0+fSA3TMeDx6CkZ3I8Bjx8/x4J//EFN0cCQl4jicaM9By+6eN0n40LghzAQ22+703mTSsGlw1y44bor1BKwrWL7tc52IiIiomiwo5eIPMOOXooWOmVXrdsQWm4I2+1ble70zWnldPy2bdlcLXNaZFtLVzdwvh3O5u8oUEvYvH2n5G9z/p2aQmQE0rnHtFf779a5vQqt/UrXD7W0ljvVMkfXqKVVI9BBOx2MHb2UDO6u3plPTqmYt9U9hUPVDlAKFn2iNXBP2QDs5qV0xo5e8gI7eindMOglIs8w6KV4IPxFQLllR0HUAbApujMXUzFY4a5/wtBFy1epmiC0Rn10mAvx1Ef/jDoEzu3cXgXagG3pGAgz6KVkQKA7/MqRalk10NVTOADn6w0md8hb9TmsFABzbl5KQwx6yQsMeindMOglIs8w6CXTEGRW7VJF6Am6W1dvB9xXB5e6mxV0128bewm43U+Bpg66V321SVautU74Vtsg1z3XcW2nv9AdzDoATofwl0EvJcsHH/1XLr3KOhnXTdddITfYUzqAOwysOpcv+Zvu1oaqIT66ePUJ2G687rdy4+9+q9aJ0gmDXvICg15KNwx6icgzDHqJoodgd/EHq1WoW1OgixPXYaoKBNZ6igqcwA7cU1ZUdzI7HfjqaS0AJ5wDbFuBLuptu2oMhhEA5w3um5LBL4NeSqaHHn1aHnrkaRXm/vr8QdWGve4pHsh/9NzKeu7dqiFvpWk5OGUDpTEGveQFBr2UbngyNiIioiTBNAyTZy6QEXdNlVsfmK2uu0NeBLUD+uTKZUP6ytjLz5GZ46+XxVNvl0mj8tT1y849Td2OS/dj2qsL/h99qY6+j/7/cNH7wn7xb1T8e6Pz1GPAxQqZnX0joMZjj/QzEFHt/Oq8gSr0Qwj44isLVLirIfTVX/nXUz24byf/QLiLEFeHvOjQjhTyIqxnyEtERETxYNBLRESUQO5wF0t3MIoQ1R3oYukOdGsKb72CEBiPwR0A44IA2B38IvStLrgmough9EOYGynsxfyumLYB98Pt6PDF1ABYJ3/A86WnY1Ah7pMPVurMrhrycs5lIiIiiheDXiIiogSYNf+9sOEuAlwd7iJETWagGwvdDayD35pCX1wnothUDXsR5rrDXtyOaRvQJQqY/5XdvcmH7t1jup9+0PQamLJB052+mn6eiYiIiOLBoJeIiMhDCHgH3fA3mRlahgt3sQxKuFudqqGv+2fS0zsw8CWKnQ570cELunNXw+3oEkW3KNZ1IIwQkYFvYqH26OB1d/EihNed19pBnb5PPMiQl4iIiIxg0EtEROQBd8CrYY7bVAp3I0HoW9GlbHf6AgNfotpBGHjj70bIjdf9Vl1H5y6CXPc0DegWdXf3MvBNHB3wotZ6Ll49tUbVqRpwP93pi3AX92HIS0RERKYw6CUiIjIoUsCLOXcxx22qhruR6E5fBr5E8bHC3t9WhL0IDatO04D7IFhEeBgp8MV1ih/qiHqiru6AV3XoPvngQfPt6qka3EEwT7xGREREpjHoJSIiMqCmgDfd1RT48qRtRNFB2Fv1JGzuABGqC3wRDqOrFF3BFDt3wIt66uBcB7yqQ9c1Fy9uR72rTtXAE68RERGRFyIGvfv27ZOCgt1SWFhkbzGjrKxM7XfPnr1y4IC90YADoZ1hn7t371b/hkmoAR4zamISa+zwtsYFntQYdbBqbK7IHMeOyuOYNfaqxhzHFqvGtTtW6LCSAW90IgW+OGkbwvJYA18vx7FWXl5ur5nBY4Ul2mMFxgQuGCe46OvVjRU/HiuqE2uNERZimgZ3dy+CRMzdq4NHOOzQtjJi+EXy2gtPyQ3XjqgIhxEK474IK7F0h8TRSqdxjJq5u3f11AuoJ4L3eXOnyavPPyEnn3iC2g7u/0fXN9apGtKpxtWJ9lhRG1aNC1hjz2vMcUzBxmOFRR8r8Jh5rPBvjeuUlJQd9IjwGH/66Sf7mkh2dlPJyMiwr8XH/WAbNWoUumSq9XgVFRWFLsVqvX79+tK0aRO1Hq/S0tLQk7dHrdepU0cOOaS5Wjdhxw7WGCrXWEI1PkStm8AaW9w1hhYtElPjAQP6y5o1X8q4ceMlL2+4zJ37gowZM1o6dTpSliz5t32v8FhjB8expbTU+mOq+aHGk2cukEXLV9nXrICX4W5sVqzdIBOnzZPN263QLrfzEZI3uK9aRsPLcdy1axe1Pn36TDn99NNlwoTxMnXqo6Fj28DQ8jF1W6wSNY6bNm0a+v0zc6zA48XjBlM1Rkj78eqvVXALdevWkR0FeyV/e4G6DtUFuVXltLCmRMlpma1eIJeVlUvrQ7KldfPG8vPcLmq7vk88ElPjTFXnaCFQVGHtR87UAb8+f5Dq6K18PM6QgtDfqU0/5MvLry44qKNX/389e5xYqSM1nOCP45prjLq+/OqboXr9GLFW4WqMx4yAV4fBgPujgzeWuXjTocbRQn1RZ9A1NoE1dvilxnifgPcLF154kdx//yR7q0jHjtYHw0uXvift2lmvD/xQ4y1b8uXaa69R608++aTk5OSo9WeffVZd+vXrJyNHjlTbKHkWL14sU6ZMkW7duoVey02wt4pceeWVkp+fLzfeeJP84hdn2VsPhteZeL2pBeNYsSc0jkvVulfHCrxfwvsmExJX4yahGte3r8XHzzUO29GLsK1uXecmBJymuPeLF/Wm1KnjzeP1ar/AGlsq79dZN4E1trj3637sJiSixt6NN9ZYC0aNnX0lu8YIoNDFq0NedKaiQ5Uhb+zQ4YuTtiEkx/zFukM62u7eoI1j998ML8exn/424fcEF3wwgs5tTHGC5T+eXyzvfLZGXf79yZdRd+uGo/8f7GPVV5vki+9+VPt9ccmnajzh38NFjy33vxWLxNQ4tnGBEFFPBYB1BJR6OoepT86SHzdvUffDfnE7QlzcF52lKny0Q139/6EzWHf6IuAM1+0b/HF88GPGz4+fFSGtrgHqoUNe1A7TYKBuuOiTrOl9oc6PPz374I7f66ypNmI94Voq1ri23Mcdk/tljR1BqfGmTd/ba8GrMQWX+/fDy2OFydebXv1Oe1WLxNXYm8fstxqH7egFdEKUlJSoBLlBAzOJN6DLorh4n3rwmZkN7a1mYL/YP9J0k1AH1KNhwwZSr149e2v8glzjzMzM0P7tjQYEs8bF6heaNY5c43g6eoNZ49JQPcp4rAhxatxQ7d8Ur2qMr+bv2xddjXUQqY29/BwZ0CfXvkbxQHfv9Hnvyoo1G9R1dPWOunRwtZ2YXh4rdAfRCy+8KD179jTS0QteHY9jGcexiLXGCHURtq4MPZ81Ban6dyenRba1dJ2ssG2r5pWvu9Z1B3i+vYTN23ZWur5iXejf32Zd1/cPB+Mst3N76Ra61NRJ7m2N4z8eI6x86dU35KVX3lDrgOkbep6cKxf+8hzp1eNnaltVuC+6V91dqG4qIO55ovz85BPl8MOtsNgPx+NYVK2xCnY/+q/88GN+aPlpxOkrEO5W1+WM/bzw0uvy8OPT7S0WBLyY1iEe3te4XqjGDeyt8TM1jsMJ7usK1jiWGkfq6O3b91TZtGmj2obbwA81ZkdvMMTb0QtB/5tnktfHCvw+4/faFO9qjFrg9bFXNd4f2i/yithrHDHoJSKKVzxBL5EfoRNQz8WL0GnsiCGCjlQya/pr78r0eUvVOkLe+0YONfK1+1jpoHfu3JekR48exoLeVIRwd/EHq9UHIeGg671ty+YVQWr3Lh0qBbdew4cIarlmfUUAHC78xePLCT3Ofr1OMDbdQzKEC3wBga2eciASHYB++Ml/D5qyQNPBL+jwt91hOWq73+DnwXQV33//owp1MRUDfj53XTQ8fvwcvXqeVOMUFuj8fTFUn6r1/dX5A+VX5w30ZS2I/K6moLfq9mRj0BsMJoJeoiBh0EtEnmHQS6kEXbw6xFJTNYzKU+vkjTeXrZQZ85aqMC5ZYS+D3upVF+6iUxehaaID3VghANbhr+4kdzu7d7fAh74INV9+rfKcvDqo/eV5g6oNMyGa4NdNh6UIfxECq212EKzWDQag7pAVYe5HdlcuOnTVMkKXrqYfazTBLuDfC9f5jP0g4I23g5co3UUKevX23r17y5w5z9tbk49BbzAw6KV0w6CXiDzDoJdShTvkRYA19vJz1Dp5q+qJ2qbdc21CwzYGvQdDuDtr/rKwUzLgd6P/Kd0C2+XuDn3Ddfwi9M0b3CfwXb4PPfK0vcWCkPLG342omJKhJu7gF12yUFOgGknV0LciDA49Fr1vQIgL7mA3Vu5QF6IJdkGHu+FOyobpGdi9S2TOlCl/V5eqga5+D4ETsc2ZM6fihGzJxqA3GBj0Urph0EtEnmHQS6nAHfLihGE84VpiIWwbM2lWUsJeBr2OSAFv0MPd6qCrfGHo587fVhAafzvtrakR+OouXyzdEFjquXh/df4ge2t0sN+qUyRgvbYhcKx02Fo1zMX1WIJY/XOgO7jq1AyAfbF7l8gb+r0CfPed8y2L5cuXy9ChF6v1kSNvURc/SKWg97vvvgu97uloX0stDHop3TDoJSLPMOiloHPPyYsuXn3iKEosd9iLcC1R0zgw6A0f8OL34NIhfX09JYNp7qlEtKAHvoAQE12+H3782UGhL+jgN5opHmriDkx1hy64O3cREIdz2KFOp6+mu38hliA3HDw2dO1GOimbrkNtAnAiip476F269L1KnbvYjtuh6m3JkkpB75///Gdp06aNXH/99faW1MGgl9INg14i8gyDXgoydPGimxfYyZt87rAXc7+OunSw5wFbOge9DHjDS9XAFxB2VjcXL8JO1R1rz70b7VQPfoOf0z2fb9X5djXdufvzk3+mQl4iSgz9txdTN2AKBw0nYxs6dKha+mUKh1QKep9++mnV1Xv33XfbW6JXVFQk9913n9x0003SokULe6t/MOildFPXXhIREZEN4ZYOeXHiNYa8yYdwEVMEtG3VXIXwi5evtm8hkxDwjrhrqkyeuaAi5EXAO3P89aqrPZ1DXghXi3A1CyIr2Bwkf73ndlmy4Dl1wRy0OuRUQfDHVgh8210T5NIrb5Jjup8uZw66RK1jG27DJVHTNUSiH+s/Hp2mLnh8eJzux4uA1x3y4ufHzzvjiQdl7Yp3rJ//d87PT0SJocPbKVMmq6WG7RdeeKFaR9jbt++pofv8Xa1T/Lp06SJ9+vSxr8WmQYMGcvzxx0ujRo3sLUSUTOzoJSLPsKOXgkrPy4sgB6EO+cf0196V6fOWqnWv5+tNp45eBJSTZ8yvmI8a2MFbs3AdvqOGD1JdvqnE3e2rOmK/z1fLmri7gLV2oW2gp2OASFMyhJvioer0DpgLGPTt0YTMeFyAjl3gfLtE/qFPyAbh5uPFbXPnzq0IeBEAt2t3uPTufYq6WNsOV0uvbdu2Xf74x9vV+owZMwLd0fvNN9/I22+/LVdddZW9JXWwo5fSDYNeIvIMg14KIveUDZNG56XkSaaCbvgdD1dM4XDfzcPsrealS9DrnosaGPDGrmrgm6jpRZJJB716bl8dAoeb6zdZVNB8eI78vMfP1HVOw0AUDOjWrW6KBpycDR2/WPpBkyZN1OP82c+sY00Qg95t27bJ448/LrffbgXXsfjss89C7/fGSW5urtxxxx2SkZFh3+IPDHop3XDqBiIiIhd0NQKmbGDI609jRwxRS4TyCCmpdvQUJTrkRbCLDzc4RUPs9JQOWALGJqZzwLQOqQohKi6Y7kFP+eCe9gDr2IbpEPR9cEHQqi96H7hUx30/9/+v94l/Q1/w7+Lfdz8OdOxyGgai4EA4inBXT9GAZhH3FA2Yuxdz+OKCjl9crxoGJ1JJSYkcdthh9jX/2759u3z66af2NUvTpk2lTp069rXYfPXVV/Lggw/K6tWrZevWrfZWIkoWdvQSkWfY0UtB4+5sRGjDsMu/9BQOXnb1pnJHr7tzHXjCQXNWrN0gE6fNq+juHT74VOnX+4SU7u41SXcK1xT+ElFqqzpFA8LckSNHqXVMzVBdsOsOhb2kp27AHLVBOhkbOqHxusbdebt//34V1urHW1xcLJmZmWpdKysrU2HuM888I+vWrQs9B+3knnvuUc/TggULpGHDhqoj+OSTT7b/D39gRy+lGwa9ROQZBr0UNOjAQ5cjQy//Q5g2etIste7VXL2pGvRWDXk5RYk3Jj7zuprSAdJhKgciItMQSOK9Q6TgFuFvMiBwxr+9ZUu+XHvtNWpbkILehQsXSv/+/e1rjmnTpsmIESPUOh7/sGHDKrp89+zZI6NHj1avh4YPHy716tWTP/7xj3LssceqwBQw/QMC4FNOseZK9gsGvZRuOHUDERFRCAJefcb8/vbXr8m/EEzqjutZ85epJdVs8swFFSEvpidB5zpDXm9gCgx8aIRxqsL1KXMqjjFERFQzhKlLl76npmgINz0DguDkXN63H0HwILBFt244GzZskFtuuUVuuukmef755+Xaa69VQTVO0IZw98CBA/L555+reXj/8Ic/yMaNG2XJkiXq/8EF3b0Ie4koudjRS0SeYUcvBYmetgGhDMIv8j90S6JrErzo6k21jl6EvHrOWIS8k0blqXXylnsqB4zR+0YOZWcvEVEtIWgFdPlu2rRJrScSpiu48MKL1HoQO3p3794tDz/8sIwdO1bq1nX6/hDQ4oRq6PTF9vbt26sgt7y83L5HdLp27Rp6/dTRvuYP7OildMOgl4g8w6CXggRdjui647QNwdLvWusFO+bpxdfjTUqloJchb3Ix7CUiSj1BDHoxFy8CXXT2nnnmmWpqhq+//lreeecdGTp0qFxwwQX2PVMHg15KN5y6gYiIKAQhL3Tv0kEt/QQvygsLC+1r5Kanb8jfvlMt6WAIeHXIO6BPLkPeJMD0GGNHDFHjFdM3cBoHIiJKBnTr6hOmvfHGG/L666/Lzp07VQCaiiEvUTpi0EtERGnPHbj4cb7S9957T2bNsk48RpXpYH7VV4n/+mYQ4AMMdPMCOnkxbywlB44t94/Oqwh7Fy9fbd9CRESUOBkZGXLxxRerLtcHH3xQzbnbqVMn+1YiCjoGvURElPbytxeope4O9ZsjjjhCnSAjFugCxokxZs+2TrwVjQ8//DAp893FQ0/XwI7eg6nOUfvEaxjb7ORNPjwP/U/pptYxJzjmBiciIiIiMiVi0FtWVi6FhUVSUlJqbzEDZ2osKiqS4uJ99hZzsE/sG/+GSSUlJaoWsU5EXhPW2BHMGhezxiGsscP7GpfYW8ywasxjBfywZYe9lnx79+6Vm2++WXXxapjzrV69eva16OCreZgX7uyzz7a3RIZ52W699VZZu3atmsfM9POWCJu3efc1+OAdK6zjse4YRbiITlLyB8wBjrnAAWEvAnnvj8fFgRnH2J97HJvifY2D8zfP2xoH7bVbqaoFjp8mOTX24rUbawze1tibYwUFF8exg8cKi/c1rv1rt4hBLybnLi4uVksUxpS9ewvVA8Zcg/v2mSsIHiv2iX3j3zClrKwsVIO9av+7d++xt5rBGluCW+MiD2q8z6Mal7PGtmDXeK9nxwqTf6CCWOPv87epZU6r5Hf0ZmVlybXXXiu5ubn2FpH69eur7bHq0KGDtGrVyr5WGc66jK5fwInGBg0aJMOHD5cRI0YITswBW7ZsUUvA7yO+3od53PykbavmarnlpwLj41jDmDMlUcfjH7b+pEJEQAepX7vV0xXCXv2cTJ4xPwHH46LAHI+xPz2O0/lvHn72RNQYz6UpVo2t127BqbFTC5OcGu9ljQNZY/PHCgoujmMHjxUOr2qM7MOqce1fu0UMevWbPzCZ1Lv3u3+/uf26H6PJx1t5v85jN4E1tni1Xwhejb15vJX366ybwBpb3Pt1P3YTElFj78abyf06+zJdY5OPM14IWY877jhp2rSpuv7222+rP/iRHiNeBOzaFbmbdcmSJerFghv2he060EWI/P/+3/9T6xo6i8ePH1/x6XejRo3U/G1PPfWUuq5hX1u3bjX+nNSGyecxiOPYvb87HnpOLREmIlQk/8HJ2QDzKC/5+HO1Dt6NY3PjLVHj2Lu//yZr4c1+3T+7lzUO2nhjjYNV40QdK4JQYwquYI7jYP1OJ67G3jxmk/s18bcpYtDbuHGWmqS7UaNMtTQlK6uR1K+fIQ0aNFD7NiUzM1PtE11PJveL/WHfqEFWVmN7qxnBrbH1mE2pXONG9lYzOI4tlWsce1dgdRJRYzx2UxIxjlETk3SN9f5NqVzjhvbW+HlXY6cGjRubPR4f3qalveY/CGTXrFkjTZo0sbc4tm3bJnl5eTJ69OiIne/4fx955BH7mgWflBcUFFQEveGgxpj24fvvv7e3iJx77rly+OGHV/rq07PPPitXXnmlepzJsHmb1WHc5pCmxsex1rChuf1WHsfeHCveX/2t5O+w5p3mlA3+hZOzDehjde6/+991CTgem3uNlYhxjP3j3zEFP79TY69eV7DG3tS4IWtsC1qNdQ1YYwqyYI5ja39eHitMZjfe1rixq8b17a3x867GzuuK2tY4YtCLNzXZ2U2NHugBBUaXUpMmZt+k480q9tm0aRP1b5iE4qIWDRs2sLeYEdwaN/Wwxube3ADHsSPINa4mi4pZkMdxbQ/0kVSusbkiJ6bGZo/HGfYLq3wP53mtyTfffFNpqgTtzDPPVIFudna2YKobbfv27eosyQ888IAce+yx8tFHH9m3VDZs2DB136pdAjjxWmlp9fMzHnnkkapj2K1z584VHcQvv/yyfP311/Lwww/LzJkza9yfF/K3W4+lTp26xsexFuv8yDXx+lixZkO+uo5uXk7Z4G/6xGyrvtokhaX7A3o85t881tjCGjtYYwdrTKmA49gSzGNFg4DVWOKuccSgl4iIKF3ktLTmed28fZe6JMOKFSukZcuDO4vbt2+vQtqjjz5a7r//fpk6daoKVm+77Tb58ccf5e9//7vq0F2/fr39f1SGTuCq8/RiW69eveS3v/2tTJkyRe0z3OXVV1+V/Px8GTduXMW2BQsWyLRp02TixInyzDPPyOrVq2XGjBlqv6ZPchCLnJbZ9lp6w4m9Fi1fpdYvtU/4Rf6Frl4dxs+av0wtiYiIiIhqi0EvERGlvdzOR9hrTodoIiHIxdeKwnWO6i7ek046Sd0H8+1imoazzjpLBa2nnnqqNG/eXDp27KjuV9XGjRtl06ZN9jULPnX+zW9+I7fccov6ahD2Ge6C24444gg59NBDK7Zh+hd8uozb7rrrLrn77rtVQI3HZ/qT/WisWLdBLXM7t1fLdLd4+Wq1RHiopwUgf9OBPAJ6BPVERERERLXFoJeIiCgkp4XVVafnfE0kBL2YC7fqhPsIedFBi45cfI3pxhtvVOEsLkOHDpUWLVrIr3/9axk5cqQKfKvCVBA4oVqPHj0O+koRrp988sly/fXXV+wz3AWdxFdcccVB22+++WYV7nbt2lWuueYa9dhMf9UqGivWWEFvNwa9yko7+NZTApD/MZAnIiIiIlMY9BIREYXkHmMFhQvtr70nEkLX999/X02BgHluEfhizt0RI0bIunXrJDe35iAI/9+jjz6q5uNFQPz000+rABYnT8M8vanIPc2Guys7na1ct9FeoyDR0zesXGsF9UREREREtcGgl4iIKKRfrxPUEh2iiZ6nF0HvvffeKxs2bJALL7xQzj//fHnooYfUEh250ZwhFvdB5+3atWvl6quvVp3Av//979UJ26p286aKhctWqqXuxk537q/9X3buafaaP6GL/cEHH5SCggJ7S3rr3qWDWuKkbEREREREtcWgl4iIKAQdoTow1AFiIuXk5Midd94pr7zyirz22msyffp0ueiii9T8u9HCvLmnnHKK6uZ9/vnn5eyzz44qJA4ihPHT5y1V62f3tkL6dJe/3QpNdXeon6Bj3X2yPnz4UFxcLFu3brW3JM/y5cvls88+kxtuuEG2bdtmb00s3ZGevz3xU8cQERERUepg0EtERGTTgSECxER39VJs3N28eYMPnp84HfktJMQUJFOmTJEXX3xRZs+eLStWrLBvsXTr1k1NNWISTj5YVFRkX4vOokWL5Msvv1QfrGDe62TSYT0RERERUW0w6CUiIrL1631CUrt6KTrs5g1vyw5/hITo1IW6devKueeeK0cddZSapqFnz55qO2BO6datW1fcN1roCi4vL7evVYZ9Ilh+5JFH1NQQ0UInPeax7tWrl3rMydC2ldW5755+g4iIiIgoVgx6iYiIbAh52dXrfzPskJfdvOHltEre1A0IYdEdqyHkPfHEE+1rlq+++koee+wxtb537161jAbC2yeeeEKdqDAcTFPyt7/9TUaOHBnzvNQ4geHdd98thYWF9hYiIiIiouBh0EtEROSC4FB39U58Zh7DXp9ZsXaDvGl3W7Obt7I2LbLtteRZs2aNNGnSxL4WXvv27WXTpk3SuHHjSp23r7/+upo+4YILLpBbb71Vdu/ebd9iQXg7YMAAWbkycrd9vXr1VFcupnBA6Hv77bfLq6++at/q+Omnn+TPf/6zfP311+p6RkaG5ObmqsefDJu3WdNu6GMPEREREVFtMOglIiKqIm9wHxW4rFizgVM4+AhC99GTZql1nLyK3bzh5W9L3ocT6IxdtWqVfS08nDTw8MMPl4YNG1Y6Gds555wjzz33nIwfP16ysrLk6quvlk8//dS+1YIOYX1St/Xr18t///tfta79+OOPMmnSJHUyQty3S5cuan5gHehqCH87d+6sOov1VBCYumHDhg1qnYiIiIgoiBj0EhERVXF2726VpnCY/tq7ap2SCx3WgBD+vpuHqXVy5LS05nlFIJ6sTnSEp2+88YaMGzdO3nrrLfnPf/4T9oKTsKHzFwGse/u7776rwt/TTz9d2rZtK//3f/8nM2fOrHSfLVu2qOXChQtlwoQJ8uabb6rLPffcI3/605/k2GOPlR49ekirVq3ksMMOU1M67NxZ+UR16CjOzMxUU0fo/VbXKey1fPv5ymmZ/K5sIiIiIgquOiUlZdGfrYKIKAYDBvSXNWu+DL3hHy95ecNl7twXZMyY0dKp05GyZMm/7XsR+detD8yWles2qvWZ46+Xti35tepkGT15luqwBoS86Oj1WseO7dVy7tyXVHA4YcJ4mTr10dCxbWBoac0x6zeDbvibWiZzvGKe2+nTp8tnn30W8aRo6OZF5y7ugyC3Ng499FAVLCMcrunkazfffLMcf/zx9jVRnbt///vfVVdwy5YtK+b0vfjii6Vfv35qPZH0+B4++FR2qhMRBcSWLfly7bXXqPUnn3xScnJy1Pqzzz6rLvh7ctZZZ6ltlDz44Hnx4sXSrVs39QGxduWVV0p+fr7ceONN8otf8Hmi1MGgl4g8w6CXUsGIu6ZWnAl/7OXnyIA+uWqdEscd8o4aPkh1XCdCEINePV45VmuGjuCPP/5YzeMb68nbTOt3rfXGM5Hjm4iI4lNT0Ev+wqCX0gWnbiAiIqrGfSOHuk7O9nrFicAoMZIV8gZV7jFWOK070VPF2rVr5YMPPpDLL79cTQ0RK5zYDd3DmI/3hx9+kL/85S/yxBNPqHmAkx3yuqfZ4PgmIgo+dPEi9OXFXxd2V1O6YEcvEXmGHb2UKtAheeuUORWdvZcN6SuXnXuaWidvIPzCnLyJnq7BLYgdvYuWr5LJMxeo9VSabuTtt99WlyuuuEKaN28uLVq0sG+J3rp169Q0EQh827VrJ9dee610797dvjV5MAc45gLHB0rT7rnW3kpERH4XqaOXgoEdvZSq2NFLRERUA3XyL1dnL0IZdPcm64RXqW7F2g0y/I6HkxryBhU6QvU4XZhC3ee/+MUvVBfukUceWauQFzCf79133y2vvvqqPPzww74IeXEMwfEE9AkgiYiIiIhqq9qgt7S0VPbv329fM6e0tEx9dc60srJytW/TUAPUwgussYU1drDGDtbYwRpbkllj3W2nv1qNKRzQccqw1yx0N46eNEutq4A9ipDXq3HsFa/Hcb9e1knHFr6/iuPT53QYj7F+8dm9PBnH2Cf/5lm8Olawxg7W2OFljfE6yzTW2OFVjaPx4Ycfqgv5C8exg8cKh19rHHHqhoKC3aEHXKbmLWvWrJnUrWtm/rLCwiIpLi5W602aNJEGDeqr9XiVlJTInj171XqjRpmhSyO1Hi8Mhl27CtTZnOvXry9Nmzaxb4kfa2xhjR3Br3F2qMbO50fxTN3AGjuqq3E8ElHjzMxMycryosYZoRo3tW+JX6w1njX/PVm0fHWlqRz698lNma/JJwO6eKfPe7eiixfhLkLemng5jo855mi1PnPmbOnb91QjUzd4OY4xDy1eFG7btUfGP/16aHwWcJoRH0MIj851uOTsn8t5p1kdxul+PNbjODh/80pDNd6j1llj1lhLTI0bh2rcQK3HizV2xFJj99QNONFXvPBvHXfccWr9v//9r1qSd1atWqWWNU3d4B7HGRkZkp3NYwV4dawwX+M9oRqXplWNwwa9KO5PP+20r0nogNwkdGA284e6oKAg9GbaSrxNhizuIpscGBgQGBhaixaH2GvxYY0drLEj1WocT9Ab9Bofckhz9cckXokaxyb/UKdLjXGyq8kz5leEvd27tJfLhpwm3e2TYVH09Byl2vDBp0pe6BINHdKD6XF83HFd1Pozz8yUM8443UjQm6hxPO+9VTL7zeVqPZXm6k0l7rl5HxzzG8/GMf/mWbw8VrDGFtbYwho70qHGCHoR+JqAKYVyc3NVyPPyyy/bW8lr9947Tk44IfL0STxWOCofK+qFjhXZaj1erLGjqKgodImvxhE7evfuLZR9+/apIqAYpmCf2DdSdOy3Xr169i3xQViBAyI+CWjcuLE0bGgmTQf9BGZmNgw9eVn21vixxg79SRZr7K5xVqjGDe1b4peMGscT9LLGjsLCwtAfVI5j8L7GsXebVO3uZeAbvaoBL7p48wb3jWk+Xi/H8dFHd1Lrs2fPkVNO6WPsZGyJGscj7pqqxiW7ev3H3c2LDzYuPKuHJ+MYX/3DG6d0OR5Xx6tjBWvsYI0drLED+0WIE8QaozMdQUt1Vq9eHbpYnaHVQeCEb1lgidf04Z473QWP56O8PPqvmWO/eO7wWDMyzIRYUFZWql4PoRamuhUBPx/GBD5UQC1QExOiqXFVbdq0iepEbMEbxyWhcbw36nEcrUQcK7BP7NsUXWOTH2KBn2scMegF/IKYSNFTgVe1YI0drLH3El3jeILeoOI49p4fa4zu3lnzl6qlxsA3sqoBL8TSxZsoHTtaz93cuS9Jjx49jAW9kIhxjA8hZoYuwLDXP9whr577O6j8eDxONayx91hj77HGNSss3CtvvLFArf/qVxeqZSyCWOOXXpqrlgMHDpKsrMZq3c84jr3HGptR7eQUHGwOr2rBGjtYY++xxt5jjb3nxxrr+WTdJw7DXLM4qdjoybPU/LNkBbz9rp1w0DQNC/7xB9+FvF5LxDhGTVFfQM05Dv0BJ3EEdbLBkUPVelD58Xicalhj77HG3mONa7Z+/XdqWdvAM4g11j/rF198oZZ+x3HsPdbYDDOzEBMRERED3wgY8CYP6otAETAO0U1KyTPxmdcrTjg46tLBFc8NERGlNx12duiQPt8E69q1q1oi5EZHMxGZwaCXiIjIsJoCXwSfqR64vblspQq1GPAmH7pGdaCIKQMY9iYHfvfxewH4PdDHBiIiSm/ukLNr1+PttdTXoUPHiq5e3dFMRPFj0EtEROSRSIEvgk8Ebjr0TZVOX3e4i6UOtYABb/LoKQIY9iaP6ui3O3nP7t2NvwdERFQh3mkbgkx3MKOjmV29RGYw6CUiIvKYO/BF4KkDNx36ujt9gxb6IszFYw8X7iLQGjV8EANeHwgX9rqfK/JO1ZAXvxNERERaOk7boKGDmV29RGbVKSkpO2CvExEZNWBAf1mz5ksZN2685OUNl7lzX5AxY0ZLp05HypIl/7bvRZSeVq7bKKvWbZBFy1dL/o6Duyu7d2kvbVs2l5wW2aH1DpLTslnoevLm80QH6Io16yU/tMzfUaDWw3WFIsjqdnQ7tQy6jh2tN1xz574kPXr0kAkTxsvUqY+Gjm0DQ8vH1G1Bg7F265Q5FWPusiF9pX+f3KSOrVSFD20mTptX8XuCgDcVfi+IiMgcdLG+8cYCtf6rX12olunmiy/+VxF2Dxw4KC07m4lMYtBLRJ5h0EsUHR36rlSXjfbWgyGMy2nVTLp3bq/CX0AArMUb1ulACiEu4LFECnTdEF7163VCys05mopBrzZ55gJZtHyVWseHCmMvH8Kw1yA9jYnmnr6FiIhI0yEnwk2EnOkKYTdCb5ygLZ3mKSbyAoNeIvIMg16i2KHTMn97QUXwi3W9PRo6rEMgrKEzWNu8fada5m+z9ldTiFuV7khE127uMe0rpgJIRakc9MKs+e/JzNBFG3v5OTKgT659jWoDv08Tn5lXMVUDfj9GXTqYIS8REYX10ktz1TLdA0529RKZw6CXiDzDoJfIHN3p6w6Aow1/awPBVE7L5irQVddTPNQNJ9WDXsC4mjxjfsVYYndv7VXt4sWHIpyPl4iIIuG0DZWxq5fIDAa9ROQZBr1E3tMBne78hXy7a3fLDte20Drm+4U29hIQ5lpLa1u6hbnVSYegV3NP5QDo7L10SF8GvlFAwDtj3tKK7nh28RIRUTQ4bUNl7OolMoNBLxF5hkEvEQVZOgW9ULW7Fxj4RlY14AV28RIRUbQ4bcPB2NVLFL+69pKIiIiI0hg6UKfdc60KKnVnN8LM4Xc8rKYkiHU+51QVriYIeHXtiIiIaoIwU2Og6ejQwfqQHZ297hoRUfQY9BIRERFRBXdoycDXUVPAy2lPiIgoWuvXf6eWnJ6gMoTeuia6RkQUGwa9RERERHSQ6gLf0ZNnqfVUD33xMyLYZcBLREQm6blodQcrOXRN1q/fwK5eolpg0EtEREREEYULNVes2VARgKZa6Fs13HX/bAx4iYgoXpy2oXodOnRUXb2oE7t6iWLHoJeIiIiIaqRDzvtuHqbWUyn0rSncRbDLgJeIiEzgtA3VQ13Y1UtUe3VKSsoO2OtEREYNGNBf1qz5UsaNGy95ecNl7twXZMyY0dKp05GyZMm/7XsREflTx47Wm4y5c1+SHj16yIQJ42Xq1EdDx7aBoeVj6rZ0t3LdRln8wWpZuXaD5O+oHO5272LVr3vn9qH1DpLTspm0DV2SbUXosW7etlM99s3bd6qguiqEu92Obie5x7RnsEtEREa99NJctezatSs7eiNAuPvOO++o5ckn91BdvkQUnWqD3gMHDkidOnXsa+nNq1qwxg7W2HuJrnE6Br0cx95jjb3HGlu8DHpTscbVhb5uCIAR/lrr3gXA6MhdsWa95IeW+TsK1Hp1ncbRhrs8Vjh4rPAea+w91th7rLEDweUbbyxQ67/61YVqaUIq1viLL/6n5jJGh+/pp5+e9A5ojmPvscZmRAx69+4tlH379kn9+vWladMm9tb4YZ/Yd926ddV+69WrZ98Sn7KyctmzZ4/s379fGjduLA0bNrBviV9Bwe7Q/sskM7Nh6OCSZW+NX7BrnBWqcUP7lvixxpZgj+OMUC2a2lst8QS9rLEj2OPY7LFi9+7dUlqa2HEcD9bYEcQaH310J7U+e/YcOeWUPsaCXq9qXFhYKMXF/qgxQt9V66xO2ZWhZf72gmrDX00HvjmtnKC1bcvmapnTIlstEdpq6MiF/G3WvqOdMgJBrhXoZkub0CXazl0/1TgaQTxWBK3G5eXloVqwxuCucZMmTSQjgzXmOOY41nSNv/nmK/nuu29DtWgsAwcOsm+NT6rWONau3kSMY+wT+zaFx2MH9ltaWupZjTMyMiQ722SNS0I13uvLGoedoxdpNwYGoNC4mIICAx50SUmJWjcB+8I+QT92E/CzI7gB/dhNCH6Nze03iDXW++U4dte4jDV21Ri1MSH449jssQLjDLyrcRDHcbrX2Pr5UQ+TtXA/XyUlVk1M8LLG+vjuhxrndj5C8gafqi6Y0xfz2+r5fYeHtuH2NodYwa0bglqrE3dDxQXz5eIyfd5SddHXcdH30f9fOOjUdc+zu+Aff6iYbxePD7dFE/L6rcbRCOKxImg1xr5YY4u7xib/5rHGDneNTdaCNXa4a+zFOEbIC3oO2nilco0Rhrdu3Vqto7O3JpX/5lmP3QR3jbHfdB7H3tbY+vm9qjHeq5utsbVfP9Y4bNCLlmak3VXXTUBHmlavnrn9utNzfBpiCj4l1S3e7sceL3dd69b1rsYm9xvkGmPd7HjjOAbsUz9O1rhyjfV6vLCfyuPYzCeFkIgamzwGeVnjyuM4WDX2bhxnGK2xd+PY+flNjjd3jU0+3mCOYzM1Vl20dgCMwPfxO6+QWfdcLVNGDZN7fvcrtQ0XBLC4IBDGRQe1+H9x0ddxwe36/rjg///rTZfIA6OHqf0+P+H6ittw/2gC3UiCUOOqvNpv5XFs9liRmBqb3K+zL9bYXWNztfBqv6yxgzV2VK6F2f0WFxfb1zA/r5m5eVO9xpjHGIEvunr1Sewicb/Wdr8Gj5e3NbYeZzJrHItE1BiPPQg11r8f4LcaVztHL9JuFAKtyCbh0wqEmyaLDPh6GhJ7d8FNQJqO9mk9QEwKWo1Rh/37WWNgjR2RahzvHL2ssYPj2MIaO1hjh1c19mqOXtbYwXHsYI0drLGFNXawxg7W2BG0Gv/vf6vVeyOT0zZAqtf4k08+ViEvuntPO+0Me2t4HMcOHisc6Vbjan9KFNh0IQAP1nQhACm66cEGqIEXgw2CVmPskzW2sMYO1tjCGjtYYwdr7Ahajb3CGjs4jh2ssYM1trDGDtbYwRo7glZjhLxgatoGLdVr3L59B7XcunVrFF29HMcajxWOdKux+Z+UiIiIiIiIiIgUTD2gmZq2IV2gk1efiG3DhvVqSUSRMeglIiIiIiIiIvKI7kTFtA0UO3dXrzs0J6KDMeglIiIiIiIiIvLIF198oZamp21IF+jqxQUwZy8RRcagl4iIiIiIiIjIA5y2wYxjjz1OLdnVS1Q9Br1ERERERERERB7gtA1moKNX11B3SBPRwRj0EhERERERERF5gNM2mHPyyT3UEuE5u3qJwmPQS0RERERERERkGKdtMItdvUQ1Y9BLRERERERERGQYp20wr2vXrmrJrl6i8Bj0EhEREREREREZxmkbzOvQoSO7eomqwaCXiIiIiIiIiMigrVu32muctsE0dvUSRcagl4iIiIiIiIjIoG3btqgl5pUls9xdvXp6DCKyMOglIiIiIiIiIjJITyvQqlUrtSSz9HQYqDO7eokcDHqJiIiIiIiIiAz54ov/2WuctsErqCu7eokOxqCXiIiIiIiIiMiQwsIitdRzyZI32NVLdDAGvUREREREREREBiBw1B2muuOUvMGuXqKDMeglIiIiIiIiIjLAHfLipGHkLXb1ElXGoJeIiIiIiIiIyIBt27appQ4gyVvs6iWqLGLQu2/fPiko2C1FRdbcMqaUlZXJ7t27Zc8es5+0HDhwQO0T+8a/YRLm10EtUBOTdI31/D2msMaORNQYdTGFNXawxg7W2MEaW1hjh5c11srLy+01M1hjC8exgzV2sMYO1tjCGjtYY4dfa4yO0q1bt6r1Vq3aqCWwxg4vxrG7q3fLli2ssQc1Bo5jh59rHDboxWPcu7dQ7bSoqNjoE4jilpaWSUlJidq3KcXFxWqf2LfJ/ZaWlqp9owamB4ausd6/KcGucaG91YxE1Li42NyBKBE1Rk1MYo0trLHDuxo7Ndi7NxjHY3xYGtwaezeO8e+Y4uU41ky+4AxijRMzjs39TrPGDtbY4V2N97HGtso1Nve3iTV2sMYOv9bYPW1D69at1Tq4a4zXLqakY43DQVdvo0ZZan3Tpo1Gx7GugTc1LvKoxtb+vDxWmBzH3tbYPY5L7a3x83ONwwa9deqEbqjr3FQHGwxx77duXXP7dT9Gk4/Xq/0Ca2ypvN+wQ7LWgldjbx6ve7/ux24Ca2wJeo29qoXZ/Tr7MjkmIHi1SESNnX/DBPf+TD5/QXvu3D97UGqcmHFsrhassYM1dnhXY2dfrLG7xuYeM2vsYI0dfq1xpGkb3DU2WYtE1djscTO+GkfSrl07tfzuu29VWGaKV88duJ8/szV279fcY/aqFt7W2NmfV7UwuV8Tv9MR/68mTZpIZmamWtarV8/eGr/GjbOkUaNMycrKkoYNG9pb44fHin02atQo9JjNndkyIyND7Q/7b9q0ib3VjCDXGP+GKcGtcSMPatzQoxrXY41trLHDqrH1e426mOJtja1amK4x9scas8Zu7n3hcZuCnz2YNbaOx0EYx6yxgzV2eHmssGqcyRpzHFcIbo05juOpcaRpGyDoNcZrRFO8GsfduuWG9mvVduvWfLU0wV1jLE0KWo0TMY69q3HjQNQY2YdV49r/zYsY9KIAWVmNpEGD+vYWM5B64wGbLISGfWLAmdagQQNVC5N/QCDINXZ/emFCMGucyRqHsMYOHisc3tW4vic1xv5YYwtrfDDWOIjHY9ZYY40tVo29PB43Yo05jisEt8Ycx/HUONK0DRprbPFyHHfs2EEtN2zYoIJ3U3SN8b7MJB4rHN7XuIG9xQzva1z7v3nm+ouJiIiIiIiIiNLQ+vUb1LLqtA2UOB06dBQE7Qh5dfBOlG4Y9BIRERERERER1RKCRd1BirCRkgMhrw7aEbyb7OolCgoGvUREREREREREteSetgEXSh53V6+eM5konTDoJSIiIiIiIiKqJU7b4B8IefUcyV988QW7eintMOglIiIiIiIiIqoFTtvgP127dmVXL6UtBr1ERERERERERLXAaRv8x93Vu2HDerUkShcMeomIiIiIiIgoZeXv2KUuXsD0AMBpG/ylffsOaomOXh3GB52X45hSR52SkrID9joRkVEDBvSXNWu+lHHjxkte3nCZO/cFGTNmtHTqdKQsWfJv+15ERP7UsaP1hm3u3JekR48eMmHCeJk69dHQsW1gaPmYuo2IiIgSb9HyVbJlR4Faz9fL7TvtpXUdIoViOS2aWcuW2WoJOS2bW8sW2dImdMF13K7vGw6mBnjjjQVqfeDAQezo9ZlPPvlYhbzo7j3ttDPsrf7h9TiGbp3b1ziOKbUw6CUizzDoJaIgY9BLRESUXAjCYNVXm2Tl2g1J6WbM7XyEvWx/UGj2xRf/Ux29CHgR9JK/oJv33Xf/o9ZPPrlH0uZQ9vs4ptTCoJeIPMOgl4iCjEEvERFRYiEQizYM696lvbS1uxdBdzDmtLTCq7at7M5G+zrkb3f2uXmb7py0tumOys3bd0r+tl2hZfX/PoKzXkfUV+tHdDxKep70M7VO/pKMrt6gjWOGv6mFQS8ReYZBLxEFGYNeIiIi7yEUW/zBalm5bqO9pbK2LZtJ9y4dVACGsAvr2JYIK9ZuUEEaQrQV6zYcFJwN7dNemmZmyONvf6MCs7zBfRmW+Yy7q9fL6TWCPI7dOI6Dj0EvEXmGQS8RBRmDXiIiIm8gFJs1f1nYbscBfXJV2JTIICwWCMhUYLZmvXy7YaN8v7VAvvnxJ/tWC8Myf8E8yphP2XRXb6qM40jhL8dxMDHoJSLPMOgloiBj0EtERGTOrPnvyaLlqyOGYv1P6Sbdj7H+9gbNm8tWysLlq6oNy7Ck5DDZ1ctxzHHsdwx6icgzDHqJKMgY9BIREcUPwdjM0KUqhGKXDunry27HeOBr8tPnvXtQWMagLLl0Vy9OyIYTs8WK49jCcex/DHqJyDMMeokoyBj0EhER1V64YOyyIX2lf5/clAvFItFh2Yo1G+wtDMqSBSdkw4nZIJauXo5jjuOgqWsviYiIiIiIiIjigmBs0A1/qxSOIRhbPPV2uezc09ImHAN8hX/SqDyZNDpPunexPkDGybpufWC2ukQ6cReZh05eHe5+8cUXalkdjmMHx3GwMOglIiIiIiIiorjUFIylMwZl/tC1a1e1RHcvpnEIh+M4Mo7jYIgY9JaVlYcGfpGUlJTaW8w4cOCAFBUVSXHxPnuLOdhnUVGx+jdMKikpUbUoLy+3t5jBGjtYY4dV4yLWmDWuwBo7WGOHVWMej72ssRa8GpfYW8zgOHZgf96N42LWOIQ1dqAG3tbYi2MFawzBrXHtXrsh3Blx11QGY1GoLiibPHNB2BN81USPY7wOMMnbcZyc9yDurl6EvW4cx9HjOE7uOK5JxKB3z549oZ0Xq6XJP3x79xaGHnBxqNCFsm+fuYLgsWKfKAb+DVPKyspCNdir9r979x57qxmssYU1duAX2qpxseEal7PGNtbY4a6xyT9QrLHD+xqbPh6zxpp7X3jcpiSmxnvTehzjZ/eqxtifd+O4iDUOYY0tVo2tWnhX473qmGQKa+xw1zhY4zj21266k08HOwzGohMuKFu0fJXcOmVOTF2R7nGMpUneHiuS9x6kQwer3pi+QXf1chzXTnXjGMtocRw7kH3U9nishQ16ERrv37/fvmYl1aa497t/v7n9uh+jycdbeb/OYzeBNba49+V+7CYEr8bePF73flljr2rs7CuINfZqvHlXY3P7heDVIhE1dv4NE9z7M/n8BXscB6PGiRnH5mrh/tmDWWNzj5k1dlSuhcn9OvsKYo2D8Dvt1X55rHDUZhwjjMTX23UoiZBn5vjrGYzFSAdlYy8/R835iqAxlq7IYB4rYh9v0Yh2v127Hl/R1fvhpytVFy/HcXzCjWOM4WjHsfu583YcJ368xcrE73TYoLdOHZHGjbMkIyNDGjXKVEtTsrIaSf36GdKgQQO1b1MyMzPVPuvXr290v9gf9o0aRHtWxmixxhZ3jVETkxJRYzx2UxJTY2/Gsd6/KZVr3NDeGj/vauzUwKtxHLwaW797plSucSN7qxle1bhRoyDX2LtxjH/HFC/Hsdawobn9BrHGiRnH5n6ng19jc7/TrLHDu3HckDW2cRw7glfj2MYx5jBFGKmhmw8hTzqdnMq0AX1y5f5QHbEEdENOnjG/xpAsmOPY2l8yx7Hu6t2x5fuKrl6O4/jVdhzrceb9OK5vb42fNY7rezqO8T6nNuqUlJQ5cTERkUEDBvSXNWu+lHHjxkte3nCZO/cFGTNmtHTqdKQsWfJv+15ERP7UsaP1JmDu3JekR48eMmHCeJk69dHQsW1gaPmYuo2IiCidIOB1dz8iGCOzpr/2rix8f5Vs3m6FY/fdPExyOx+h1skMjOPjWteRppkZ8uW2cvm/3//GvoVM4ThOnohz9BIRERERERERoSPPHfJiDlOGvN7AtAFjRwyp6CxF3dFFTfFzj+PXP/1Byho0Z8jrEY7j5GHQS0RERERERERhIRzD1691yIuvuHMOU29hzlN8BV6HZDPnv8eQLE5Vx/Gff3+J5P1ygFonb3AcJweDXiIiIiIiIiI6SLiQF+ENeQ/hGE4MxpAsfhzHycNxnHgMeomIiIiIiIjoIAzHkg8hmT65FUIy/XxQ9DiOk4/jOHEY9BIRERERERFRJei6YzjmD2MvP6eiIxJznaJDlaLDcewfHMeJwaCXiIiIiIiIiCosWr5Kdd0BTrzGcCz53HOd3jplDkOyKHAc+w/HsfcY9BIRERERERGRouYznblArXfv0p4nXvMJhGMqJGvVXD1Hi5evtm+hcDiO/Ynj2HsMeomIiIiIiIhImTV/mVoikJk0Kk+tkz/gOenf+wS1jk5VdkNGpgNEjmP/4Tj2FoNeIiIiIiIiIlKBC77uDv1P6aaW5C/oTEVQBjjJGB0M41hP2cBx7E8cx95h0EtEREREREREFYELAhh+1d2/xo4YopY4yZg+0Rg5OI6DgePYGwx6iYiIiIiIiNIcuiB12KIDGPInnFRMd0Mu/oBznLpxHAcHx7E3GPQSERERERERpTn3nKYIYMjfLh3SVy0x1QbnOHVwHAcLx7F5DHqJiIiIiIiI0hznNA2WAX1yK7ohV67doJbEcRw0HMfmMeglIiIiIiIiSmPuTjrOaRoc3bt0UMtVX21Sy3THcRxMHMdmMeglIiIiIiIiSmPur7tTcOR2PkIt8bV38s84/te//iWvvvqqfS1Y/ve//8natWvta4nBcWwWg14iIiIiIiIiquisC7KlS5fKrl3pMddn21bN7bXK3azpLtnjeM+ePfLcc89JWVmZvSU2n332mRQWFtrXag+PYdu2bfa1mh04cEDWrVsnCxculP3799tbvcdxbBaDXiIiIiIiIqI0tnKdNTdmTotstQwqhFNvvPGG/PTTT/aW8HC/Bx54QJYsWaLCraDCycZ092r+9gK1TGd+Gcc///nP5YwzzpCMjAx7S/SKi4vlpZdektdff93eUnsbN25Ul2jVqVNHunbtKr/+9a9l/PjxsmPHDvsWb3Ecm1Vt0FtaWupJil9aWibl5eX2NXPKysrVvk1DDVALL7DGFtbYwRo7WGMHa2xhjR3YJ2ts8arGXmGNHRzHDtbYwRpbWGMHa+zwqsb5260uupwATd2Absk777xTfvzxR3uLSN26deXYY4+VrVu32lvCw/0GDRokLVq0UOFWKsjfvtNeM4fjuHZatWolu3fvtq/FJjMzU+6991656KKL7C21d8opp9T4u+CGkHnChAny73//W4466ijJysqyb0mcoI1jvO81Ld6/eRGD3oKC3aGBuSe0LAgVxNwnXIWFRWrA79pVICUl5v6olpSUqMeKfePfMAWDAY8VtcDFJF1j7D9oNS4qYo1ZY0ukGs+d+0Jom/WH9tNPP1XXP/roI3V9z57d6nrVy/Lly9XtEOwa1+6PeiSVa2zuDxSPx44g1tiqhZc1NjuOsb+g1VgrLt5nr8XPy3EcvBqX2rXgOOaxwhG8GnMca5Vr7BxD48UaO7wcx/k7rC4691eo/Q5hbY8ePVTg69a+fXvZsmWLfS2yY445Rrp3725fC66cVlaoiZDOpMSMY7PHCr+MYwSktZ16AaHkPffcI4899ljc3eY5OTkx1Rgh8xNPPCEXX3yxDBs2TF1PFD2Oi4pMj2PrNbfpcYwsAeMY73v99jcvbNCLwaQPlghuysvNfXpaVub8QTK7XydFr+08KOEgSde/XCY/7XXXGOtBq7HJT9SxX9bY4lWNEz2Ox4wZrS6bN1ufrr/44lx1/bnn5qjr+FRR38d9GTr0Ytm0yfpqSbBrXFaxHq+Da2zuE8OgH4+DUWPn5w9ejc2OY/37Zr7Gzjg2WQt3jU0+Xi/HsXc1dupqtsbe7DeY49irGjuPkTX2qsbe7Df4Nfb/c8dx7DC5r0RC0Hv++efLEUdYJ3L69ttvVc1xPZqgF/e94447ZPv27fLf//5Xfvvb38qQIUPkkksukUWLFtn3Cg50swZvHJvbr8nX2rHC+HFr2LBhrbthP/zwQzn55JPlzTfflA0brKko3L777ruD/r2qvv/+e9m7d6/qVo81cMZ0E/Xq1VPrX3/9tVom0pYdpsex9V7B9DjWvx/g1Th2v8+JRdigF4MBAxPq16+vLqbo/eKg3KBBA7VuAvaFfYL+N0zAz67nVcnMNLdf1FjvL91r3KCBdzUO9jg2t1/r5/e6xhkVNW7Xrp1axqpduyPUBYJYY/c4Rm1M4Dh2VB3H3tTYGccm6J+fNfayxs44NlkL9/PVoIFVExO8rLE+vns5jk3WGPsK2jhmjS2ssYM1drDGlqDWuHXzpmp98zbzX5tOlJkzZ6r5SJs2bVppOgcNHa8vvPCCrF+/3t4icsghh6iTT/3rX/+S0aNHy2uvvSbPPvus6oQMWgCO9yJBG8emXx8nYxxjzFXtfEX92rZtW+MYQgiJkwdOnz5dnn/+eXUSN4xdhLktW7aUVatW2fd04EOIu+++W+6///6KELOqjz/+WB599FEVNod77lavXi033HBDpcD4vffes9dEVq5cqU7iNmeO1aiVSPXqeTOO8fsRlHHs/M2zHnusrP87jMaNs0IHveahg2QTe4sZeKAtWhwizZs3q/iUwISMjHpqn9i3yT96kJ3dVNXC9Pwk2B9rbPGqxsEex7X7pY4EL3i8rbH1RxVGjrylIrCNxf33T7LXglljjmNLqoxjE1hjRxBrrNWvb/Zvnlc1xv6CVGPsK2jjmDV2sMYW1tjBGjuCWGMdLATBDz/8ELbTEdMwfPPNN9KoUSP1VeqqX9N+/PHHVbD13HPPqesIgfAVdXz1GoEcwl1sQz26deumgi58fdrv8rdZ0+UdntNSLU1JxDh2v96KV7LGMcZc586d7WuO5s2by7591vRfOOmfezyiuxRj8a677pK33npLNm3apDp4MW1C3759VRfuSSeddND8utgHQmWEuJs3b5Y1a9bYt1R27rnnqgAa99+5s3LojQ82pk6dKtdff71MmTKl4jF++eWXFcE0Ol/xb/fu3dv4lCCR6HHcrq034xjv1U3ychzH+zev2t8CUyl6KvCqFqyxgzX2XiJrjE//Ygl7L7zwIvWHJOg4jr3HGnuPNfYea+w91th7rLH3WGPvscaWnJbZaqlPZuVnn3/+uRx++OH2NQfCNgRb6NrDSdbcoR+Cta+++krOO+88yc7OVlM74IKOSARZhx56qNx+++2q2xcdvZdddpn85S9/Mf7hghc2V5yAzPy8tBzHNcOHAeE+eME4xIcS6NCdPXu2GlcIZ9955x01TcjatWtl5MiRct1118lVV10lZ5xxhurkxbi9/PLL1bQkO3bssPdmwXQMCJYxPyzu16RJ+EYg3NalSxcVCuvHgPG+YsUKFS7/9NNPKsjF/4/pGRAYv/322+o9PO6HrmF0uZuaQiEaHMfm1CkpKUvcM0dEaWXKlL+rS00QCC9d6nxVhIjIDzp2bK+Wc+e+pE72MmHCeJk69VEZMGBgaPmYuo2IiCgVTJ65QBYtXyUD+uTK2MvPsbf6E4Ky008/3b7mQEciQi3chm5cfHXeDWEWTnKFDsdwwQ+CuaOPPlqFwbm5uSoECxfg+QnCseF3PKzWF/zjD2qZzpIxjnHStGuuuca+5njqqafkpZdeUqHrgAEDZNmyZaJPVh4tvP7885//bF+zOm1vvvlm1QE8YsQIFQaHG8sIaG+77TY1BzVOjD5pkvXNWYznCy64QDp06CDTpk1T81Pj/8fY/8UvfqGmb8D0ESeccILqjEcY/eSTTx40NYVpHMdmMeglIk/17XtqxQnWIpkz5/mU6OYlotTCoJeIiNIFwjGEZLB46u1q6VcLFiyQQYMG2dccmH/3yCOPVCeyigRdi5h/FJ2UqWD6a+/K9HlLJadFM5l2z7X21vSVjHGMDw/woQKCV8yviikTMN8uPnTAPLqJ7iZFV/vTTz8tX3zxRei16wQV4vodx7FZwZmIh4gCqaYpHFJlygYiIiIioqByf11af4XarxDWfvjhh6q7EZ2LCNbQVYmvm+Pr6ho6d/G1dNwHnZQzZsxQ3Ynorkw1Z/c+wV5Lb8kYx5iG4fvvv5eLLrpIhgwZok7qh7F5yy23eB7yYmyjCxeduVhHB+7EiRNl/vz5akqIIIS8brnHWE0WFB929BKR5yJN4cApG4jIz9jRS0RE6WTEXVMlf8cuuWxIX7ns3NPsrf6Dk1dhvlPMJYpwC/PodurUSc2riykX3D744AP1FXWEwZi39+qrr5bTTvPvzxYL99fdhw8+VfJCF0rsOMYJ1dAh7hWcCM99QsBmzZodNP0DfgdwIje9HdMz9OvXT50MLl44kdmFF15oX/MGx7F5DHqJKCHCTeHAKRuIyM8Y9BIRUTqZNf89mRm6wMzx10vbls3UOvkTv+4eXiLH8fvvvy/Lly+3r5mHsBad6Ro+rKh6gjYvYZ5qfDjiJY5j8xj0ElFCIOQ977xzK/4wIeBF0EtE5FcMeomIKN3obkicyAontCL/Qhek6oZkF+RBOI6Dg+PYPAa9RD6zevVqWbLkbftaavnXv/4lX3/9lTrz6C23jLK3ppbWrVurM5a2aZNjbyGioDrllF6yb98+mTjxfjnrrH4MeomIKOXhRFY4oRW6IO8fnceuXp/SXZCALkh0Q5KD4zgYOI69waCXyGd++cvz7bXU9O2330rjxo2lTZs29pbUc+ONN8kvfnGWfY2IgmbOnNny3HNz7GvW1+YQ7uKDuJkzZzDoJSKilIUuyFunzAnEXL3pinOa1ozj2P84jr3DoJfIZ3TQ261bN8nJYVdokKxatUry8/PlkkuGytChw+ytRBQUVQNewHEYv9fQuHET2bevWK688ioZOHCQ2kZERJRqOFevv3FO0+hwHPsbx7F3GPQS+YwOeidMmKDCXgqO22+/XYW9DHqJgiVcwPub3/xGXRDy4uzeuOjAF1OznHnmmZymhYiIUpae45RfffeXFWs3yOhJs9Q6uyBrxnHsTxzH3qprL4mIiIjSCgJefLjmDnkR7s6bN08tAR29WB8/frxa4vqWLfnq/7nzzjvVPnCdiIgoldw3cqjqtMPXqxcuW2lvpWTCc6HDsdzORzAciwLHsf9wHHuv3p133vVne52IfEAHDv369ePUDQGDjr8tW7bICSecELqwG5vIrxDO3nnnn+R//1ttb7EC3uq+SdGkSRN1W+/evdU6ftcR8GIfH374oezdu0fNPY7pHYiIiIKuSaNM2Vu0T1au26i676B7lw5qSYmHcGzMpFmyJ/ScILj85+0j7FuoOhzH/sJxnBicuoHIZ8JN3YCvC1955ZVqnfwDwZDu+gNO3UDkb9VN0RArTulARETpwD3PKU9qlRwIxyY+M09WrLGCyvtuHqY6ISl6HMfJx3GcOOzoJfKZcB29r776qgoQyV/Q0Xf++VYwD+zoJfKn2nTw1oQdvkRElA5yO7eXLTsK5JtNW9gRmQQIx4bf8bDkh5bAcKx2OI6Ti+M4sdjRS+Qz4Tp6n332WXXB9ZEjR6ptlDwI3adMmaKC+CeffNLeyo5eIr8x2cFbE3b4EhFRKps8c4EsWm41nqAjsn+fXJ7YymPuE1YBw7H4cRwnHsdx4jHoJfKZmoJebKfkQpiLUJdBL5E/JTLgrYqBLxERpSr319+7d2kvYy8fwpDMI9Nfe1emz1uq1jGX6ahLBzMcM4TjOHE4jpOjrr0M68ABZsCaV7VgjR2sMVFkHMcOHiu8F9QaI+DFh2XukBfh7rx58xIS8gI+AMK/NX78eLXEdUzpgMd05513qseI6xzH3mONvccae4819h5rHD2cHX946ILABvNs4qRK+mvwZM7oybMqwjGEYveNHFpjOMZxHD2O48TgOE6eiHP07t1bKHv27JWysnJp2LCBvTV++/btk4KC3aFlidSvX1/q1q02a44aHif2W1hYFNpnPcnIqGffEj9rv4VqcOAxxyp/xy51psdvNm0NrRfIynUb1NwwX36zSd755HP575r1sm3XntB9StTtuEid0HMQ+n9wwZkiY5GYGtcN1TjDviV+8dY4kiCO4xdeeE6tu+foRZcoLriO7ZRcmIsT3XqYlzPcHL3HHttFcnO721vjx+OxY/fu3aoe3h0rykI1bmhvjV8Qj8dBrPHMmTPk7rv/bHQO3nhVN4fvBx8slx07dsghh7SQ5s2b2/9H/PB3NEjjuLw8eOOYNXawxhbW2MEaO1K5xpjr9Mh2ObJq3Ub1Pnfh+6vU+9ejjsiRJlmxvW+lyhA2InT8euMWdV2FYzcPqzEPCPI4zsjgOE41tR/He9Q43r//gDRoYH4cl5am3jiOJOzUDThA/PTTTvuaSNOmTYwdMAoKCkIHinK13ij0RDdq1EitxwtFKC4uVusoRHZ2U7Uer9LSUjXgtBYtDrHXHDgwrAwN5lVfbVLXsQ7YbhI+ccppma0OSm1aZIfWm6vr2O6WijWujaCO47y8oWqdUzf4V01TN5x//gVy+eUjpE6dOvYttcfjsaPqseKQQ5oHoMa71YtjYI3N1ziZUzTEKtyUDq1atZazzjrLyJQOiRrHmZmZkpXFcQysMWsMrLGDNbakS43xXnfyjPmyct1GdR1ffR87Yoh0P6a9uk6xQfcjuku1aOcx5Th2FBUVhS4cx8nEcRy/yuO4XmgcZ6v1WITt6EVBkXbv379f6tatE3pjmmWkyFBevr9SMerVM9PphSewpKRUraPjzdSTh58bCT1gn+98tkZ1477y709l6ty3ZeqLb8u/lnwi76/8Sm3HRXfiRoKDBz4lOqp9jrRt1UxdUF1sw2VPhP8X+7Q6gjeqf2/xB6vVv71q3Qa1jrNIohV4f6gWDetbdQ1ijU11LLrHMdaDMo7nzn1BrbOj179q6ug97rjj5cQTT7S3xufgcdwoEONYHysaNPDqWJFh7BPZoNfYu+Ox2RqjDqZqjID3zjv/5KsO3pqE6/DdunWL+hk+/PBD2bt3j7Rp00YaN25i/x+xMV1jNx4rLKyxgzV2hEocqrFVC9bYXeOGrHGK1xjdeWf37iY5LbLtb65aXZErQu9N27ZszjlPo4Q5TEdPflbyt1tNYqr7ceQwOapdG3W9JhzHDo7j5DE5jhHSY1yY4OU4xj69H8cNa/U3r9qTsSFVx4M11YKs4Q01AmRThdDQmYYXtDjAmYIzMiJYRZiqplSoxoA+uWqJQd22lfVVzBzXgSHWg8Tm0C+J/kWBzdt2qus46ORv26Vur06/XidYB60wXb+15UWNAb8kaFE39cLNLWjjmCdj87+aOnq9OBlb0MYxfp/xtRseK1hjt3hrHKQO3pp4ddI2jmMLjxUO1tjBGjtYYwtr7IinxlW7IgEnubpsyGnsjIzAfZIqLdrux6o4jh0cx4nFcVymgmOTUxVCPOMYqg160xXCXUzDgCkY8MteFX7Z8emOHrzdu3RI2ic9mP8kmgAYjzVvcF+joS95g0Gv/yUj6CVKZ6kU8FblVeBLRESUaAjIZs1fyqCsGuGCMZwYDCcII3/gOK4Zx7G/Mei1VRfu4pe6f+9uSQ10Y4Ggd8Wa9bIw9DOFC34Z+vobg17/Y9BLlBipHPBWxcCXiIhSBYOygzEYCx6O44NxHAdD2ge9CHhnzV92ULiLaRgQiAYl3K3Om8tWRgx9MbVD3uA+DHx9hEGv/zHoJfJWOgW8VTHwJSKiVBEpKAtSE1U88D4cPzuWbgzGgoXjmOM4aNI26A0X8KZSuBsJpnqYPu9dyd9WIJu3O2cfZODrHwx6/Y9BL5E30jngrYqBLxERpYpwQRmkYlimQzF8w7ZqkxWDsWDjOLZwHPtf2gW9kQLeS4f0TflPYqrCL++MeUsr/eIy8E0+Br3+x6CXyCwGvJEx8CUiolSB4GjxB6sjTpfYvXN76R96bx609+WROh4B76+7Hd1OLSk1cByT36VN0MuANzIGvv7CoNf/GPQSmcGAN3oMfImIKJXUFJbh5Oc5LbJVl2RO6P26X96z4z0zuhzx+KG6UCz3mPZ8P53iOI7Jj1I+6GXAG71wgS/a8vv1PoG/2AnEoNf/GPQSxYcBb+0x8CUiolSDsGnVug2h9+6rDwrLNLx3z2nVTHVL6tBMb/eKDr/w+MJ9hd2NoRjVZhyD1wEwx3H6SdmgF79Yk2fMr/iEAi4b0lcuO/c0+xpFUjXwxS/4qEsHq/mLyXsMev2PQS9R7TDgNYeBLxERpSIdlq0MXfK3F6htkUIz0AEZwjMNXZSATkpNB8P59nvc/B3WvkGfuwYnL4fqgjANgRjw6+wUDscxJVNKBr2z5r8nM0MXDR28Yy8/x75G0Zr+2ruy8P1VFQcIdvcmBoNe/2PQSxQbBrzeYeBLRESpTjdvuYOz6kIzk9DslNOyuQrC1HV2OlItcRxToqRc0HvrA7MrfoHwqcjYEUOke2gQU+0g5J34zDxZsWaDuo6DwX0jh/Kg4CEGvf7HoJcoOgx4E4eBLxERpRv9vj/f7mTcYnc36i5HvR10V2VOS6s7EqGXWtrdkm0qdU02V/fje15KBI5jMi1lgl78cmCqBv2JCKdpMKtqd++o4YPY2u8RBr3+x6CXqHoMeJOHgS8RERERUfqqay8DDSEvOnl1yDtpdB5DXsNQT3RH67ljJs9coKbIICIi0hDw4sMqd8iLcHfevHkMeRMEH0Ch1uPHj1dLXN+yJV89J3feead6jnCdiIiIiIhST+CD3kXLV6mQFxBCIuTlVA3eQF1njr9ezXkMmAeZYS9R7KZM+bu6EKUKBrz+w8CXiIiIiCj9BDroRciLzlLo3sUKIRnyeg8ntsPUGKDD3kRNIk4UZJs2bZShQy+uCHpxnSjIGPD6HwNfIiIiIqL0Edigt2rIO2lUnlqnxMBUDu6wd/Hy1WqdiMJDsNu376myfPlyewtRcDHgDR4GvkREREREqS+QQa868RpD3qSrGvZyGgeig6FrFwEvp2qgVMCAN/gY+BIRERERpa7ABb2YIqDSnLwMeZOqatjLKRyIHLqLl1M0UNAx4E09DHyJiIiIiFJP4ILeyTPmqyVCXszJS8mHsBfPB9w6ZQ7DXkp7O3fuZBcvpQQGvKmPgS8RERERUeqoU1JSdsBer2Tfvn2hS4nUr58hjRo1srfGr6ysTIqKiqROnbrSpElje2t0MDUAukZh0ug8nnjNRzZv3yVjJs1Sy+GDT5W80CUWhYVFamw0bNggdGlob42fHscZGRmSleXNOG7cuHFoad8QpwMHDshllw2XPXv2yIQJE6Rbt25q+7PPPqsuuI7tqWz//v1St66/P4NatWqV3H777SoQefLJJ+2torYhANuxY4e9pXoPPfQPad26jX0tstLSktClTOrVq2f096O8vFxKSvaF1uqGjvPYr6GBLAdCvx/Y735p0KChetym4Hcajxt/m+rXb2BvjR9r7ECNly17Tz788AN7iwUhYCqGu3iOTNavJjjOQx1TfzgMy8/Pl7feektdsA5t2rSRU0/tK6eddoZ07NjB2GNHLfbuLQwt96vXmvhbbUqwX1dkscasscIaW1hjB2vsYI0drLGFNXawxg5va1ysauu3GocNekP7lZ9++sm+JpKd3dTYE1hQsFsVBPCgGzXKVOs1QZfoiLumqnVMFYAuUvKX6a+9K9PnLVXr0+65VnJaWF2+NSktLZXdu/fY10RatDjEXovfjh3+GsdaYeFe9cu7bdsWdX3btm2ydetWtQ4Ien/2s5/JSSedpK6nS9C7ZcsW+b//+z91adu2rb3VfyIFvccee2xoLO+2rxEFU4cOHULH4Rb2tdQNeDX8Lvft21fOOecce4u3PvnkE3U8/8tf/qL+fvhVuMC3VavW8uCD/4j5b14keAOCF8iAD2+aNm2q1uOFD23cx2KvXlfg8eJxm4DHi8cNqK+pscEaOyrXOPbXbpGgvqgzsMYcx1rwasxxrCWixnhPivemJuA9Kd6basGo8Z5QjUvVehDGMWvsCP44bhKqcX37Wnz8XOOwbXMIot0ddaaSaXDvt27d6Pe7ePlqtcQUAQx5/ck9hYOeYiMa7vFlupMzmeMYYS7C2y+++J+6vPvuf+Sll+aqyxtvLFDXv/jiC3Vxh7yaqQNQoj333HOycaM1Jy1eKKFbDtvwyVRVK1eulCeeeMK+ZnWNXX/99fLUU0/ZWywlJSWqUxbdvn526KGH2mtEweV+QwYI+hYvXmxfSz58MHbLLbfIokWL7C0H+/bbb+X5558Pe9yp6rbbblPHInzQFA28oHvooYcqjke7du2SDRs2qGNUOLNmzZLPPvvMviZy4oknSr9+/WTZsmX2Fgs+4HvjjTeiesyJgprokBe6dDnW6N9SdJlo7vV4uf8ue/m6IpbXsTXxqhassaNyLUzu19kXa+yusbnH7NV+E1XjIBw3OY4diaixyVp4tV/wbhw7+wrCOGaNHV7VInE19uYxm9yvieNmxKkbysrwdVOrvblBA3OBE97AFBejvbmuZGZG147Nbt7gWLF2g4yeNEut33fzMMntfIRarwnGGsYc2vRNfoXW63GMCz59itSZW52sLGvqktatW6uvEOA6Ltdcc5Xa7vepGxByFBYWSpMmTewtltmzZ6vA9qyzzpJPP/1UunbtKg8++KDcdNNNB33K9eOPP6qutsmTJ1f6esYLL7wgv/rVr9RY2Lt3rzzwwAPqUy0EJL/+9a/teyVPdVM3vP/++7J9+3aJZvqGpUvfk3btav4d8dPxOFrFxfvU/rFfky9agnqs8K7G+0P7zTReY/xuvvLKv2TJkrftrdZcrsOGDVMhZTIheMYHZB9++KHk5eXJgAED7Fsc+FYSwuD7779fWrVqZW8VmT59urz++uty1113yfHHH29vtX6nf/jhh4P2hdA7Kyur0lhD0HvffffJmDFjVO3fffddOeaYY2Tq1KlqTtuqzwWOg/iwC3PguvfzyCOPyLXXXqtewG3atEkd27Hvm2++udJjSzQEuziOu8P9Nm1y5Je//JX8v/93ZtofK/Dhpf76n/ljxT5VA9aYNdZKSkpDNba+xupNjeuFamxuGiTW2BHcGnvzusLbY4UXNQ7aazdrHKMOqIcpHMcO1tjBGlv8XOOI8TCKgPDJ5AsswINE2BNLIdjNGxyYN1l39S7+wHreooFfOIw3k3/8wcQ4DteZ+/LLL8qCBa/LkiVvVduZq8PbDh06qsDz5JN7qDkOf/WrC2XgwEHqgm1dux6v7oPQNyi++eab0AHI+hqdG4IShLI48CEkQWddbm6uul4VOmAR3BYUFFR8PQEQmiDgRZCMkBhByA033CAvvfRS2H/TTxB8X3PNtTJy5C32lvj56XgcLewTX2Ex+ccf/HysCMf7GjfypMaYvuGmm26WqVMfk1/84iy1HQHglClT5Morr0xahy8+YFq+fLlcffXVct1116njSziHHHJI6HH/olJ3Mv5fHLcQ0H700UeVOng7dep0UCczrFu37qCxhm9bnH/++aoDF/tESIz7HHXUUfY9KsMUPM2bN1cfBOLFq4b9INhFqP7HP/5RLrrootCx45rQ35Ul9j0SK9zzi4D3xhtvUuNg4MCBPFaEYH/eHSsyWeMQ1tiBGnhbY3NveIE1dgS3xt68rghejYP22s0ax3g9axLHsYM1drDGFj/XOGJHr5+gmxddvezmDYY3l62Uic+8rtZjmas3mWqaM7c6kTpzaxva4gz34OeOXoS2eDxDhw496EUbggwEMAgv9IEpOztbHn/88VBdstR1t48//lgwHyjCF3ziX5X+ugICFXT3oCMP+0um6jp6cdsllwwN1WaYCqTGjBktmzZZU1lUFW1HL1GybdmSr7pS3377LXtLcjp88Yk8gkgco3HsGTdunJxwwgn2rZVhKgV0xiLEBRy3fvvb36r/F/Px4sM5BL/aueeeqzpsNYSwS5culTPPPNPe4kAHLo5z2CeOUTg+4d/661//GvYFGaZ6wDcdZsyYYW+pDPvAvnDBNxfwTYdEidTBe8kll1SE/EREREREFAy+D3rd0zbMHH99Rbco+dvwOx6Wzdt3yajhg+Ts3lZYmWx+CnOrE4SgFwEI5tZF0FEVOnHx1eiePXtK48aNVQCCM10eccQRFaGthi7eO+64Q32NGt1x2K8b7t+yZUu1jqkQsK/27dsfFC4nWrRBLyDknTt3rkyZ8nd13Y1BLwWNHwJfTI2CbwGgez7SMRiBMEJbHFtwzNAwn+5///tf+e6771Swu3PnTvsWkWbNmlUcb+D7779XYXC4nwsBMfaFTl18UIXHg+PSYYcdZt/DgceLKR0wdQOmlECY64YPsBAC4xiIrmJ8RSsR830z4CUiIiIiSj3mZgz2iHvaBoa8wdG9Swe1XPXVJrVMlHhOgKbD21ScZsE0BBVr1649aBoFhCuYpxL1Qxcdwou2bduqr4FXDXkRtN9zzz2hmmepr1kjCD7yyCMrXTp27KjOPooL9oF9JjvkjRWCXEzjwFCXUoH7q/zJmtIBYSyOBZGOwTi24xsCCHirBq+YhxddtfggCgGt+3jjDnkBH1B99dVX9jXH5s2b5emnn1YfvOFxICDG8StcyPv555+H6nWjmtIGoTDu7/43ccHjRLiLuYRxu9chb01TNDDkJSIiIiIKLt939M6a/57MDF0G9MmVsZefY29NPQjO1qxZo94sogsy6PT0DTgZG07KZlJQOnNrKwgdveis/dvf/qZqf9ppp6m5JjHf5ZtvvimDBw+W4cOHH/T1ZQQeuGB8b9y4UQUMRx99tDrjfbKnYohVLB29blW7exn+UtD5ocN3xYoV6oMnHFs2bNggCxculGOPPVZ9WwDBrg5rv/76a3UiN8yFi5O41QTfTrj11ltVEIvpIXDc+/LLL9W/h28z9OnTx76nBbe/8cYb6gMwnFwS9/vggw9k0KBBKlTFcTKZ2MFLRERERJT6fB/0pvr8vHhDuHLlSnn44Ycr5htEB2TQrVi7QUZPmqXWazNPb6qHudUJQtAL+HACc2BiDkvMy4vu3csvv7za8YuOX/w/77zzjuBESQiFazvBeDLVNujV9Jy9DHkpVSQ78MXx6OWXX5Zly5ZVHFs0dOaiixcfNJ133nlyxhlnRH3cwVQKOPbig1h8KwHz8F588cXVfiCLv+vo+F2/fr1ceuml6v9JJga8RERERETpw/dB76Ab/qaWk0bnSfdjnHn2UgHm48NXOhGMYR5BnFUvlfS71gokIwW96RzmVicoQW86izfoJUpVfjlpGzHgJSIiIiJKR76fozeV4Sue6PRBcJdqIa/WNDNDvtuwiXPmEhGlAT/M4ZvuOAcvEREREVH68nXQiykbtJwUPBFbYWGh+gr7xIkTpbS01N5a2bp16+Sxxx6Tp556Snbs2GFvDYaBJx4uQ/u0l++/sYJchrlEROmBgW/iMeAlIiIiIiJ29CbAt99+Kx999JFax8laME/pq6++KkOGDFGX7777Tu6991514hc3nPTl/vvvV1M84LapU6dKQUGBfav/bd1VqJYZ9RsyzCUiSkMMfL3HgJeIiIiIiDRfB73ueV3ztzvdvX5WVFRkrzkw9+wnn3yi1nft2qU6czdu3Ki6W6+55hr529/+ps4Ujrk+cVIrwIllXnvtNbnllltk1KhRoTdsN6r5P7Ozs9XtQfDJtz/J429/Ix2PPZFhLhFRGmPgax4DXiIiIiIiqsr3Hb3hTuLlVwhnEeBW1bNnT2nSpIlar1evnnz22WdyzjnnqPsDzgiOk6Ns375dXnjhBbUNZwRv3769/Oc//1HXNXT5Ym5fv9vsCuZzWgYnnCYiIu8w8I0fA14iIiIiIookMFM3bN62017zr5UrV0qrVq3sa5WhkxeduaNHj5ZHHnlE/vrXv8oDDzwgv//97+WOO+6Q008/XW699Va1D3Tv4n4IeefNmyfXXXed/O53v1Nh8NKlS+XUU0+19xoMQQrriYjIewx8Y8eAl4iIiIiIauL7oDf3mPZquXLdwZ2yfoLuXMzDm5mZaW+prFmzZnLWWWfJpZdequbdPf/88+Xcc8+V4cOHy0MPPSSNG+OkZFnypz/9SS644AJ1X3T9IuQdNmyYCoGfffZZueqqq6Rp06b2Xv1r4bKVasmQl4iIImHgWzMGvEREREREFC3fB73djm6nlpu3+7+j94cffjjohGrw/vvvS4MGDVRwi87do446SgYNGiSDBw+WU045RerXr2/fU1Tgi5AXt+H+WOL/6dSpk5r2IWjO7n2CvUZERBQeA9+DMeAlIiIiIqJY+X+O3pbN1XLFmg2V5n31G8ype/zxx6uO3A8//FC+/fZb+fjjj2XMmDHyzDPPSP/+/e17pofp85baa0RERNFh4MuAl4iIiIiIas//Uzd0PqLi6/96OgC/+vWvfy0XX3yxPPjgg6E3ZDeqJTpy//nPf0rz5lZgnQ7edD1PeYODNZ8wERElXzoGvgx4iYiIiIgoXoE4GZv++j+6RP3c1QuYdmHmzJnqJGrTp08PvTH7RSCnXIiHnk/57N7d1JKIiKg20iHwZcBLRERERESmRAx6y8rKpbCwSEpKSu0tZuCkZUVFRVJcvM/eUjN0hQalqzfdIYjXHb16fuVolJSUqPFWXl5ubzHD23FcHNM4pvSB8WGSn47H0cI+8TtiuhbBPFawxoD91bbGqRj4ehHwxlPj6gRzHJd6PI5L7C1mWDX25nUFa2wJZo39dzyuDmvsYI0d3h8rglbjogDWOGjHY+9qjPcMJgW3xt4dK1jj+GscMejds2dPaOfFamnygLF3b6F6wIWFhbJvX/QF0V29C99f5fuu3nQ28Zl5aolgPtqOXvwi79mzV4233bv32FvN8HYcF8U8jmvixUGCEs/0HxG/HY9rgnGMfeJ3BP+GKcE9Vlg1Nvn7HcQaY3/x1jgVAl8vO3hN1DicoI1j/Oz6d9q7cbzXgxpbrytYY9YYrBr793gcDmvsYI0tVo29PlYErcbFAazxXqPhW5BrjKVJQasx3jNaNfbuWMEax1/jsEEvQuP9+/fb16yk2hT3fvfvj36//XqfoMJDhLzs6vUndPLipHkw6tLBahmNAwfcY81ZN8Fv47gmpn9+Sg7Tn24GeRybfLzufZl8vOBVjb2rhXu/znq8KtfY3H7BZI3dwehpp52utvk98A33+Fq1am0k4NU4ji3u44OX4zgYx03WWPOuxs6+WGN3jc09ZtbYwRo7glxjk7Xwar/g3p/734mXV+MtEfs1X2P3Y/Z/jb36nfa2xs7+gjDeTNQ4bNBbp45I48ZZkpGRIZmZmWppSlZWI6lfP0MaNGggjRpl2ltrZnWIBmeu3nSD52PiM6+rdXTy4iR60apfv37FOMvKyrK3mpGIcZyZ2dDeGj88Tgo+jGmTgjiOsU/sO5bjfE2wP12Dxo0b2VvN8KrGjRolosbmalG5xv4/HiPwvemmm2XSpL/L6aefobb5LfAN93hat24jV111jfzjH/80EvBqHMeWRI1j/DumsMaO4NW4IWtsq1xjc3//WWMHa+wIco3xGtwUXYNg1djaX1DGsbc1bhTYGgdzHJt7n+7nGtcpKSlz4uIAGHHXVMnfsUvatmwm94/OU0tKvtGTZ6luXgTy0+651t5KtfHLX56vlhMmTJBu3azpL5599ll1wXVsp+RatWqV3H777ZKTkyNPPvmkvVXUNtx2ySVDZejQYfZWIkqULVvy5bnnnpO3337L3iLq93TYsGHSr18/e0tiIOCdPXt2pbAZwfQll1xiNNwlIiIiIiLSIs7R61f3jRxaMYXDmEmz2NnrA+jkrc2UDURERCb5YQ7fcP+eqTl4iYiIiIiIqhO4jl5YtHyVzJq/THX2Xjakr/Tvk8vO3iRByIu5eWH44FMlL3Sh+FTX0as70yi5tmzZUvF8sKOXyL8S2eHLDl4iIiIiIkq2QAa9MGv+ezIzdIEBfXLl0iF9GfYmmDvkxZy8993MYMuEcEEvggN0iJG/MOglCgYvA18GvERERERE5BeBDXrBHfZ279Jexl4+hGFvgjDk9U64oFd/FZj85ayzzqoUEjHoJfI3k4EvA14iIiIiIvKbQAe9wLA38fSJ1+Ds3t1k1PBBap3MCBf0UjAw6CUKhngCXwa8RERERETkV4E7GVtVmBMWc8PiBG0IH4ff8XBFpymZhRPfuUNe1J0hLxERBU24k6Ppb05EOmlbuNvD7YeIiIiIiChZAt/Rq61ct1Emz5ivTtAGPEmbWQjPMV2DhqkaMGUDmceO3uBiRy9RMFXX4YvjMDt4iYiIiIgoCFIm6AWEvAh7EfoCpnK4bMhp0v2Y9uo6xQ5dvBOfmVfRxYvO6VGXDmbI66GJE++TJk2ayNq1a6WoqMjemhrwc+Xm5sq2bdvUz5dKDjvsMGndurUsW7ZMzjlnCINeogAKF/i6MeAlIiIiIiI/S6mgV8O8vYuWr2Z3b5ymv/auTJ+31L7G+Xi9Vli4Vz755GPZunWruv7yyy/Lnj171HqqOOqoo6RPnz5SUFAgr7zyir01NfTv3191AK5cuVKOPbYrg16iAKsa+DLgJSIiIiKiIEjJoBfQ1Ttr/tKK7l4Ye/k50r1LBwa+NcA0DTPmLVXdvMAuXu8h3H333f/Y19D52lQyMjLsa6lj3759UlRUKHXr1pPs7Gx7a2ooLi4KXYolKytLBg4cbG8loiBD4Ltly1Y54YQT7C1ERERERET+lbJBr7Zo+SqZNX9ZRXcvDOiTK5cO6cvAt4qqAS+wi9d7X3zxv9DlC7WeldVYTj65h5oCIBWtX/+d6lpGkN2//wB7a2pwh/UDBw5SzyURERERERERUaKkfNCrMfCNLFLAmze4j+rmJe8gGNRTNSDcPe20M9R6qkrloBfeeGOBmoKja9euocvx9lYiIiIiIiIiIu+lTdCrMfB1MOBNnqrz8aZLMJjqQa/uzk6H0J6IiIiIiIiI/CXtgl4tXODbvUt76d+7W0rP44twF/MWY+nGgDdxqs7Hi0AwVadqqCrVg15O30BEREREREREyZK2Qa8WLvCFVAp9I4W7wIA3sdJpPt5wUj3oBU7fQERERERERETJkPZBr4YgdPEHq2Xl2g1hQ9/undtL/z65gQl9EeouXL5KVqzZYG9xINztdnQ7taTESbf5eMNJh6BXh/kI8tHVS0RERERERESUCAx6w6gu9AUEv21bNpecFtmq4zenZbOkBcArQo9x87ad6jFv3r5T8rftqjTnrsZwN3nSdT7ecNIh6OX0DURERERERESUDNUGvaWlpVKvXj2pW7euvcWM0tKy0D7rqH2bVF5eLvv3H5D69TPsLfFDgLpy7XoV/ObvKLC3HgxBb06rZqrzVwW/rZqr7VjXYg2DdWCbby8R6GIdj2PFmvVhA123fr1OUMFubucj7C3xKysrlwMHzNYY9u/fr56/+vXr21vMSeY4rs18vF6MY/BDjWMNeoN0rABd47feWmx8+gYejy2peqyoDdbYwRo7WGMLa+xgjR2ssYM1trDGDtbYwRo7WGMLa+xgjR1+rXHEoLegYLeUlVkPulmzZlKnTh37lvgUFhZJcXGxWm/SpIk0aGDmSSwpKZE9e/aq9UaNMkOXRmo9Xhhsu3YVqHDzpz3Fsndfmaxat0FWhi75263gN1zXb3V04ItgWEMnLtQU3oaD+XVzj2mvOozbhC6dj2gj2Y0aqNuCVmP8Ujdt2sS+JX56HGP8YhxjPJsQzTiuzXy8Qazx7t271QEumhrHEvQG+VixYcN6+eabr4xN31B5HGcb+wOViBpnZmaG6hC0ccwaWzXOCNW4qX1L/FhjC2vsYI0dlWvcOFRj63VcvEpKSkM13qPWWWOOY43j2MIaO1hjB2vs8KrGRUVFoQtrDLt37wnVuJTj2FXjjIwMyc72f439PI7D/oQoLkIFQIqs101AgbXycnP7RaephoORKUjSUQ84pEmm6o7NG3yq3HfzMJl2z7XqgnVchoe243YEr9Wd3AxhLi6YP1df9LbqYJ/o0MVl1PBB6t9e8I8/qCWu43HhtkOaOAMhaDV2j494uccx1s3WovpxjC5eHfIi3EXYF81J14JYY/04E13j2kpEjdu0yVFLdPXiEg/ss/I4dh5/vBJRY5N/P6qOY70eL+yn8jhmjQE1CUaNnZ/fZC1YYwdrbElcjf3/3HEcOziOHZVrzHGs11lj1hhYY4feL5issfu1tvs1eLy8rbH1OE3X2KtxnIga47EHocZ+HscRO3r37i2Uffv2iemuKewT+0aKjv2aanFGYZF645OAxo0bS8OGZtJ00N10mZkNJSsry94aPd3xqzuAIX/7zlAtSmTztp8kp2VztW/AurXMtpbVBMaRJKbGWaEaW4/ZhHhrHEmix3G88/F6WWP9iax3Na75081YOnqDfqx4553/qPFgYvqGRI/jeAX7WGH2U/og1tgPx4pYsMaOwsJCKS4OTo3xYhtdFqwxa+zGGjuCXGN0TWdksMasMWusJaLG2Cf2bQpr7PC6xqa7WINZY6vzljWOv8bVztGLxBvtzeRdLVhjR9BrXJv5eBMt2TVOh5Ox6VroqTtMTd+QqHEcBMkex+mANfYea+w91th7rLH3WGPvscbeY429xxp7jzX2HmtsRrWTU3CwObyqBWvsCHKNEerpkBfBnh9DXuA49p6uRYcOHdUSXb26wzserLGD49h7rLH3WGPvscbeY429xxp7jzX2HmvsPdbYe6yx91hjM8zMQkyUxmo7Hy+lNgT+uABOzkZERERERERE5CUGvUS1hE5NhLzu+XjRyUukdejQXi0xZUW8J2UjIiIiIiIiIqoOg16iWkC4+8YbCypCXgS88Z5wi1IPxoTu6sVE7UREREREREREXmHQSxSjoMzHS/6gzxjK6RuIiIiIiIiIyEsMeoliwPl4KVbt23dQS07fQEREREREREReYtBLFAXOx0u11aFDR07fQERERERERESeq1NSUnbAXieS/B27JH97gbW+fadawpYd9jZ7mdMiWy3b2Mucls3VEnJaWtsgp0Uzey24EO7qqRqAUzXUHrpaP/nkY2nSpKn07z/A3pr69IcECH1PPrmHvZWIiIiIiIiIyBwGvWlo5bqNKsRd9dUmtUSwi4DXK7mdj1BBMMLhbp3bqyA4KAEw5uPVUzWgKxMhHUPe2kvXoFf/3IDpPnSHLxERERERERGRKQx6U9yi5atUNy46cVeu3RBzoNu2ZTPJaWWFsm1dXbubXd2++dusfW7eHv2+EfQi8M3t3N634a97qgaEu5yqIX7pGvTCG28sUFOA4MMCdPYSEREREREREZnEoDcFIdydNX9ZjaHugD65qss2p2Uz6d7FOmEUINyNhw588+3lijXrZcW6DTUGwuj81cEv1pMFYRzCSPd8vF27Hq/WKT7pHPTi58bPz+kbiIiIiIiIiMgLDHpTAKZiWPzB6ogduwh0AeEpAt14g9x4rQg9TrV0BcBVw1893UO/XicktNuX8/F6K52DXk7fQEREREREREReYtAbUOjaxRy71YW7lw7pm/RQN1oIf3Xwu2KNFQS7nd27m+ehL+fj9V46B73A6RuIiIjo/7d3JnBSVFfbP8zC7MMM26DiIKLgwmKiuCDEjUURjdH3cxsEYkz0Na4gItGgEhWJQhIlKlneKDCuETEiixLckM2gshhlEWVTQGBgdmZYvn5u1Z2uabp7eqnqrp5+/j+Kqrrdc7v66dO3u586dS4hhBBCiFPQ6E0wYPCq7N31W8wWg17dimXg2T1ckbEbLVbT1zfbFyZvyeA+0rNrsa2GL+vxxoZkN3pZvoEQQgghhBBCCCFOQaM3QfBn8CJr1y3lGJxk/uJV8o7n+VtNX7sMX9bjjS3JbvSyfAMhhBBCCCGEEEKcgkavywlk8A48p4f06lpstiQHMHmnz16ksn3tMHxZjzf2JLvRC1i+gRBCCCGEEEIIIU5Ao9el0OANjB2GL+vxxgcavSzfQAghhBBCCCGEEGcIavQePnxYWrRoYe4lN05p4dsvjN3SOYto8IZAMMMXk7dpfDVO5nq8sYrjQCSD0duUFpGWb3DqtUtE4h3HyQA1dh5q7DzU2HmosfNQY+ehxs5DjZ2HGjsPNXYeamwPqb/97biHzO1GVFVVS2VllRw4cFAyMlqardGzf/9+KS+v8KzrJD09XVJSUsxbogPHiX6rq2s8faZKWlqqeUv0GP1Wq+DAMduFr8alcz6WyTPmyI495ep2GLy3Xt1frryod7OuwRspudmZcu5pXaWPZ6mq2S9V1bUe7fbJklUbZPX6zSq7t8WhQw0aHzxYL0uXLmlUj/f003ur7XBJxDiuqKhQMed0HAdj37698v3330nLlhnSpcsJZqt/mqvGBQUFsmnTJqmvr5dWrQrUflNg/OF4bOBUHCe2xikejdPMW6LHeY0PeDTOMFujhxp7SbQ4PniQcayhxl6osRdqbECNvSSmxpUJq3FaWmLF8aFDhz2/s6gx4xga13m0KE9IjZ2K4/r65NHY75EgePHmAzAjsNiF7vfQoUNSV1entu0AfaFPoB/DDvDc8aYDtbX29WvVeNX6zTJi3HMyY87Har9Xt2KZNKpERg+/VJjF2zQwwaHVkx7NYI4DZESPGDdVlcAAP/ywU9VG1SYvsnijmXQtEeMYAxtwKo45VjTWGNoEQpcJ2bVrl1oHA/3o18xJjfEBZRdu0DgcEl9j+/qNjcYHbNbYeP7U2Mk4dkZj9MU4NqDGBtTYCzX2Qo29JKbGxvNPRI3t/A3SWGPj2O3AGsfolxo7pXGixbHRbyJq7FQcw9dLBI0b/waJTGO/Ri9SmrVrjO3UVPtcejjdGnv79WaMpafb129qampDiredZ260xjPfWyGP/N/shizeYUP6yqSRJTR4I0AbvjDJdQb01Dc+kDnvfSyff/6p2sdl8nZMuhaLOLbz7JjTcay38Th2kega621/tG3bVq1RxgETswUjVhrbqUVsNE4LqnE4UGMviamx9/knu8b6+w81psYaauzFOY2d6TfxNXb/a0eNvVBjL7HR2L7fY1aN8RjU2IAaU2NgaGwcZ6JobPU+ItU4aI1euN0Qwq4UZA3OVqSk2CsywKWKcOz1m8Uu4KYjfdpOgwyM+dNLDbV4kcU7evgQlmiwkSdeeFt2fb9Ffty5UO23KiiUiy68SG3bAePYS6hjRbg1epuzxsgwh8mLCdkwMVtTcDw2cEMchws19kKNDaixF+iAS/SoMePYCuPYIFE1xo9pO3/0AmrshXHshXFsQI29UGMv1NhLsmkc1OglzoA6spOnz2kweZHFO+yyfmqb2Mv0f70vB/Z9L19t2ydb9x2SiXddqyZsI/EhGSZjCxXoAD1g8sLsJYQQQgghhBBCCIkGe+1s0iQweVE7Vpu8KDNAk9c5brj8fPnxWefKtvJDDdpjTUi8Cad8AyGEEEIIIYQQQkhT0OiNIdpo1MDkZS1e54HGmKhNl8WwTtJGSLxAJi9qRgM9SSAhhBBCCCGEEEJIpNDojRFWkxeGI03e2ALNrWbv5BlzG7KqCYkXelLAzZs3qTUhhBBCCCGEEEJIpNDojRGoyQtgNI4eMYQmbxw4wuz1vCYs40DiSXFxJ7VGRi/LNxBCCCGEEEIIISQaUjALL3EWa/YoTd74YjV7YfKO+ePLNHtJ3EBGL8s3EEIIIYQQQgghxA5URi/NXudALVhdD3bYkL40eV1Ag9nbtkCZvAuWrjFvIST2sHwDIYQQQgghhBBC7IClGxwEJiKyecGgPj1l2GX91DaJPzB7B57dXW3PmPMxs3pJ3GD5BkIIIYQQQgghhNhBg9HLrF770ZmiMBVHD79UbRP3AOMdrw1gvV4SL1i+gRBCCCGEEEIIIXbAjF6HgGmITFEw8Jweak3cB2omw+xFDeVV6zabrYTEFpZvIIQQQgghhBBCSLQ0MnqZ1Wsf1mxelmxwL6iZ3Kubcen8gmWs1UviA8s3EEIIIYQQQgghJFqY0esAzOZNLPRrhKxelm8g8YDlGwghhBBCCCGEEBItNHodgNm8iQWyenWt3tI5i9WakFjD8g2EEEIIIYQQQgiJhhSWa7CfVeuNWq/JlM1bV1cnr732muzcudNsSSxuGNJXrd9dulqtCYk1LN9ACCGEEEIIIYSQaDgio5fGb/SgBECycPDgQfnrX/8qw4cPlz179kirVkZmbKLRoW2BuWWU3iAk1rB8AyGEEEIIIYQQQqJBGb00d+3DahImatmGQ4cOSVlZmbkXmE8++UTuvvtuad26tTz11FNyyimnyP79+81bEwtr+YZV64yMbEJiDcs3EEIIIYQQQgghJFJYo9dmtEmoTcNEAFm5v//972XRokVqf/78+fLZZ5+p7WBs2bJF7rrrLlW2YfTo0TJv3jxlEicqvboZl86v3rBVrQmJNSzfQAghhBBCCCGEkEih0WszO/eUq3VR28QxelNTU+X888+XDh06qP2WLVvK9u3b1XYwBgwYIE8//bTs27dPnn32WXn00UeloMBbAoEQEh7W8g2bNn2r1oQQQgghhBBCCCGh4NfoRSkHXIJfXl4hNTU1Zqs9HDhwQCoqKqSy0t5sNRwz+qyoqFSPYSfV1TVKi/3768yW5sePf/xj6dy5s9ouLi5W5m1TzJo1Szp16iS/+tWvJCsry2xNXIpa56v1jt171ToYiR3HwctroPwIFtSa1tvWkiS+cKzwYsdYocs37Nq1S61BLDS2q4QPYmX77n2ybNV6z7JWtu3c02QMhUOocRwuWmP0bydOaAzcMFaES+JqXEGNqXED1NgLNTagxl6osRdq7IUaG1BjL9TYCzX2gt+6iadxpQMaS9Qat6itrVNH1KJFC9WgKSvzml35+XmSlpZm7kUHBNYHC3MwKytTbUcLgqKmplZtp6enS15ertqOlvr6evXiAWhUWBg8Y3XyjLny7tLVMqhPTxk9/FKz1d1s3LhRxowZo7Jxn3vuOWXyTpkyRcaNG2fewz/Tp0+XV155Rbp166ayeTMzQ3st8UbDY7Rv317tr1q1Srp37y4pKfFNMJ+/eJU88cLb0vPEY2XindeZrf5JtDie9/HnsnX7Lvlhb5Unjj3v74pq1b5jt5GBHo4JV9TayFYvamMY4/X1B6RdYb60K8iR0089QY5uX9hwH1+QpbpixX8kNzdPBg4cZLb6J5HHCtC6daG5FR4o2/DRRx+o7YsvvkRl+O7Z462ZHY/xWJn+u/c2KmuCfR0/INwY0vEDitoUNJxo6XFisbrNXwwh1vCBp4lUY384pTGOF8cNEiOOrRq38Ghs31UaVo3z8vI8x51I3yvS1DHbQazi2E6NYxPH1NircabS2Q6osRdq7IUaG1BjL9AXOgNq7LzG+J6J75t24KzG8IQMA8tejSs9x12vthMhjvE9E983NYkRx85rbGccx07jXI/G6eZedLhZ49T773/gIRiYvkYv6q5qVxoGnl0mHAYi1IQFGRktbfsxjT71gIw+UX7ADqCBzs6DBk2ZmUtWbZCNW3fKCccWybmndTVb3c27774rQ4cOlXXr1imz99hjj5WFCxeqcg7+XvdXX31V6Xveeecps3bHjh0yc+ZMufDCC0N608DY/ec//ynnnnuu0hcTueEx27Zta94jPiz+fJ2sVDWWW8gVF5xhNAbAuTg+1DBYRBLHMORWrd8sb77/qUz950KZ9d4Kmfr6Qlm25mv58tvvZdP23bLp+92yY0+5Wqpq9qslHPTf6D527a1U/aL/fy//Qj1m6ZyPZbXnOFDKZLXnmKAp/h2oq5Xvv//O87wypEuXE4wOA+BWjQOB4VKffQxlrAhETk6ObNq0SR0j3k/t2rVXY5DT4zF0gB44UbXUM44tWPaFiiHEz4JlaxrGNr1Y4yeSGNLxgwX9GbG7RT0WYmjBUjzmerMcjhE/2ZkZtmjsj1hqbAfOxbFxRQ9wUmN8GaLG1Jgae6HGXqixhhprEl1j9Ot+jfFbmhoDauwF/TqjcX1CaQwNEi+OqbEm0TQ+dCh6jVvU1Ow/7M/oxQcqzF6jY3scbwCBa2trPY+HFy/DbLWH2lpjIEK/vs8nGqDDgQMHldmEerbBgME1w7P06lYsk0aWmK3u5p133pFnnnlGBRDM2ltuuUVl8z7wwAN+g2rx4sUyY8YMZdAiPhDcr732mvznP/+RRx55pNGbEpOzPfjgg+oydEz4hrNUeI0efvhh+c1vfqP6/+qrr1RW8eDBg82/ig/T3vpIps1eFFJGr/NxfEjp2FQcw5RDliUmAWwqoxIx2cGSOVlkmTCwQ1sja0+3WScTxGX4YIe5Btt3IZvTuw+zbjsyPHcZl+0HoveJ7eW0Y3MlrWWmnNWnX8DMX+AWjcMhnLEiGF9++YVn+VKVcejX7zzVp1Pj8ZyPPpP3V3wlP5RVNBlDuFIBBIqhRvs+MeQbP8DatnK9J4abiB/QvUtHOfX4o2Vgn15ydDv7zvQ6qXGyxrEv1NgLNfbihu9u4UCNvTilMb5X4kdZWlqqR2O7jBCOFVac1Xi/0iBxNK73aHxA6QA97CLRNNb9NleNw3k+0Y4V+PtANAeN7TjuUOI4mI7BSESN0XcocRwO0cZxMJrzWBEObta4wehVO5YO7HzBkgkYbyjf4CajF2USWrUKbKhp9u7dqwzfsWPHyvjx4+Xee+8Vf+nnePONGjVKJk6cqAIPIMhfeuklyc3Nlcsvv1y1ga1bt8qyZctU6vkpp5yiagEDmMSo7Yu/Ly8vlzlz5si1116rbosX2ugdcHYPGTn0ErPVfWhzF2t/wGDr1a2TMuNgvGHbaro5jZEV7Vmv3XSEeXdcuxwZ0KNIvt9bK7M//U6Z6iWD+3qO0/+l+smKv/INdoLYKZ2zOKCxq08K4PXRBm6sY0ifTAhmAOP4ep5YrMo9YJsQQgghhDSNr4kWqamWKPh6G3Z6HdTSHi2TTUcrTsYnSU5o9NqMNnrBgqlj1TqewDBau3at9O3b12wR2bx5szz22GPKhPWlR48eqt4uTNuSEv9GNbJ0hw0bpoxhX1D64W9/+1uDAVxWViY33XST6DT8QFxzzTVyww03mHvxYdTkUlm5drMMHXyulHgWNxHM3EWWJUyuWBu64QLzDubv+m+3yKbte+W7XY2NO5q+jZk3b65UV1fJySef7FlONVsjJ5i5mwgxpLOCEUPvLFl9hPFL05cQQgghJDjaPPNdg+ZqrPnzOPz5H+FCLe3RMhl1tOKEpiR8Nu/YrdabdpRJp6JCKS5qo/YTFRq9NgMTZcS4qWp7xmO3xt00ef/996Vfv34Nl3t98cUXsm3bNjnhBP/1UZHBe9RRRyljNiPDf/r5t99+q7J+H3roIfGtyYvHKS4ubhQ/O3fulDfffFM6duyoJm7zR2FhoVriSf+bJ6i1W4xe1CstnbNIrX3Rxpy+lD4RgfE7bfZHfrM1tembzIadb/mGSGjK3B14Tg/p1bXYbEks9IkDf6YvThT09DyvksF9eNKAEEIIIUmPPzMNCxJ4gF43N2NN/ybVNTmxRptu912HArW0R8tk1dGK3ZqS0ICpC0N30er1UvruJw0mry8we/v1PEH69ugiJQPOMlsTAxq9DgCjF8bK6OGXxt2Ie+GFF2T48OHmnqgSCSjPgEHkpJNOkgkTJoRV8+vTTz+VP/zhDyr7duDAgWZrcN5++231uKjRi4mm0AfMZCwrVqxQpnMopSWcBEbR0N88o7bnTrlXreNFIIO3OZi7gQhk+iaz4RtN+YZABi9i54YhfV2d+R0J2vRFmQdk5VtBKRYavoQQQghJVvwZaahZiW29Rpv1fs0Bq8ehDTT87tXrQKZaMKwaad2oZfhaWvXRmiWDjlasWtkVnyQ4MHQnlM6X0neXmS2ho03f6/ufqdZuh0avA6B0A4wWmCowe+MJJkI79dRT1SRrbdq0Ua8rsnU///xzWbRokYwcOTLga43BFRO1VVdXq+xeGLRYUIP35z//uXmvI8GkbNu3b1cD8pIlS9Rka/fdd5/K/kVmL8o7ZGdny4033qhM46KiIlUKIp7o+rwwg54ff7PZGlv8GbyolTpsSL+EzbqMBG36Wg27ZDV8wy3f4M/gba7mbiACZfrS8CWEEEJIMoLfZNo404Ya5lw5nJ4p9S1S5cDhFnLIAR8txfMTs2VqC8lOT5Hc9Ph6C3jemMUekz3V1x8QTKipzTRfQy0YgbRMTzcm6MTvXfTXnLFDS+rYGDs0JYGBwVu6YLlMmDHPbIkOZPeOLRnk6vIONHodAGaLrtMb7/IN69atk8mTJyvjFYMnXleUZ+jSpYsqvRCoPIMVzCQ4depU1QcMWZhOTbFr1y6VOVxVVSW33HKLdO7cWSorK2XmzJkqG9ht8YVsXpXVG4eyDTR4/UPDN/TyDTR4/TN/8SqZPnsRDV9CCCGEJCW+hhp+Dx44LFKXlin1h2L3ewyGb+vMFLWON3V1dZ7fqDXKQIOhFqqZ5k9LrHNysmydyT+RiERL6hicSOOT+OejVRvk0jFPm3uNgVFbMqC39O1xYkNdXmutXmy/uGC56sMX/bdjS9w5iT+NXofQ5RuGDekrwy7rZ7YSN2It24Bs3lgZQDR4QyOZDd+myjfQ4A0NGr6EEEIISTa0oYZFZ0zWHzostWnZjmTwNgUyfNtnp7rC7IWxuHdvucqa1NmT2kjz54P40xLrgoJ8ZcIlM+FoSR1DI9z4JP5BiYb/nfyiuWcQiUEbLCN47NCLXWn2pj7wwG8f0sFiDRoGUHRU1exXBh5mie9zWlfJzc40byFu48HnXlevEwwfZPTGAmR8T33937JjT7nah8F774ghyuSlQdcY6DHonJ4ejTopQxOvFXRbsGyNYJQq8tyem9U831+oab1p0yZ1KQ8uYWrXrr1qx9gyecYcmfX+CjXWABi8D//vVR6tenC88eGEY4vkyot6q1jZuHWnVHo0w3rJyg2Sk5UhXToWmfckhBBCCGlewDSCmYZMwQMZuXLwcHx+58Nbrjskktsy/oYevI6UlBZSXW1kThr7TWdNWrXMy8tR38+TnUi0pI7BiURT0hgYvBNKGxuzMGVfGneT9Ot5otkSGq1ys9XflAw407OdJYssGb7Y3ryzTIZ4foO7CRq9DgFDASYCjKncrAxlUhH3obJF31qktsf96kr1ujkJDLoxf3rZszayU2nwho4/wxd64n12fMcix1+7eFFfX6dKoWBM7tTpOCmd87EyefVJAhq8oeNr+CKOlng+nHd6tDy+Y/tme8KAEEIIIcmFNXMSWZNYDqVlSJ2kmfeIDwcPi6SmtHBFVi8yJWE0wnTE92wYaRqrF+JPy9TUFMnNzTXvQULRkjqGR6jxSY5kQulceWaWcVUsQBbvi+NuUrV1o8Fq+Fr7X71xm+dFkbANZCeh0esQMAx0Vi/MxIF9etKEcSG6ZANKADidzTvmTy8pk05nYGKivluvHkCDN0y04QuM7N59zTy7t4Vs3rxJTYr40sJVMm/JGtWqTxLAuOTYEh4wfHGlBd6LX2/Z0ZDd25xPGBBCCCEk+YBJhEUZRhk5IWXzPv3KPFn+xQY5q7szM8sjszcn3S2X6R+W2tr9ylTTZhrW/rwQq5aoJ8ssVF9C05I6hkPo8UkMUE/XWq4BJu+cib+Wnl06mi3RA8MXZu9sz+/yfVU1qk1l+XpeFreYvTR6HaTnicWyYOkaZSYs/nwdSzi4jCdeeFuZPOD58beotRPAiPzdX95Qpj+AQTdpVImcxizvqEBmL95TX2/d0ZDdC8OuZ9fiZmX2onzD+g1fe74QHZTvdu2T7/fWqtrfMHl5kiByMBaf64kfa3avPmGAsZsQQgghJBag/iOMA7tB5iQMNWRO7t+/Xxm9TZXmXb5mg4yd8qJs+2GPlFfVOGL2oj5wfkb0Ru/0+UulIDfLs0SuHWqf7ttXroy0pmrLWrUsKGgVll/y4cr1Muiep5TZ1KmDe2fqB2s3fiPPvzpLdpXtlW5dOputTROKltHqmGyEGp/ES48RD5tbBsjkbcrkxRj8zJsfyKLVG+Tx0nme9deyr7I66N9hzB5yTvdGmb2bd5RJj+OPkU5Frc2W+EGj12GQIbZ6/RZlIrCEg3vA5EzTZhslG5DJ65SxA/Pxtsef97z+xmX22qCj4W8P0NGa3fu1mZl5Tq8Tm43ZiyzwlWu/kaMKs6Si7rDcMeynqlwDsQed3YuTcajdi/csSzkQQgghxClgKtz3l1ly39Q3PMtMlRX29pJVylzoefzRtpm+1svkkT15OKPpS+S37dwjb7y3XCqqalRWL7Db7IXZ3CpKoxcm76+emCFvLV4tl3m+F0dq9sLzgJGGrFKYaYEyJn21hEEZKsrkHfUn2VdZIzcMOtv1Rq/n2csrb82VPWV7pbqmNmSzNxQto9ExGQlFU+IFmbyqjILJ2xNvl349g49fKPNw/fi/q4xcVW93xx7Vx9tLVkvpgk+UmRtoTEZ7354nyosLlqt9ZPfitXFDvd4WNTX7D+tAsQYMg8c+YNTM8CwARt+wy/qpbRIfUEpj1KRStY2SDRPvvE5t2w0MI5Rr0CCLt1dXZgo6BV7XJ56fLdt371P7z4+/WU2wl8ggfnQmeL+eneTBX1+vtokzTHvro4YTQBgbRt4wOOFjiBBCCCHuQc8C/+zI65UBgcuKAS43XrR6vTIaru9/ZlS1JLWZhgUT+iJzsqqqUloUHm3eIzDI6L1h3BRzz+C2ay6W2z2LnRTnR14rWJu8Ghin85+8I2IDddOmzZKTkysZGRnKUIMPopdAWnbqFNpvOm3ygvmT7pSf9HJPDc9g7C7bK/c9PlnaFhbIOaf/SC4fcIF5S3ACaQmi0TGZCRafwcAJJYwr8QJjW1Mmq53g+XYfMd7cMyZeG1tyibnnn0vHPN2kRngea54fZ+75B2bxhBneid9CMZidhkZvjLCavajNyoy8+GA1eWHgwAx0AqvJi8vrnxxVwsvsYwBM3ns8r682e0cOvUQGnO2uGTBDxWryYrzAuEGcB2bvO0tWqxjCGDHxrmtp9hJCCCEkamDyTiidH9Q00PUlUVNSm8Dhog01fYl8bW2tVFZWSGqbpmtUaqMXWby9Tz1BprximBd2m72RGr2btu+Wk4Y+aO55icbs/eabbyU3N08yMzOPyJoMpGXnzseZfx2YRDV5NZGYvYG0BJHqmOwEi89gwMTctKPM3Is9MF5jaXhi3MQYqymfa7z3AoGxFhqFQlOmsa/JjOeM5x5PaPTGkBHjpqoSDoBmb+zxNXmdMnB8Td4Zj92qtklsaA5mL03e+EKzlxBCCCF2AiNg8Jg/N5kZBmBAPF46V2X9RmL2Ws1JnT0ZidE7bfxtMnPhclWzF1x54Zky4TZ7ri6L1OiFeYps3vtvuKQhq/f+YYNlxjvLojZ6dcZkIKPXqmVTBmWim7yacM3eQFqCSHSMhPoDB2TP3go5dPiQtPQcQ+tWeQG9LRzTnn0VUuc5plTPsbYpaCWpqUeWFcH9PvvvOnl1zkLp1rlYrrr4fMnPzTFvdZZg8RkMGI9jSwZFdXVANMT68fMvudPcEjV2NvW4vsawNmcxVpcuWN4oQzcU41ZfrQFCyQJ2GrdMd5kUWC8lx0RgMBNIbPA1eZ26JBtGvjZ5MekaTd7Y45tBPXnG3IYTLIkAsv+1yQuDlyZv7EF5nYHn9FAxhNgpnbM4oWKIEEIIIfFFmQXmD391WW/pfCkZ0Nu8NTgwFWAU2HXZNUyqSLGau1bTN17AMP1qxsONjNMHhg1WbZGWbgChahTK/awmL44T+49Mm3PEghIUuA1ZyvEAJi4mXvvXu++p5R+vvXHE8q8F70m34zuridmWrPhM3a8pQtEompgMRFVNrYx87CnJ7dFfOp77Uynu+zPpcNYQOXng9fLe0k8bPSa2335vsRzT56fqPrgvtgt/PEiemTFTDh48ZN7TuO+kv78kZ135S5n0t5fkV/dPlLOv+qVs+m67eQ/DXL5p7AQ5ZdD1jdrtwgm9mhNWwxaEkkXs+zf3mRm7GHuRvWvtI5TMaOv9Mf7bNX5HCidjizFXXHCGLFi6xjMQ7VfmIyhqW8DJuRwEhjqMdaCz87p0bK/27USZvH98Wb22MIimPvAL8xYSa/B+sk6wlSgTtMHgnTxjjtpGPe+r+p+ptknswcSZldW1apzeuHWnih2nJm0khBBCSPMBBsKlY6ZIzy7HqBnYMUHPvqpaefzmK817NA1mfMfkbNFM6gNzSF8qX1e3X1Kym05y0ZOxdWzfWn52gfE99OTOx8iVnu0XZn8gX36zTd0+fMh56rZIiXYyNkxsNmXm+2obRm80lJWVScuWGeqy+NTU1IZsSasf4qtlYWGheUtjYNqefcvj5h4Moj3y0cr1fpe3Fq9Smch4HnqNWf6jMaxDAWbtk3/5hyxYtEQWr/hc1m38Vi1bvtvud4EhDKpra9UEbT869WTJDvCbKpCWmlB1DJea2v1y/d0PyYxZ89VjpHsev6hNoee7fI2U7auQ0n+9I6ed0lVl44I33vlQrr79t1Llud3KgQMHZd6HSyXH81vynB91V8e+adt2uXXcJDmqfVv54KU/S/u2hTJz/gfSoV1rOfd04wrtl2cvkEf//IJMn/Sg/PjUrqrNLkKJT388M+sDZT4ipqxgfMJkYxiTOhW1Vqbk7CWrVVtBbpaaYAwm5aJV6xu16b/Dovv016YJ9PhO8OybH6pjAMjkDSWLuNjz3DGJI57f2JKLZYjP1fY4OYexG2A9dmjwer/QaNFqYzI3sMUzlsYrmxowozcOILNXX0qOiX+eeME7gRSxl1GTSxtNruTkBF2Tp89pyPobPWKIWpP4Yc3sxeuCEyxuRp0osGSDc9LG+IPXAIY7QI11ZFsTQgghhAQCBomuw4usMPzQxxqXEoeDzuiFCeMGjmnfWhY+N06tYQZfeMt4tSaNgUn7l9FDzT3vvr8FJSduGHS2yvqFQYwFmcAoSeFEli+yd8c+PlneWuDNykVJBix9zvhRwAUZvZoRV/9M2nju7zY+/WKtzP/QyNAc9rOLZfeKubJ50RvKmIUpDXP5ry+/KbX762RX2T556Km/q7aC/Fz58OVnpH7th7Jt8Zty/lk/Vn38bsrzqlQD2LOvXMrKK+SsXqd4tCiWXicbmZtfbtik1v9d/43c89jTcu/NJXJRn9NVm1vBmIKrDLC8uGC5akOZAt2ms1BROka36WxWjGu6DWBs0vu6r3ihjxv07dHF3AoOxmaMyyjJ4GvI+o69oRq2fcPMAnaSgEYvzmZUV9dIXV292WIPOMNSU1MrtbX7zRb7QJ/o227q6uqUFgcPHjRbogd1Q68bdI60L8yXlWs3q5qi8xevMm8l0aJKNUwuVdqC7l06ysQ7r1PbdmDEcU1DHFsvt580qkR6dWXmnxuAyYtL8IHVqNNjhedltBWMl5GOFThRAHDMk0aWqG0Sf2D2wngHiKFwSzjE4jMPj2En0cRxMNCfc98rvOOxnTinsf3fKwA19pKYGnOsANTYCzX2kigawyBBXcpj2haYGteZtwTH9zJiZMKhH9T1hZGiTQcnNW4KmLzTx9/WYPailq+TZi9KG2DiNZQ38AUGKpZgtW/xtyiREC7RagzzFkYuUAbuDo9WnjbfBZnIuB9q+KL0BIxfgOc96J6n1LZdICv3yan/UCUYAMzbx+8bKRPM5ef/72d+lz6nn6YMYnDPzT9vZPpGAzS2M4YrqqrlgPkeHnJhX8nKzFDbPU86Qc7ocZLaRmkH3Gfzd9tVli645fqfqcxd0L5NoTx0542Slpoq1Z77IusXYB/1e3fs3qMyh+vrjcfJz8tR+7+ZNFWO63iU3DH86iazbGMNxjenxmNMqGc3kY7HVlPWX11z72de0+Mx+vKdpO36AFfZ4uPIOlb07eEdj6zHFAnoE9+9I/3MC2j0VlZWqhcPazu/XFR53oQ44OrqalWE2y4gBPpE35WVVWZr9MDwRn/QoqKi0my1h8v79ZRf/ewn0q4gT2X0orwAzElm90YHSjWgHq82eR+4cYiMHX6JA3Fcq2Ju8/c/KAMIIPuPJq+7gFGnJz58d+ka9XrpsaKqyu6xwhg3wx0r3l262luXl9ngrmP08CHKgAfhZobH4jMPj2EX0cRxU6A/575XGOOx/qJlB05pjOfu1PcKamyQuBobY0XiaJyIYwU1BtTYwAmNkcWF7C+vxlVNagxTAWUafEE/yAwuLipsMHud0jhUYmX2wuxsKrMV5ihMUn/oDNlHzXq44WCHxjBytdkbyjHAtLbWGsax68nm7OAfr75hbhmGLZamMnNh8MIcBnaavACmG94fdnHS8Z3kmKJ2avvt9z5WNXPBlxu+lVVfGdmeyMTNycpUpRxg0IL83Gy11sAgbtkyXW2v/HK9ygA+8bhj5SdnnibvfLRc+g+7U9XixYRoQy44V557cZZ8uPxz+dNv75I2Bfnq79zC4cPGxHfWOO7kGUvGDr1YLTrzFeakbtMmKYxN3aZrz+LEE/ZHXzvA7LNORl19kWoLZISGg13jMZ6jL9bxGL91gqEzljV4/loDX+AlWMcK38eO1Oz1fubVRvyZ59fohWmMVHaNnWdOrf0eOmRfvwhkjZ3H61S/AFqcfNxRcv+NQ6T/WaeqNpiTQ3/zjMrupeEbHtDMt1QDTF5oDJyK44XL/6vWMIJ4ub07uWFI34YSDguXf2G2OjdWWOMjFDBhHIAhzRMF7sM3MzycrN7GceHUZ1N48RYM63si3DhuCqc+/639Ovf5b58W1ueeKBo31oIaa6ixQWJqbN8xU2MvzmnsPUY3awzDVv/QD1VjmAowh4OVdkDpBxgwuMTaKY3DwWmzV5u8AKandTIz3BYIfR91v3eWqb8F4Zq9dmkcrtkLcMzzn7xDbeO5+stmDhcYtuFm5Tpp8gK7YxcZtc89Mlryc3PkhZlz1cRqx/3kKul7zf/K3vJKGdTvLHnw9l+ojFsYwoX5eerv5ry/RPZVGIk/GGfeXfSJyuYFOgMY5u+Uh0bJpRf0keUr/yu52VkyfdI4ZRJPeG6a/ObWYdK758nqb9yK1ltPNKbLygDj6gGjTRuauE23aXTbPVf3V/sd2xXI3VddoNp0X9FgHefDGY+tZRuAv4xea3/BYg9juG9/epI2fzT12RRp+YZItbDidzI2rFJTU9QDtGzZUjIyjNR3O0ABacxiiGLS2dnZ6rHsAP1BhJSUFpKVlaXOstgBjlfrjH7T0lKNHRvAMULjwvxcOe+MU9REP6vXb1GTeS32DOpfb93heZWNiaU4WVtgYPA++9oCmfnv/8gO0xwfOvhcGXnDYClqna/edChg7kQc76mokd+bH9pXXtRbTeBE3AfeP3pirS82bpOLzuwueTmZDo4VmWpMCgVd9kOVbBjFkg1uBe/td5asVpP7VdXUyTk9A18qaKXxZ15Ww+dstDj3mYfPJWM7nDgOBf2Zh+8VmeYldXYAjaEFNabGGmrshRp7ocZeEk9jo183awyDAAbDi+NuUvuhaDyhdK7MXrJGmbyYFCkYPY8/Wu6bOktuv+rCkDXG4+O+xsRXdRFPxuaP/Jws6X9mD/nq221qgrYFy1fLyccdo8zfUAg0GRsyWa1lCzDpmu8EZtCq1wmNJ3iCKXrvs683ui/+VoMJki7r01NNvuRLWdlez+vknewKa/x+TEtLV/EGfLUMdRIxHCeOF8eNY0KpCW1ABwLHiONd9fVWdd9g5SlC4a0F76tJ1VBvt3/fc8zWwERj8vpqifi0xqjWEfoiw7KoyL4J0jM9v/VRouLzL9erjF2Uc8DjdWjbWu6+8Ro57ZQTVQmGglZ5snHzNvnsv+tl83c7ZPZ7i2XVlxvkyb+9JNNnzVOlGnCMnY7pINddNkBapqcrA/naIf1l3O0/V3117NBebh33pBzVro08PvpWz2O3NI/CfgJpGuy9D5598wPpc2pnTwwe2zBWIMP0+t/9vaGmLiZKe7x0nkx54z355wefSmVtnZzmuf/1D/9NXvtghWo74Zj26nfqtQ//Ve3PWrRKrux3mpRVVsntU16X1z/8VF769ydyzYVnqD414U7GZoyZxnY44zHeK9Yawf4mTQtlPIbBO8GjhRXU7w2UzQvwGWIdj/Hetfbxm6EXq0nawkV/5uE1Q7+RfOYF/AuYYvn5eapjO4EI6DfX82ZpIjbDAiKgz7y8vJCDIlSgAY45w+Y3sK/GerIwTNSGCcOQ3YtyDpisjRm+R6IzeKGRLtMA7VCLt2TwuWrf0DjfsTheYl5mxWxe94PXB68TwOvm7FgR+o8mlJMAOmOUuBdkhgOU2gg1q7fxZ559H3qx+cyz78c/cPJ7BXSgxtTYCjU2oMZeqLEXauzFDo1h2GISHmtWrj+NrXV4sT1hxjz1N8GMBI3OUvvO83vQCY1D5elX5smwcVPUgkzeZWuM7DcYxPdNaXzJcyTA2NS1agH2kRVrXZAp6wvMUN/7aYNU99GUwaqxO451Zm+ojw+KTeMf5rBddOt8nLnVNJigzYlMXk1qaprS1y5QnqH3FTfK31+bLUVtCuUP998hLz81XkZcNVi279ojI+59VO54+A+qpAOM3Ifv/qVceI4xcRomU/vbq2+pbN2H7/yFnN6jm2rH/fy9/jAMn3vxDTUB3O88/cz/aJkcfc7lkt7tJ2o978PAWeexpYVkZmY2imNkmMLQxKLLxcB0n+P5PYoFzw0cksMNbZrP1m1R+3OXrVF95uTkyrzlX6i27XvKzXtFRyTjcSjlEkL5zPOdUA7jclNjs+9YEW1dXg36Qp845kg/8+w5HUpsBRO1Tbzr2iMMXz1hW7IbvsEMXmgHwzxW0KRLLPTrtGq9ETfxBmahNgwHmnWEiXtBaQ19siDcWr2EEEIIaZ4sWrWh0SQ8/oABoGeth8mLdVPZYr7gvvGYyR0m7syFy2X5mg0y5ZV5ytzFYi3XgEzes7qH/lyCgVq1vmYvzFK9+MP3PthH2QOsraZvvMAxof5uqMeh74eJ3KJl3ddG2YZQgbmLCdqcMnmd4P/++bbsKtunzNnpkx+U24b9j1w16Hx5Zvw98j8XX6DuM+2NebJi9Vq1jSzfOX+fJMtm/lUZwm88N0G2fDxLrrn0Ivl2y/fqPscd00HV9PXlk1VfysSpM+Q3/ztccrKz5NcPPqkyhfG3KPdwywNPyLdbjT6I8/iWaoh0jPQt2YDxOVx8H9tfGYlYQaPXpcDg9TV89YRtyWr4usngBTTpEg9dWgOlEkLNyHQSbRbCPNQGInE3bjtZQAghhJD4gh/3TRm2+ME/Z+KvlZkQickLYBCH+zfRAnP3wlvGy9gpL8qUV72XJN92zcWqTu/amX9Uy8LnxsmE2wLXGQ4XbfYGK2mBOr6DRv3J74Rt+Dud5Rtvkzca/D23cNlVtlet27QOPvlaolJZXSOr1xrZqZhIzTrBWnpampqEDdTV18uuvXtlx64yGfP7Z+S2hybJp2vWypUDz1MTq2EytcWfrVEZwODCPo1LEYDde8vlzt/9UU3Odsv1V8jKrzaoGsC/vuEqmTH5Qblj+P+TbTt+kDXrN5p/4S6Q/YqxBwsmVwND+pwmHz51j1oGnGHUGr7v+osb2k4zPZZXHvplQxtoV5DXsP/nu65TbfHCaqguWh1ZFrwd2bh2ZfTaAY1elxPM8MWkbTA+m7Ppi+eG59r/5gmuMXg1NOkSD0x0pl+rVevib9Q1p4xw1BHC0txx28kCQgghhMSfUH7ga7M3EpMX/cc6OwwmL8ozaLbu3KMMXvDJFxvkTJsyeAMBs3f+pDsDGrXI2A00WRkyeYP9rdvRBi+eR7SgDENzBpOj9ejWRW1jIrVZ736kavSCrzdtk2lvGJNeo9Zu24ICZQSvWbdRlWv49UOT5c/TX5et23+QGbPmq7q74JQTO8sFZ/9YbWtQ1uDRZ56XbZ77Thp7u5qkbadpCqNWK7CazG4EYwjGHix6POlx/NHKzMXSsZ1RBkHva5MXhNoWD6zlG3CFRSSMHXpxgzbBJscMhrX8gx0T1EUDjd4EwZ/hC3RZh+Zk+vqau9jXuMHg1eiMPpZtSCy0Ubd6w1a1jhfWjHB9TInMpk2b5LHHHpP9+40vVs0Vt50sIIQQQkh8gTFQ6lPfMRDaaAkXZAGXDOht7jkPTF1t8l554ZmqLIO1VANKN8AIJs5ih1Hdxpw4bvceI7O3OYIJ0k48zpj0a8Kz06TgR4PkqLMvk5MGXifrvzV+8/3i6iFyRs+TlEH70B2/kIL8XJWkcvejT0nn866Sn495VBnFyAJ+dNSvpH2bxrVf/714hTw74w2ZcO//SpdOx6g2GMyop/rRJyvlq683ydvvLZHsrEw5un1bdbvbwBUF+ZfcqRaMKQBXCui2UJbuI8arv/thb4XaL7z0bjn3179XbfHivhLvBGyRlm4Y6+lDZztHatJayz/07WGcfIgXNHoTDG34YtI2GJ6hmL5uN35xfE2Zu3jOc6fc6wqDV4OMPpJ46PjBhFrxZMduo2g9TEOYh4lOenq6LF26VL7+2rh0KhzwJev999+XkSNHyrPPPmu2upeitsaYG++TBYQQQgiJP7gEuvTdT46o8WgXl455Wq1hRMQKberC5EVJhivOP1Ptv/HectUGrKUciL3YGUu6ZMPab75V6+ZIp6M7yMLSKfLz/7lUUlJS1G8L1OwFXYqPkRf/+LD84f47VQ1f0LvnyfLhS8/IWaedqvY1Z/Q4SRa/NlWVcrCCjN+7HvmTlPx0oFw9+EKzVdTfD+p3lsz9YKn0GHyDfLxilQy9YlBDhnEisNlyAicSDrrgik5rRi+ufrBOfBkqGGd9zexw8H3MSE7o2UmLmpr9h/UsfHoNrNvE/cB0XLBsjcow83c5ca9uhpHU68RilT1YFKdyA9rAxfGuXLspoAkNc7fHCR3V2q1ccptx5mrSqJJmYdRFAz5MFy5cKD/5yU+kZcuWZqtIWVmZ/PDDD/Liiy/KmWeeKYMHeydWiBcrPe+RUZNK1TZOHsSL0jkfywzPgvfhjMduNVsTl7q6Orn55pvlz3/+s2Rnh37Z0pdffilTpkyRLl26SO/eveX0008P6+/jgT4ZpU9CEUIIISS50bV3YTj09fzAL24fuLZsqGBWfJgHuKQ4HJMXl5hjwffz+vp6qa2tlcrKCklr23SyjLVcA8o03G6WaoDxi1q9AMYvavZiArbHPduRlHAozo9sJnmUNBh0z1Ny/w2XyKPT56p91OHFNtoCTdYWjI0bv5Hc3DzJzMxUiQswCuGFYAmk5fEOT1R20tAH1XOzo/zEWs/ze3LqP1QJB0yy5iSBtASx0hGPs2dfharJW5jvOZYM729Tf9Tur5Oy8grJy8lWZSD8cfDgIc9zMWLCF9y29HOjtm/njkdJr5NObCjlYAfB4jMYMCtxEsqanarHKaBvwxiDiSJDRdf5RUbvObdOVG15WVny2d/vV9saf4/vJDBq9QkSXDmx5vlxajtUYPBaCbfEjvXv8ZwjLf9gFzR6myFNmb5WYADD/AXK/G3rreGDfU0wU1ibtTvM9fZd3stCdNZrMFNXkwjmrga6jhg3VW3DpIuHae4m9u7dKw8++KCMGDFCfvSjH5mtIvPmzZPZs2er9vz8fOnatat5S/xAHCLrHSAzXmfExxpt9OI9OGlkidmauBw8eFDuuusueeSRR6RVq9A0hTl8//33q7875hjjEqhEYNpbH8m02YtUdjiurCCEEEIIATAaMBnQ5ggvH9YUFxUqsxhGQ7i1eQOZk6EYvTB0Z763XI5p17ohc1cDc3fmwuWqjANA+Qad8RsukRq9qMmLCdj88dWMhyOqaes2o3f6/KVqojlQs8BbIzlSdpftlfsen6y277n559LNwWN3g9Hb3LDT6I0lsX58ZPJaM3HDNVujMXonlM6VCTO8VziEaxI7AY3eJABm6+r1MH3LZcfuveqS8aYM4EBYDc2mjNtAwBwpalOgTF2137U4bmZbpFiN3gVTx6o1CQwMPXwopaVF9qXOblAiBLjB6B3Up6eMHn6p2ZrYTJo0Sa6//no56qijzJYjwRe8J554Qn7xi1+o/VtuuUXatWsnEydOVCcDEgFdaoZGLyGEEELchj9zsqqqUlLbGL+9IkVn9SKT92cXnClTXpmnthc+F17mHIjU6AWPTJsjj3oWK8jqjSSbF3zzzbeSk5MbstELLTt3Ps78a/uBkQ1D+/5hg9WEdHbwj9fekMX/+UyZvDB7nSKQliDWOjYXgsVnMJLN6AXIVtYlFHCCDEZvqIarr9GLjOBQTrLh5J4urwPCNZidgkZvkqIzbWEA60nFdM1QEKkRDLRxVtQmXxm6AKZuIhq6gYB+Y/70ktpOBKP3vffek/PPP/+I9/WSJUvUpfZt2rSR8ePHh5yJGS7Tpk2TgoICufzyy82W+KKNXph08ar5PHnGXFUnuDkZvf/6179UCYZTT21c78qX9evXyx/+8AdlDCM2n3nmGVXyY+rUqcr0dTva6MV4hpMFhBBCCCFuwdecxES5yJ6M1ugFw8ZNUZm8VpDR65v92xTRGL3AavZGY/ICGGnImMzIyGjS6NVaOmlQomwDQIayXeisXqfLNwTSEsRax+ZCsPgMBsxHGJXxmhQM5SBibfT6ZvXi+c+Z+OuQDFsYxNZ6xaGUy/F9POCGbF5Ao5cERRu+jUzg3XsbDFyYuZrmYuKGQiKVbqisrFSXxmOSK3w4gJqaGvn9738v3bt3l+OOO06ef/55ad26tTz8cPAvFBs2bJDXX39dysvLlXHcv39/efXVV+Xll19Wt8Pgu/fee4/IzFy3bp28/fbbcvfdd5st8YOlG5zjiy++kN27d6tazUCX9MAXk0cffbQh/sC///1vFSdnnHGGVFVVyUcffaRi6/HHH5e2bd05U62GpRsIIYQQ4las5uSBAwcaLpNPb9tRDh027xQh1hq+wFrHN1RSWoh0zIv+Kj+YvZ2KWkdl8qL02ObNWxoujcfVh4GMXquWxcXHSqo5sZfdoDZvJCUomgJmL2hT6C3VaCfBtASx1rE50FR8BgPG5YsLlsumKMvIREO4dXLtAM9b1yEG4Zi94QCTF4+j6wIDZPLGK4PaFxq9hESAW43er776Sk48EQXgG39g/vOf/5QLLrhAZe5+//338tJLL8lll12m7gs++eQT+cc//qEyK7/77jtlDlvr6aKttLRU9VtcXCwVFRUqexNmMfrAB/bnn38u06dPV2doYSyfdNJJ5l8bH+zo/8YbbzRb4ofV6I3nZGzI5kVWb3MyejHx3oIFC+S6665TMYIs8ZKSEnnzzTdlyJAhaqI1DW5funSpDBgwwGwRZfYuWrRInSxw85c+Gr2EEEIIcSvanMSisydxmXzL1h2k/nD0k0Q9/YpRizJcg1eTmdZC2me743sefvPs3r1HXRqvMya1iYYlkJZt2rSW3NxcsxcCgmkJqGP4NBWfxD++NXNh8tqZXexbrgEgixfZvG4h9YEHfvuQv0Bh4BASmNysTJWRCc49rasrjF6cIUXmbKdOncwWLzgD+OmnnypD97nnnpO+ffuaZwg3y7fffquybffs2aOM4MWLF6tSC1lZWbJx40Zl8M6aNUvOO+886dy5s/owxm0wdnNyclR279atW5XZe/LJJ8vq1atVf3jMnTt3qsfAsn37dpW9GW++3rpT3lmyWm0PHXyuWseDjZ7jWOL5kMBIe+VFvY1Gl4IvZR988IHK/tZocx9Z3vo1xgkBxA/ONP/lL39RJRpwxr5Dhw7K2P34449VNjnuu2XLFlmzZo36sqf/HqANJUTcPDnbO0vXyNdbdkjPrp3knJ7RzYRMCCGEEGIn+nc8vr8BnUWJ3cNpGaotGjAZm56QLRLyM1KlZao7vIYfftjl+b9Fo8virVmogbTE/CP5+XmqjRgE05I6RkZT8Un8g0z/VrlZssjMtt1XVSOrN37nWVdLvyh+uyGL95k3P2iUMQzcZvKChoxe32Bh8BASHGT0IrMX9VVRZzXelJWVKeMNmbu+wET73e9+Z+75Bx+8eN8XFRXJ0UcfrfrSH8b+0PcPFWT+IlMz3uhszHjXV7XWeXZ7+Y///ve/aoK1wsJCtY+zy/fdd586Gw+ssaC3jz/+eBk+fLgq67F27Vq55JJL1Be6+fPnq/uBQDGECd38xbFbQEa4ygwffK6UxPFkASGEEEKIP/AdC2YaEjtgplVXV3u+v1VI3tHHyQEbsnojBQZvhxx3ZPNWVVWrZBVcFp+dna3mi8AVZb5GWiAtO3bsKDk52ea9kptQtKSO4RFqfJLA+Gb2AmT3lgzoHVINXg0M3tIFy4/oC7hl8jVfaPQSEiFum0zrm2++kZUrV8oVV1xhthjgQxVZvDfddJM6E5jsjJpcKivXbnaFSee2kwX+wBeyp556Sm677TZVFwosX75cnnjiCRVPMGR/+ctfqvZkwFr6I56T+RFCCCGEBALf//WCq6ewwFg7cFgkraB91LV6IwG1eVGywQ3ZvDAbt2zZ6vlum65MNHynxaJ9EasXElDLA/Vy7LEdXV1uLBaEqiV1DJ1w4pMEx5/ZC2D4dioqlOv7n9mwjTVMXYDaxotWr1dZwdY6vFbGDr04LMM4lqQwSAiJjB4nGDPXYgZ+mD/xBiUV5syZIytWrFAfoMiehCE3evTohg8HIsrkdQt6MkNk97oVGL3I6EVtZw1KdNx///3K/N23L/6xH0tWrt2k1sgIp8lLCCGEEDdiNYRgoOFkPS7/Tjl8UOrLdkhai0PmPWMDzF23mLzIlMQEV8iMhCbQBhpZNbNibW+kpefv0Q/6S1bC0dLaRh0DE258kuDAiMWkcDBlrcDQhYGLMgyot9t9xHjJv+ROtcaCNhjE/kxelGpQfbrU5AUtamvr1Pk8a8AweAhpGmRijvnjy67KyHz//ffVRGvbtm1T72PUOR00aJD89Kc/VR8WyY4u2wDiORGbBnWeZ5i1nt1avmHXrl1yxx13qHINuLQqLy9PxRZOJOzevVvFVbt27cx728NVV10lvXu7s27xEy+8rU7uDDi7h4wc6t4Pd0IIIYQkN9YMSmQI4rsbym7V1taoOROyC9pKalaOHGqR6kiGLzJ4Yexmp6dIbnp8/QU8d2SP7ttX4VlXqflGMjOzQjbSmtQyO0datTIusUd/zZlotKSO/ok2PklowNyFsRsoQ7cpkPGLMg0wet0OjV5CokCXb+jVrVgmjSwxW4lbcVPZBo3byzfgS9eyZctU5i4m58M+zF1MxIe6y5h0z266deumagK7DWvZBpi8MHsJIYQQQtyKNtVwhRYWGEqojwpzrb6+Tm2jzbjduK/Gup1I+PoaKSlYUpRhhjqn6ektlYGGbbThNiy4bzAfhFrao2Uy6mjFCU1JeOhs3kWrv1ZrXa7BF13SoW/PE1ydveuPoEYv6qakpiK47A2o+voDqk+cmbATnBXCmx9vCDvBIIO+nbj03dDYKKptJ9TYi5Maf7Fxm4x9+hW17/YJtZIdq0k34fZrpHuXY1wRxzxZkDhEOpEfx2Mv/MwzoMZeqLEXJzXGj+X0dGoM8wC/cxjHjGNNMsQxYhMLnqt+vugDC47RaD+oXjtD41R1f7tAn4bG9r52AMdsaNzYr7B6G9A/JcV4HfA6432KRb82WHB/698EiuNQtcRaY9Xy4EHDvITGduKkxgcOHGzQOBIt/QFNoBfWuG+4OgYjETS26gPNjOOF0Wtk8EaiqT+gJ/7ON46jBTroY7YT/Z6Kx3hsrc0bTsauWzVWRq9v0GC/vLyi4aALClpFFFj+qK6ukdraWrWdl5dr24uIMz+VlVVqOysrU6W72wGCbd++cjWw4FhxzHahNcag2aoVNXZSY2gLjX2/BESKVeORf3xFduwpd82kbMQ/Opu3qHW+TL7rGtXmhjhGfd4xf3pJbbt5UrZkx3qiIJyMcOtYgTraLVvaPx4jqzo72/3jcUVFhfrhZIzH+QG/aIVLYmuc5tE4z7wleqixATX2UldX79G4Um1TY2qsocYGyaIxnp9eY8HzhomAbb1GNmVFhaExsgnxHdkO8Fj4PeZ5dGVe4ZjtAjGB33kiLSQ/P+8IjaG9XuM2rGHG6LVus94PNNY4x6NxS7UNQtESbdb7aRAPVVVaY/wGSQSNqzwa13u0SVEaW3ULRctAoA4tNIY+OTlGmYZQdQxGImmsNYIWeM7QsLCwQOkZiaa+BIvjaEjM8bjSExuIY3vHY1zpWlPjTo39PkOIawyajbftAAOFxt5+D5pbxhvcLvRAAxAcdmHVFU49NXZWY2wfPGjfMVuP8//1P1OtUbcTC3EfK9dtbpiE7ddX91dr4GQc6+2mwIReugTA9NmLXDGxHzmSJ16YrdbI5g2n7EcsxmM7+400jpsC/ej3G7bxOHaR2BofSBCNvc+fGieaxs70S429UGMv1NjAbRpbjSIsMJFwMhcLjAkYu8jShKGAbRhZ2LZjwWOgT5huuFIY2/7uF+6Cfoz+jG08jr/76DUWPFf9vLVJadVG01jjxq+d9f5Y/GlpfVzr8aSlpXra0G5sW2+LZsFjG4/rhMbGMWvtjMcJXctA6PcE7osM3HB0DLYkksb6OcJ0zMiAnkaZhkg19SVYHEdD437t826cHY+N47R7PNbjPLBTY6tvFanGqQ888NuHrIGjA8qamm5XxpsGQiOI4Uzb5abjmHVA4HjxxrYDvMnQL84wZGYaHyJ20Fjj9ATROEX1m5ga2xvHnq4bND71hGL5YW+lbNy6Uy19Tusqudn21y0lkQHj9JZH/k9tw1QtGdzXEsf4EmDPJSe+cYwvKaFyfMf2smTlBlWrNzcrQ3p162TeQtwAThRMe8uYxG/cr66UojBLtDg/Htsbx/gCF0kcByMxv1cknsY4VnzRpMaMYw01bowTGqMfpzWGGZBoYwX6pcbu0RjHhEVv6zUW9IHjhBbYR4YltIA+0S74XQd9Ad53MLj83S+SBceK8QImGTIs/d0Hz02v9aKft3XxJZjG1r+xrrHgvtbHtS6IW4xtuB/munBCYxwv3iP+7hfJgmPVGuOY0Ybnphf9vK1LqOB3E/rDMaemGhrrPoLpGGxJRI1xxTHMbtTmxTFrDaxLpDg/HsMTSpzxGMeKcchO3Kpxi/376xtZ5dZAQsfRBFZzwiktqLGXRNYYBt2YP76s1sOG9JVhl/UzbyHxRpdsAKirioxMJ4k03krnfCwzPAtgCQf3YC3ZgBMFE++8Tm03d/iZ5zzU2HmosfNQY+ehxs6TjBrj2Kz47ttNvDX2vY+dxxJrLQMRK42d0tItOgbDKY1BMI2TiVjFcXMnqOWczAHmi1NaUGMviawxzMMBZ3dX25isCZM2kfiD10GbvDDonDZ5QaTxhnIAMBLBEy+8zRIOLsFasiFZTF7AzzznocbOQ42dhxo7DzV2nmTUGMcWywUZav7ao10i7ddO/PUfjyVeGtuFv77dtsRK42TGqeefbLoGzeglhIQHszLdAy63HzWpVG2HM3lWvBkxbqrKDO/QppU8OapErUl8sGaDw+TVRjwhhBBCCCGEEOJGGmX00uQlJDpgJuqsUWRlcnK2+ADdtclr1OVNDJMXTLzrWhVDyOi9x/McmNkbH6wm78ihl9DkJYQQQgghhBDieuypFkwIacBaBxZmL8s4xBaYvNAdJGJNVcTOyBsG0+yNI74m74Cze6htQgghhBBCCCHEzaT+9rfjHsIGs3kJsY8rLjhDFixdI1U1+1UJAVDUtkByszPVNnEGmOrPvvZvtZ2IJq+mqE0rOb5jkaxev0WVcVj8+TrpcmwRyzg4DAz1B597nSYvIYQQQgghhJCEpKFGL41eQuxn8oy58u7S1Wq7V7diGT18CM06B4BBh0mztEGXyCavlVXrt8jk6XOU2QuGDekrwy7rp7aJvVhrOgPW5CWEEEIIIYQQkmgoo5cmLyHOYZ2gjRNs2Q8Muieen91Q3iCRJl4LBZi8Y/74coPZiwn+bhjSlzFkI8gEnzZ7kdrWpTNo8hJCCCGEEEIISTRa1NUdUBm9hBDnQFZv6ZzFjTIzB/bpSbMuSnwnvGvOWZjW7HDEDcxemL4kcnCSYNrsj5pdJjghhBBCCCGEkOSERi8hMcI3MxNm3egRQ6RX12K1T0LHN4sXBl3J4L7NPgvT94QBs3sjx5rFC5pbJjghhBBCCCGEkOSDRi8hMQalHN5duqbBrGPt3tDxzcAEyTZhFuIGZq/O7gWjh1/qiaNOjKEQQAb49NmLku4kASGEEEIIIYSQ5g+NXkLiAMw6TLKFybY0MHyHDenHDF8/+DN4YcyhlipqqiYjvtm9gBm+gfE1eAGzeAkhhBBCCCGENCdo9BISR2D0ls5ZRMM3AIEMXmZgeqHhGxx/Bi8ywEsG90nakwSEEEIIIYQQQponNHoJcQE0fBtDgzd8aPg2hgYvIYQQQgghhJBkg0YvIS4ikOHb68RiGdinZ7M37PyZczR4w8Of4atPGhR54qc5xxDiB++dlWs30eAlhBBCCCGEEJJ00OglxIX4M3xBczN9kbm7fdfeI8xdQIM3OvwZvqC5mb6BzF1Ag5cQQgghhBBCSDJBo5cQFwMDa8GyNbJq3Wa/hl0imr4wd99ZstqvMQdgzvU/qzsNXpvQJw127C73G0MDPXr36tYpoWJIm7tY+4L46XFCR+nZtZgGLyGEEEIIIYSQpIJGLyEJAoyt1es3y7tL1xxh2MGkK2rbShm/MO2Qranb4wmMXBi6OzzrHXvKg5q7zLx0nqZMX7W2xJAbzF9t5uLYg8UPzV1CCCGEEEIIIclOUKP38OHD0qJFC3MvuXFKC2rshRqHTjDT1wrMuw5tCqSodb6j5p02dEEwQ06DbF2VtdsMjblEiWO8ToGyxTW+JxCA0zHU1EkBjRPmLsdjLxyPnYcaOw81dh5q7DzU2HmosfNQY+ehxs5DjZ2HGttDQKO3qqpa9u/fL+np6ZKXl2u2Rg/6RN8pKSmq39TUVPOW6Dhw4KBUVlbKoUOHJCcnRzIyWpq3RE9FRYXU1x+QzMwMyc7ONlujhxp7ocYGXo0PezTODkljGHY7du+VnXvKPdub/WZr+kObdTDyNDCFAYxhDUw3sN3zGGDHLm/fwYw4KzDlQDjGHOPYi9Nx/NWmHfL1th9kzddbVfwAu2JIxw/wjaFQ4wfxYsRNvuRnt5Rze55gu8bV1dVSW5uo4zHGigzzluhxKo69Gqd5tMgzW6PHKY0PHjzo0SJRNU6MOE5sjRnH1NiAGnuhxl6osRf0W19fT42pcQPU2EssNM7NzZW0tMTRGH2ib7twTuM6j8ZVrtTYr9ELt7uszPhBDvDmw48GO9i3r1wdOMjKyvQsWWo7WqqrazwvXq3aTktLk/x8e15ABBpE1rRuXWhuRQc19pKIGpeXlyujBbhRY5h0MOyQ9WuYv/s8A8Vh+WFvhXkPZ4CR26FtoVqDaLIt3a6xL75xXFhYYMtZw3jFMU4gAG8MhXYCIVqCnRRobhpHA+PYS3l5hUfjA2o7MzPT8+WbGgNqTI0BNfZCjQ2osRdq7IUae6HGBomocU1NjWfRGqd6NPYmL0UDNfZCjb24WeOAGb36oCFuq1atJCUlepGBdYCD692ypT0i19XVSWVlldq288c0XHQYpwgQBAQCwy4SWWM7Azl2Guersy12kKga7yyrkL2VNQ3vD2QCA2QDA519qduLzOxMoDM021uyfXF7dstUdWKhfWEeNW6IY3vPFropjvVJBI3OJtcghqDFdzv3qH0Y//rsJmLIN36MtdHW1EkBjhVeGMdeqLEXnZlGjamxhhp7cU7jeo/Gxo9TamzVOMejsT1XTVFjL9TYCzU2sGpsp4EMqLEBNfZCjb24WeOgNXrhqiON3i4hNBAZpqZdKfoaZE3pDxE7QdDByLLL+bdCjQ2osRdq7IUae6HGBtTYCzX2Qo29OKkxviDbdVmahhp7ocZeqLEBNfZCjb04pTF0wBWA1JgaW6HGBtTYCzX24laNgxq9hBBCCCGEEEIIIYQQQtyPvXY2IYQQQgghhBBCCCGEkBgj8v8BM7lmPM0EiLsAAAAASUVORK5CYII=;" vertex="1" parent="1">
          <mxGeometry x="430" y="110" width="1402" height="780" as="geometry" />
        </mxCell>
        <mxCell id="Okt3mSyjqSTwvYbomps8-5" value="" style="endArrow=none;html=1;rounded=0;entryX=0.35;entryY=0.487;entryDx=0;entryDy=0;entryPerimeter=0;exitX=0.385;exitY=0.423;exitDx=0;exitDy=0;exitPerimeter=0;" edge="1" parent="1" source="Okt3mSyjqSTwvYbomps8-1" target="Okt3mSyjqSTwvYbomps8-1">
          <mxGeometry relative="1" as="geometry">
            <mxPoint x="960" y="190" as="sourcePoint" />
            <mxPoint x="1120" y="190" as="targetPoint" />
          </mxGeometry>
        </mxCell>
        <mxCell id="Okt3mSyjqSTwvYbomps8-7" value="" style="endArrow=none;html=1;rounded=0;entryX=0.378;entryY=0.564;entryDx=0;entryDy=0;entryPerimeter=0;exitX=0.399;exitY=0.423;exitDx=0;exitDy=0;exitPerimeter=0;" edge="1" parent="1" source="Okt3mSyjqSTwvYbomps8-1" target="Okt3mSyjqSTwvYbomps8-1">
          <mxGeometry relative="1" as="geometry">
            <mxPoint x="890" y="450" as="sourcePoint" />
            <mxPoint x="1050" y="450" as="targetPoint" />
            <Array as="points" />
          </mxGeometry>
        </mxCell>
        <mxCell id="Okt3mSyjqSTwvYbomps8-8" value="" style="endArrow=none;html=1;rounded=0;exitX=0.449;exitY=0.423;exitDx=0;exitDy=0;exitPerimeter=0;entryX=0.478;entryY=0.564;entryDx=0;entryDy=0;entryPerimeter=0;" edge="1" parent="1" source="Okt3mSyjqSTwvYbomps8-1" target="Okt3mSyjqSTwvYbomps8-1">
          <mxGeometry relative="1" as="geometry">
            <mxPoint x="1040" y="570" as="sourcePoint" />
            <mxPoint x="1200" y="570" as="targetPoint" />
          </mxGeometry>
        </mxCell>
        <mxCell id="Okt3mSyjqSTwvYbomps8-10" value="" style="endArrow=none;html=1;rounded=0;entryX=0.456;entryY=0.423;entryDx=0;entryDy=0;entryPerimeter=0;exitX=0.535;exitY=0.526;exitDx=0;exitDy=0;exitPerimeter=0;" edge="1" parent="1" source="Okt3mSyjqSTwvYbomps8-1" target="Okt3mSyjqSTwvYbomps8-1">
          <mxGeometry relative="1" as="geometry">
            <mxPoint x="1040" y="570" as="sourcePoint" />
            <mxPoint x="1200" y="570" as="targetPoint" />
          </mxGeometry>
        </mxCell>
        <mxCell id="Okt3mSyjqSTwvYbomps8-11" value="" style="endArrow=none;html=1;rounded=0;entryX=0.456;entryY=0.397;entryDx=0;entryDy=0;entryPerimeter=0;exitX=0.535;exitY=0.449;exitDx=0;exitDy=0;exitPerimeter=0;" edge="1" parent="1" source="Okt3mSyjqSTwvYbomps8-1" target="Okt3mSyjqSTwvYbomps8-1">
          <mxGeometry relative="1" as="geometry">
            <mxPoint x="1040" y="570" as="sourcePoint" />
            <mxPoint x="1200" y="570" as="targetPoint" />
          </mxGeometry>
        </mxCell>
        <mxCell id="Okt3mSyjqSTwvYbomps8-12" value="" style="endArrow=none;html=1;rounded=0;entryX=0.499;entryY=0.256;entryDx=0;entryDy=0;entryPerimeter=0;exitX=0.456;exitY=0.346;exitDx=0;exitDy=0;exitPerimeter=0;" edge="1" parent="1" source="Okt3mSyjqSTwvYbomps8-1" target="Okt3mSyjqSTwvYbomps8-1">
          <mxGeometry relative="1" as="geometry">
            <mxPoint x="1040" y="390" as="sourcePoint" />
            <mxPoint x="1200" y="390" as="targetPoint" />
          </mxGeometry>
        </mxCell>
        <mxCell id="Okt3mSyjqSTwvYbomps8-14" value="&lt;font style=&quot;font-size: 17px;&quot;&gt;عکس&lt;/font&gt;" style="ellipse;whiteSpace=wrap;html=1;align=center;" vertex="1" parent="1">
          <mxGeometry x="950" y="240" width="120" height="70" as="geometry" />
        </mxCell>
        <mxCell id="Okt3mSyjqSTwvYbomps8-15" value="" style="endArrow=none;html=1;rounded=0;entryX=0.5;entryY=1;entryDx=0;entryDy=0;exitX=0.414;exitY=0.333;exitDx=0;exitDy=0;exitPerimeter=0;" edge="1" parent="1" source="Okt3mSyjqSTwvYbomps8-1" target="Okt3mSyjqSTwvYbomps8-14">
          <mxGeometry relative="1" as="geometry">
            <mxPoint x="1030" y="350" as="sourcePoint" />
            <mxPoint x="1190" y="350" as="targetPoint" />
          </mxGeometry>
        </mxCell>
        <mxCell id="Okt3mSyjqSTwvYbomps8-36" style="edgeStyle=orthogonalEdgeStyle;rounded=0;orthogonalLoop=1;jettySize=auto;html=1;exitX=0.5;exitY=1;exitDx=0;exitDy=0;entryX=0.5;entryY=0;entryDx=0;entryDy=0;shape=link;" edge="1" parent="1" source="Okt3mSyjqSTwvYbomps8-16" target="Okt3mSyjqSTwvYbomps8-35">
          <mxGeometry relative="1" as="geometry" />
        </mxCell>
        <mxCell id="Okt3mSyjqSTwvYbomps8-16" value="&lt;font style=&quot;font-size: 17px;&quot;&gt;سفارش&lt;/font&gt;" style="whiteSpace=wrap;html=1;align=center;" vertex="1" parent="1">
          <mxGeometry x="990" y="10" width="110" height="70" as="geometry" />
        </mxCell>
        <mxCell id="Okt3mSyjqSTwvYbomps8-18" value="&lt;font style=&quot;font-size: 17px;&quot;&gt;تاریخ ثبت سفارش&lt;/font&gt;" style="ellipse;whiteSpace=wrap;html=1;align=center;" vertex="1" parent="1">
          <mxGeometry x="1020" y="-130" width="120" height="70" as="geometry" />
        </mxCell>
        <mxCell id="Okt3mSyjqSTwvYbomps8-33" style="rounded=0;orthogonalLoop=1;jettySize=auto;html=1;exitX=0;exitY=1;exitDx=0;exitDy=0;entryX=1;entryY=0;entryDx=0;entryDy=0;endArrow=none;endFill=0;" edge="1" parent="1" source="Okt3mSyjqSTwvYbomps8-19" target="Okt3mSyjqSTwvYbomps8-16">
          <mxGeometry relative="1" as="geometry" />
        </mxCell>
        <mxCell id="Okt3mSyjqSTwvYbomps8-19" value="&lt;font style=&quot;font-size: 17px;&quot;&gt;مبلغ کل&lt;/font&gt;" style="ellipse;whiteSpace=wrap;html=1;align=center;" vertex="1" parent="1">
          <mxGeometry x="1160" y="-90" width="120" height="70" as="geometry" />
        </mxCell>
        <mxCell id="Okt3mSyjqSTwvYbomps8-34" value="" style="edgeStyle=orthogonalEdgeStyle;rounded=0;orthogonalLoop=1;jettySize=auto;html=1;endArrow=none;endFill=0;" edge="1" parent="1" source="Okt3mSyjqSTwvYbomps8-20" target="Okt3mSyjqSTwvYbomps8-16">
          <mxGeometry relative="1" as="geometry" />
        </mxCell>
        <mxCell id="Okt3mSyjqSTwvYbomps8-20" value="&lt;font style=&quot;font-size: 17px;&quot;&gt;وضعیت پرداخت&lt;/font&gt;" style="ellipse;whiteSpace=wrap;html=1;align=center;" vertex="1" parent="1">
          <mxGeometry x="1180" y="10" width="120" height="70" as="geometry" />
        </mxCell>
        <mxCell id="Okt3mSyjqSTwvYbomps8-21" value="&lt;font style=&quot;font-size: 17px;&quot;&gt;توسط&lt;/font&gt;" style="shape=rhombus;perimeter=rhombusPerimeter;whiteSpace=wrap;html=1;align=center;" vertex="1" parent="1">
          <mxGeometry x="790" y="10" width="120" height="70" as="geometry" />
        </mxCell>
        <mxCell id="Okt3mSyjqSTwvYbomps8-23" style="edgeStyle=orthogonalEdgeStyle;rounded=0;orthogonalLoop=1;jettySize=auto;html=1;exitX=0;exitY=0.5;exitDx=0;exitDy=0;entryX=0.243;entryY=0.179;entryDx=0;entryDy=0;entryPerimeter=0;" edge="1" parent="1" source="Okt3mSyjqSTwvYbomps8-21" target="Okt3mSyjqSTwvYbomps8-1">
          <mxGeometry relative="1" as="geometry">
            <Array as="points">
              <mxPoint x="771" y="45" />
            </Array>
          </mxGeometry>
        </mxCell>
        <mxCell id="Okt3mSyjqSTwvYbomps8-27" value="&lt;span style=&quot;font-size: 17px;&quot;&gt;(ID)شناسه&lt;/span&gt;" style="ellipse;whiteSpace=wrap;html=1;align=center;fontStyle=4;" vertex="1" parent="1">
          <mxGeometry x="870" y="-110" width="120" height="70" as="geometry" />
        </mxCell>
        <mxCell id="Okt3mSyjqSTwvYbomps8-29" value="" style="shape=link;html=1;rounded=0;exitX=1;exitY=0.5;exitDx=0;exitDy=0;" edge="1" parent="1" source="Okt3mSyjqSTwvYbomps8-21">
          <mxGeometry relative="1" as="geometry">
            <mxPoint x="910" y="50" as="sourcePoint" />
            <mxPoint x="990" y="45" as="targetPoint" />
          </mxGeometry>
        </mxCell>
        <mxCell id="Okt3mSyjqSTwvYbomps8-31" style="rounded=0;orthogonalLoop=1;jettySize=auto;html=1;exitX=1;exitY=1;exitDx=0;exitDy=0;entryX=0.103;entryY=0.016;entryDx=0;entryDy=0;entryPerimeter=0;endArrow=none;endFill=0;" edge="1" parent="1" source="Okt3mSyjqSTwvYbomps8-27" target="Okt3mSyjqSTwvYbomps8-16">
          <mxGeometry relative="1" as="geometry" />
        </mxCell>
        <mxCell id="Okt3mSyjqSTwvYbomps8-32" style="rounded=0;orthogonalLoop=1;jettySize=auto;html=1;exitX=0.5;exitY=1;exitDx=0;exitDy=0;entryX=0.659;entryY=0.005;entryDx=0;entryDy=0;entryPerimeter=0;endArrow=none;endFill=0;" edge="1" parent="1" source="Okt3mSyjqSTwvYbomps8-18" target="Okt3mSyjqSTwvYbomps8-16">
          <mxGeometry relative="1" as="geometry" />
        </mxCell>
        <mxCell id="Okt3mSyjqSTwvYbomps8-35" value="&lt;font style=&quot;font-size: 17px;&quot;&gt;دارد&lt;/font&gt;" style="shape=rhombus;perimeter=rhombusPerimeter;whiteSpace=wrap;html=1;align=center;" vertex="1" parent="1">
          <mxGeometry x="1020" y="130" width="120" height="70" as="geometry" />
        </mxCell>
        <mxCell id="Okt3mSyjqSTwvYbomps8-37" style="edgeStyle=orthogonalEdgeStyle;rounded=0;orthogonalLoop=1;jettySize=auto;html=1;exitX=0.5;exitY=1;exitDx=0;exitDy=0;endArrow=none;endFill=0;entryX=0.442;entryY=0.346;entryDx=0;entryDy=0;entryPerimeter=0;" edge="1" parent="1" target="Okt3mSyjqSTwvYbomps8-1">
          <mxGeometry relative="1" as="geometry">
            <mxPoint x="1080.35" y="200" as="sourcePoint" />
            <mxPoint x="1050" y="370" as="targetPoint" />
            <Array as="points">
              <mxPoint x="1080" y="220" />
              <mxPoint x="1080" y="220" />
              <mxPoint x="1080" y="340" />
              <mxPoint x="1050" y="340" />
              <mxPoint x="1050" y="370" />
            </Array>
          </mxGeometry>
        </mxCell>
        <mxCell id="Okt3mSyjqSTwvYbomps8-38" value="" style="rounded=0;whiteSpace=wrap;html=1;dashed=1;dashPattern=1 4;strokeColor=none;" vertex="1" parent="1">
          <mxGeometry x="1360" y="820" width="490" height="60" as="geometry" />
        </mxCell>
      </root>
    </mxGraphModel>
  </diagram>
</mxfile>
